{
.appVersion = "1230";
copyright = "Copyright © 2019 by Abbie Gonzalez. All rights reserved.";
date = "2019-07-31 02:23:48 +0000";
designer = "Abbie Gonzalez";
designerURL = "https://abbiecod.es";
familyName = OpenDyslexic;
fontMaster = (
{
alignmentZones = (
"{800, 16}",
"{700, 16}",
"{500, 16}",
"{0, -16}",
"{-200, -16}"
);
ascender = 800;
capHeight = 700;
descender = -200;
guideLines = (
{
position = "{249, 144}";
},
{
position = "{167, 549}";
},
{
angle = -9.1002;
position = "{316, 290}";
}
);
id = "BA196CD0-EE58-4274-B8DF-4393D3617A29";
userData = {
GSCornerRadius = 55;
GSOffsetHorizontal = 12;
GSOffsetMakeStroke = 1;
GSOffsetPosition = 0.1;
GSOffsetProportional = 1;
GSOffsetVertical = -10;
};
xHeight = 500;
}
);
glyphs = (
{
color = 6;
glyphname = A;
lastChange = "2019-08-09 17:25:59 +0000";
layers = (
{
anchors = (
{
name = bottom;
position = "{409, 0}";
},
{
name = dotbelowcomb;
position = "{416, 7}";
},
{
name = greek_cap;
position = "{201, 603}";
},
{
name = ogonek;
position = "{638, 0}";
},
{
name = top;
position = "{408, 781}";
}
);
layerId = "BA196CD0-EE58-4274-B8DF-4393D3617A29";
paths = (
{
closed = 1;
nodes = (
"275 235 LINE",
"408 668 LINE",
"544 235 LINE"
);
},
{
closed = 1;
nodes = (
"209 0 LINE",
"246 119 LINE",
"574 119 LINE",
"602 0 LINE",
"743 0 LINE",
"456 729 LINE",
"363 729 LINE",
"75 0 LINE"
);
}
);
width = 818;
}
);
unicode = 0041;
},
{
color = 6;
glyphname = B;
lastChange = "2019-08-08 00:57:25 +0000";
layers = (
{
anchors = (
{
name = bottom;
position = "{339, 0}";
},
{
name = top;
position = "{339, 700}";
}
);
layerId = "BA196CD0-EE58-4274-B8DF-4393D3617A29";
paths = (
{
closed = 1;
nodes = (
"385 348 OFFCURVE",
"425 338 OFFCURVE",
"450 316 CURVE SMOOTH",
"476 293 OFFCURVE",
"493 268 OFFCURVE",
"493 248 CURVE SMOOTH",
"493 160 OFFCURVE",
"438 145 OFFCURVE",
"332 145 CURVE SMOOTH",
"174 145 LINE",
"174 348 LINE",
"332 348 LINE SMOOTH"
);
},
{
closed = 1;
nodes = (
"416 663 OFFCURVE",
"463 612 OFFCURVE",
"463 538 CURVE SMOOTH",
"463 464 OFFCURVE",
"416 428 OFFCURVE",
"320 428 CURVE SMOOTH",
"174 428 LINE",
"174 663 LINE",
"320 663 LINE SMOOTH"
);
},
{
closed = 1;
nodes = (
"337 0 LINE SMOOTH",
"501 0 OFFCURVE",
"602 0 OFFCURVE",
"602 204 CURVE SMOOTH",
"602 303 OFFCURVE",
"544 372 OFFCURVE",
"415 393 CURVE",
"495 406 OFFCURVE",
"538 459 OFFCURVE",
"538 549 CURVE SMOOTH",
"538 664 OFFCURVE",
"453 729 OFFCURVE",
"303 729 CURVE SMOOTH",
"75 729 LINE",
"75 0 LINE"
);
}
);
width = 677;
}
);
unicode = 0042;
},
{
color = 6;
glyphname = C;
lastChange = "2019-08-02 20:45:03 +0000";
layers = (
{
anchors = (
{
name = bottom;
position = "{384, 0}";
},
{
name = top;
position = "{384, 729}";
}
);
layerId = "BA196CD0-EE58-4274-B8DF-4393D3617A29";
paths = (
{
closed = 1;
nodes = (
"618 656 LINE",
"522 672 OFFCURVE",
"522 672 OFFCURVE",
"437 672 CURVE SMOOTH",
"271 672 OFFCURVE",
"161 561 OFFCURVE",
"161 368 CURVE SMOOTH",
"161 197 OFFCURVE",
"271 139 OFFCURVE",
"437 139 CURVE SMOOTH",
"522 139 OFFCURVE",
"562 144 OFFCURVE",
"611 159 CURVE",
"611 -13 LINE",
"414 -13 OFFCURVE",
"384 -13 OFFCURVE",
"300 -13 CURVE SMOOTH",
"110 -13 OFFCURVE",
"75 0 OFFCURVE",
"75 368 CURVE SMOOTH",
"75 602 OFFCURVE",
"210 746 OFFCURVE",
"431 746 CURVE SMOOTH",
"519 746 OFFCURVE",
"543 744 OFFCURVE",
"632 732 CURVE"
);
}
);
width = 707;
}
);
unicode = 0043;
},
{
color = 6;
glyphname = D;
lastChange = "2019-08-07 22:42:22 +0000";
layers = (
{
anchors = (
{
name = bottom;
position = "{382, 0}";
},
{
name = center;
position = "{356, 365}";
},
{
name = top;
position = "{356, 729}";
}
);
layerId = "BA196CD0-EE58-4274-B8DF-4393D3617A29";
paths = (
{
closed = 1;
nodes = (
"499 659 OFFCURVE",
"608 573 OFFCURVE",
"608 393 CURVE SMOOTH",
"608 271 OFFCURVE",
"550 190 OFFCURVE",
"298 190 CURVE SMOOTH",
"179 190 LINE",
"179 659 LINE",
"298 659 LINE SMOOTH"
);
},
{
closed = 1;
nodes = (
"278 0 LINE SMOOTH",
"560 0 OFFCURVE",
"688 0 OFFCURVE",
"688 365 CURVE SMOOTH",
"688 615 OFFCURVE",
"561 729 OFFCURVE",
"278 729 CURVE SMOOTH",
"75 729 LINE",
"75 0 LINE"
);
}
);
width = 763;
}
);
unicode = 0044;
},
{
color = 6;
glyphname = E;
lastChange = "2019-08-09 17:29:41 +0000";
layers = (
{
anchors = (
{
name = bottom;
position = "{352, 0}";
},
{
name = ogonek;
position = "{351, 0}";
},
{
name = top;
position = "{312, 705}";
},
{
name = topleft;
position = "{20, 700}";
}
);
layerId = "BA196CD0-EE58-4274-B8DF-4393D3617A29";
paths = (
{
closed = 1;
nodes = (
"558 0 LINE",
"545 151 LINE",
"192 151 LINE",
"192 331 LINE",
"437 347 LINE",
"437 430 LINE",
"192 419 LINE",
"192 637 LINE",
"522 656 LINE",
"543 729 LINE",
"99 715 LINE",
"75 0 LINE"
);
}
);
width = 633;
}
);
unicode = 0045;
},
{
color = 6;
glyphname = F;
lastChange = "2019-08-07 21:38:40 +0000";
layers = (
{
anchors = (
{
name = bottom;
position = "{287, 0}";
},
{
name = top;
position = "{287, 700}";
}
);
layerId = "BA196CD0-EE58-4274-B8DF-4393D3617A29";
paths = (
{
closed = 1;
nodes = (
"114 717 LINE",
"498 729 LINE",
"498 663 LINE",
"208 646 LINE",
"184 450 LINE",
"452 468 LINE",
"452 366 LINE",
"189 348 LINE",
"206 0 LINE",
"75 0 LINE"
);
}
);
width = 573;
}
);
unicode = 0046;
},
{
color = 6;
glyphname = G;
lastChange = "2019-08-11 00:04:08 +0000";
layers = (
{
anchors = (
{
name = bottom;
position = "{406, 0}";
},
{
name = top;
position = "{406, 729}";
}
);
layerId = "BA196CD0-EE58-4274-B8DF-4393D3617A29";
paths = (
{
closed = 1;
nodes = (
"576 157 OFFCURVE",
"517 145 OFFCURVE",
"447 145 CURVE SMOOTH",
"269 145 OFFCURVE",
"186 194 OFFCURVE",
"179 374 CURVE",
"179 654 OFFCURVE",
"269 665 OFFCURVE",
"447 665 CURVE SMOOTH",
"496 665 OFFCURVE",
"573 661 OFFCURVE",
"649 644 CURVE",
"638 722 LINE",
"614 726 OFFCURVE",
"534 736 OFFCURVE",
"439 736 CURVE SMOOTH",
"211 736 OFFCURVE",
"75 685 OFFCURVE",
"75 364 CURVE SMOOTH",
"75 126 OFFCURVE",
"211 -14 OFFCURVE",
"439 -14 CURVE SMOOTH",
"543 -14 OFFCURVE",
"615 -14 OFFCURVE",
"697 40 CURVE",
"686 246 LINE",
"754 245 LINE",
"737 341 LINE",
"455 373 LINE",
"465 279 LINE",
"600 261 LINE",
"600 182 LINE"
);
}
);
width = 829;
}
);
unicode = 0047;
},
{
color = 6;
glyphname = H;
lastChange = "2019-08-09 18:05:20 +0000";
layers = (
{
anchors = (
{
name = bottom;
position = "{381, 0}";
},
{
name = center;
position = "{378, 365}";
},
{
name = greek_top;
position = "{41, 654}";
},
{
name = top;
position = "{378, 729}";
},
{
name = topleft;
position = "{20, 700}";
}
);
layerId = "BA196CD0-EE58-4274-B8DF-4393D3617A29";
paths = (
{
closed = 1;
nodes = (
"75 0 LINE",
"227 0 LINE",
"199 729 LINE",
"95 729 LINE"
);
},
{
closed = 1;
nodes = (
"527 0 LINE",
"686 0 LINE",
"655 729 LINE",
"551 729 LINE"
);
},
{
closed = 1;
nodes = (
"176 187 LINE",
"570 187 LINE",
"577 332 LINE",
"176 332 LINE"
);
}
);
width = 761;
}
);
unicode = 0048;
},
{
color = 6;
glyphname = I;
lastChange = "2019-08-07 21:36:16 +0000";
layers = (
{
anchors = (
{
name = bottom;
position = "{145, 0}";
},
{
name = ogonek;
position = "{135, 0}";
},
{
name = top;
position = "{139, 779}";
},
{
name = topleft;
position = "{20, 700}";
}
);
layerId = "BA196CD0-EE58-4274-B8DF-4393D3617A29";
paths = (
{
closed = 1;
nodes = (
"106 292 OFFCURVE",
"90 632 OFFCURVE",
"80 729 CURVE",
"189 729 LINE",
"179 492 OFFCURVE",
"189 243 OFFCURVE",
"215 0 CURVE",
"75 0 LINE"
);
}
);
width = 290;
}
);
unicode = 0049;
},
{
color = 6;
glyphname = J;
lastChange = "2019-08-07 21:38:40 +0000";
layers = (
{
anchors = (
{
name = bottom;
position = "{236, 0}";
},
{
name = top;
position = "{277, 729}";
}
);
layerId = "BA196CD0-EE58-4274-B8DF-4393D3617A29";
paths = (
{
closed = 1;
nodes = (
"281 727 LINE",
"396 727 LINE",
"362 31 LINE SMOOTH",
"353 -145 OFFCURVE",
"297 -209 OFFCURVE",
"141 -211 CURVE",
"75 -205 LINE",
"82 -44 LINE",
"132 -55 LINE SMOOTH",
"217 -74 OFFCURVE",
"256 -16 OFFCURVE",
"258 37 CURVE SMOOTH"
);
}
);
width = 471;
}
);
unicode = 004A;
},
{
color = 6;
glyphname = K;
lastChange = "2019-08-09 18:14:52 +0000";
layers = (
{
anchors = (
{
name = bottom;
position = "{365, 0}";
},
{
name = top;
position = "{365, 729}";
}
);
layerId = "BA196CD0-EE58-4274-B8DF-4393D3617A29";
paths = (
{
closed = 1;
nodes = (
"203 0 LINE",
"215 289 LINE",
"412 0 LINE",
"645 0 LINE",
"307 327 LINE",
"550 729 LINE",
"423 729 LINE",
"215 359 LINE",
"228 729 LINE",
"140 729 LINE",
"75 0 LINE"
);
}
);
width = 720;
}
);
unicode = 004B;
},
{
color = 6;
glyphname = L;
lastChange = "2019-08-07 21:38:40 +0000";
layers = (
{
anchors = (
{
name = "_ circumflexbelowcomb";
position = "{292, 0}";
},
{
name = bottom;
position = "{310, 0}";
},
{
name = center;
position = "{310, 350}";
},
{
name = top;
position = "{152, 729}";
},
{
name = topright;
position = "{599, 700}";
}
);
layerId = "BA196CD0-EE58-4274-B8DF-4393D3617A29";
paths = (
{
closed = 1;
nodes = (
"101 729 LINE",
"179 729 LINE",
"179 145 LINE",
"534 151 LINE",
"544 0 LINE",
"75 0 LINE"
);
}
);
width = 619;
}
);
unicode = 004C;
},
{
color = 6;
glyphname = M;
lastChange = "2019-08-07 21:38:40 +0000";
layers = (
{
anchors = (
{
name = _top;
position = "{403, 663}";
},
{
name = bottom;
position = "{432, 0}";
},
{
name = top;
position = "{432, 700}";
}
);
layerId = "BA196CD0-EE58-4274-B8DF-4393D3617A29";
paths = (
{
closed = 1;
nodes = (
"101 729 LINE",
"248 729 LINE",
"437 289 LINE",
"621 729 LINE",
"758 729 LINE",
"789 0 LINE",
"628 0 LINE",
"678 671 LINE",
"489 63 LINE",
"380 63 LINE",
"172 671 LINE",
"218 0 LINE",
"75 0 LINE"
);
}
);
width = 864;
}
);
unicode = 004D;
},
{
color = 6;
glyphname = N;
lastChange = "2019-08-07 21:38:40 +0000";
layers = (
{
anchors = (
{
name = _;
position = "{410, 0}";
},
{
name = bottom;
position = "{374, 0}";
},
{
name = top;
position = "{410, 729}";
}
);
layerId = "BA196CD0-EE58-4274-B8DF-4393D3617A29";
paths = (
{
closed = 1;
nodes = (
"133 700 LINE",
"256 700 LINE",
"532 139 LINE",
"581 727 LINE",
"672 727 LINE",
"632 0 LINE",
"471 0 LINE",
"216 616 LINE",
"236 0 LINE",
"75 0 LINE"
);
}
);
width = 747;
}
);
unicode = 004E;
},
{
color = 6;
glyphname = O;
lastChange = "2019-08-07 22:41:47 +0000";
layers = (
{
anchors = (
{
name = bottom;
position = "{413, 0}";
},
{
name = center;
position = "{413, 350}";
},
{
name = horn;
position = "{684, 547}";
},
{
name = ogonek;
position = "{743, 10}";
},
{
name = top;
position = "{413, 729}";
},
{
name = topleft;
position = "{20, 700}";
},
{
name = topright;
position = "{805, 700}";
}
);
layerId = "BA196CD0-EE58-4274-B8DF-4393D3617A29";
paths = (
{
closed = 1;
nodes = (
"556 672 OFFCURVE",
"646 548 OFFCURVE",
"646 364 CURVE SMOOTH",
"646 213 OFFCURVE",
"556 173 OFFCURVE",
"413 173 CURVE SMOOTH",
"270 173 OFFCURVE",
"179 213 OFFCURVE",
"179 364 CURVE SMOOTH",
"179 548 OFFCURVE",
"270 672 OFFCURVE",
"413 672 CURVE SMOOTH"
);
},
{
closed = 1;
nodes = (
"208 742 OFFCURVE",
"75 594 OFFCURVE",
"75 364 CURVE SMOOTH",
"75 54 OFFCURVE",
"180 -12 OFFCURVE",
"413 -14 CURVE SMOOTH",
"667 -16 OFFCURVE",
"743 54 OFFCURVE",
"750 364 CURVE SMOOTH",
"755 594 OFFCURVE",
"618 742 OFFCURVE",
"413 742 CURVE SMOOTH"
);
}
);
width = 825;
}
);
unicode = 004F;
},
{
color = 6;
glyphname = P;
lastChange = "2019-08-07 21:38:40 +0000";
layers = (
{
anchors = (
{
name = bottom;
position = "{318, 0}";
},
{
name = top;
position = "{318, 700}";
}
);
layerId = "BA196CD0-EE58-4274-B8DF-4393D3617A29";
paths = (
{
closed = 1;
nodes = (
"198 651 LINE",
"198 413 LINE",
"332 419 LINE SMOOTH",
"430 423 OFFCURVE",
"475 441 OFFCURVE",
"475 549 CURVE SMOOTH",
"475 584 OFFCURVE",
"436 651 OFFCURVE",
"306 651 CURVE SMOOTH"
);
},
{
closed = 1;
nodes = (
"116 716 LINE",
"302 716 LINE SMOOTH",
"486 716 OFFCURVE",
"561 601 OFFCURVE",
"561 505 CURVE SMOOTH",
"561 361 OFFCURVE",
"486 288 OFFCURVE",
"322 280 CURVE SMOOTH",
"203 274 LINE",
"223 0 LINE",
"75 0 LINE"
);
}
);
width = 636;
}
);
unicode = 0050;
},
{
glyphname = Thorn;
lastChange = "2019-08-07 22:45:40 +0000";
layers = (
{
layerId = "BA196CD0-EE58-4274-B8DF-4393D3617A29";
paths = (
{
closed = 1;
nodes = (
"167 700 LINE",
"167 0 LINE",
"79 0 LINE",
"79 700 LINE"
);
},
{
closed = 1;
nodes = (
"89 282 OFFCURVE",
"91 459 OFFCURVE",
"155 597 CURVE",
"299 597 OFFCURVE",
"479 496 OFFCURVE",
"479 371 CURVE SMOOTH",
"479 245 OFFCURVE",
"300 144 OFFCURVE",
"155 144 CURVE"
);
},
{
closed = 1;
nodes = (
"259 231 OFFCURVE",
"408 329 OFFCURVE",
"408 375 CURVE SMOOTH",
"408 421 OFFCURVE",
"254 520 OFFCURVE",
"202 520 CURVE SMOOTH",
"149 520 OFFCURVE",
"106 421 OFFCURVE",
"106 375 CURVE SMOOTH",
"106 329 OFFCURVE",
"154 231 OFFCURVE",
"207 231 CURVE SMOOTH"
);
}
);
width = 600;
}
);
unicode = 00DE;
},
{
color = 6;
glyphname = Q;
lastChange = "2019-08-07 21:38:40 +0000";
layers = (
{
anchors = (
{
name = bottom;
position = "{430, 0}";
},
{
name = top;
position = "{430, 700}";
}
);
layerId = "BA196CD0-EE58-4274-B8DF-4393D3617A29";
paths = (
{
closed = 1;
nodes = (
"270 662 OFFCURVE",
"182 519 OFFCURVE",
"182 364 CURVE SMOOTH",
"182 153 OFFCURVE",
"294 154 OFFCURVE",
"350 156 CURVE SMOOTH",
"403 158 LINE",
"436 234 LINE",
"489 206 OFFCURVE",
"544 185 OFFCURVE",
"584 185 CURVE SMOOTH",
"614 185 OFFCURVE",
"643 288 OFFCURVE",
"643 364 CURVE SMOOTH",
"643 548 OFFCURVE",
"556 662 OFFCURVE",
"413 662 CURVE SMOOTH"
);
},
{
closed = 1;
nodes = (
"784 -129 LINE",
"552 -129 LINE",
"449 -12 LINE",
"428 -14 OFFCURVE",
"419 -14 OFFCURVE",
"408 -14 CURVE SMOOTH",
"210 -14 OFFCURVE",
"75 40 OFFCURVE",
"75 364 CURVE SMOOTH",
"75 565 OFFCURVE",
"208 742 OFFCURVE",
"413 742 CURVE SMOOTH",
"618 742 OFFCURVE",
"747 594 OFFCURVE",
"747 364 CURVE SMOOTH",
"747 194 OFFCURVE",
"687 106 OFFCURVE",
"629 42 CURVE"
);
}
);
width = 859;
}
);
unicode = 0051;
},
{
color = 6;
glyphname = R;
lastChange = "2019-08-02 20:45:03 +0000";
layers = (
{
anchors = (
{
name = bottom;
position = "{315, 0}";
},
{
name = top;
position = "{315, 729}";
}
);
layerId = "BA196CD0-EE58-4274-B8DF-4393D3617A29";
paths = (
{
closed = 1;
nodes = (
"463 340 OFFCURVE",
"521 277 OFFCURVE",
"543 199 CURVE SMOOTH",
"600 0 LINE",
"420 0 LINE",
"429 187 LINE SMOOTH",
"434 294 OFFCURVE",
"327 301 OFFCURVE",
"267 291 CURVE SMOOTH",
"215 282 LINE",
"232 0 LINE",
"75 0 LINE",
"120 729 LINE",
"298 729 LINE SMOOTH",
"445 729 OFFCURVE",
"531 660 OFFCURVE",
"531 519 CURVE SMOOTH",
"531 423 OFFCURVE",
"489 373 OFFCURVE",
"421 362 CURVE"
);
},
{
closed = 1;
nodes = (
"184 677 LINE",
"184 405 LINE",
"308 405 LINE SMOOTH",
"383 405 OFFCURVE",
"461 456 OFFCURVE",
"461 519 CURVE SMOOTH",
"461 644 OFFCURVE",
"383 677 OFFCURVE",
"308 677 CURVE SMOOTH"
);
}
);
width = 675;
}
);
unicode = 0052;
},
{
color = 6;
glyphname = S;
lastChange = "2019-08-05 20:37:37 +0000";
layers = (
{
anchors = (
{
name = bottom;
position = "{370, 0}";
},
{
name = top;
position = "{370, 729}";
}
);
layerId = "BA196CD0-EE58-4274-B8DF-4393D3617A29";
paths = (
{
closed = 1;
nodes = (
"488 737 OFFCURVE",
"446 742 OFFCURVE",
"378 742 CURVE SMOOTH",
"218 742 OFFCURVE",
"122 663 OFFCURVE",
"122 534 CURVE SMOOTH",
"122 423 OFFCURVE",
"184 364 OFFCURVE",
"331 335 CURVE SMOOTH",
"391 323 LINE SMOOTH",
"491 303 OFFCURVE",
"560 268 OFFCURVE",
"557 208 CURVE SMOOTH",
"552 110 OFFCURVE",
"488 100 OFFCURVE",
"388 100 CURVE SMOOTH",
"333 100 OFFCURVE",
"235 138 OFFCURVE",
"197 167 CURVE",
"75 85 LINE",
"139 -14 OFFCURVE",
"227 -14 OFFCURVE",
"356 -14 CURVE SMOOTH",
"591 -14 OFFCURVE",
"675 -14 OFFCURVE",
"675 201 CURVE SMOOTH",
"675 320 OFFCURVE",
"570 387 OFFCURVE",
"420 417 CURVE SMOOTH",
"361 429 LINE SMOOTH",
"274 447 OFFCURVE",
"196 485 OFFCURVE",
"196 549 CURVE SMOOTH",
"196 626 OFFCURVE",
"282 662 OFFCURVE",
"389 662 CURVE SMOOTH",
"459 662 OFFCURVE",
"472 659 OFFCURVE",
"521 646 CURVE",
"562 720 LINE"
);
}
);
width = 750;
}
);
unicode = 0053;
},
{
color = 6;
glyphname = T;
lastChange = "2019-08-02 20:45:03 +0000";
layers = (
{
anchors = (
{
name = bottom;
position = "{383, 0}";
},
{
name = center;
position = "{383, 365}";
},
{
name = top;
position = "{383, 729}";
}
);
layerId = "BA196CD0-EE58-4274-B8DF-4393D3617A29";
paths = (
{
closed = 1;
nodes = (
"75 729 LINE",
"692 729 LINE",
"692 646 LINE",
"433 656 LINE",
"453 0 LINE",
"315 0 LINE",
"334 656 LINE",
"75 646 LINE"
);
}
);
width = 767;
}
);
unicode = 0054;
},
{
color = 6;
glyphname = U;
lastChange = "2019-08-07 21:38:40 +0000";
layers = (
{
anchors = (
{
name = bottom;
position = "{373, 0}";
},
{
name = horn;
position = "{626, 614}";
},
{
name = ogonek;
position = "{378, 0}";
},
{
name = top;
position = "{370, 729}";
},
{
name = topright;
position = "{726, 700}";
}
);
layerId = "BA196CD0-EE58-4274-B8DF-4393D3617A29";
paths = (
{
closed = 1;
nodes = (
"75 729 LINE",
"199 729 LINE",
"185 354 LINE SMOOTH",
"177 142 OFFCURVE",
"244 142 OFFCURVE",
"371 142 CURVE SMOOTH",
"497 142 OFFCURVE",
"563 142 OFFCURVE",
"555 354 CURVE SMOOTH",
"541 729 LINE",
"671 729 LINE",
"649 274 LINE SMOOTH",
"635 -14 OFFCURVE",
"554 -14 OFFCURVE",
"371 -14 CURVE SMOOTH",
"186 -14 OFFCURVE",
"101 -14 OFFCURVE",
"91 274 CURVE SMOOTH"
);
}
);
width = 746;
}
);
unicode = 0055;
},
{
color = 6;
glyphname = V;
lastChange = "2019-08-07 21:38:40 +0000";
layers = (
{
anchors = (
{
name = bottom;
position = "{409, 0}";
},
{
name = top;
position = "{409, 700}";
}
);
layerId = "BA196CD0-EE58-4274-B8DF-4393D3617A29";
paths = (
{
closed = 1;
nodes = (
"302 0 LINE",
"75 729 LINE",
"178 729 LINE",
"376 214 LINE",
"423 214 LINE",
"641 729 LINE",
"743 729 LINE",
"506 0 LINE"
);
}
);
width = 818;
}
);
unicode = 0056;
},
{
color = 6;
glyphname = W;
lastChange = "2019-08-08 00:34:42 +0000";
layers = (
{
anchors = (
{
name = bottom;
position = "{537, 0}";
},
{
name = top;
position = "{534, 729}";
}
);
layerId = "BA196CD0-EE58-4274-B8DF-4393D3617A29";
paths = (
{
closed = 1;
nodes = (
"75 729 LINE",
"170 729 LINE",
"318 206 LINE",
"491 543 LINE",
"577 543 LINE",
"735 196 LINE",
"903 729 LINE",
"998 729 LINE",
"815 0 LINE",
"671 0 LINE",
"537 394 LINE",
"392 0 LINE",
"238 0 LINE"
);
}
);
width = 1073;
}
);
unicode = 0057;
},
{
color = 6;
glyphname = X;
lastChange = "2019-08-07 21:38:40 +0000";
layers = (
{
anchors = (
{
name = bottom;
position = "{390, 0}";
},
{
name = top;
position = "{390, 700}";
}
);
layerId = "BA196CD0-EE58-4274-B8DF-4393D3617A29";
paths = (
{
closed = 1;
nodes = (
"545 0 LINE",
"704 0 LINE",
"202 729 LINE",
"113 729 LINE"
);
},
{
closed = 1;
nodes = (
"75 2 LINE",
"236 0 LINE",
"680 730 LINE",
"592 730 LINE"
);
}
);
width = 779;
}
);
unicode = 0058;
},
{
color = 6;
glyphname = Y;
lastChange = "2019-08-07 21:38:40 +0000";
layers = (
{
anchors = (
{
name = bottom;
position = "{377, 0}";
},
{
name = top;
position = "{377, 729}";
},
{
name = topleft;
position = "{20, 700}";
}
);
layerId = "BA196CD0-EE58-4274-B8DF-4393D3617A29";
paths = (
{
closed = 1;
nodes = (
"75 729 LINE",
"181 729 LINE",
"378 356 LINE",
"573 729 LINE",
"679 729 LINE",
"442 250 LINE",
"442 0 LINE",
"309 0 LINE",
"309 250 LINE"
);
}
);
width = 754;
}
);
unicode = 0059;
},
{
color = 6;
glyphname = Z;
lastChange = "2019-08-07 21:38:40 +0000";
layers = (
{
anchors = (
{
name = bottom;
position = "{398, 0}";
},
{
name = center;
position = "{398, 350}";
},
{
name = top;
position = "{395, 729}";
}
);
layerId = "BA196CD0-EE58-4274-B8DF-4393D3617A29";
paths = (
{
closed = 1;
nodes = (
"147 681 LINE",
"720 681 LINE",
"720 606 LINE",
"198 146 LINE",
"651 146 LINE",
"698 6 LINE",
"75 0 LINE",
"75 139 LINE",
"597 598 LINE",
"192 604 LINE"
);
}
);
width = 795;
}
);
unicode = 005A;
},
{
color = 7;
glyphname = a;
lastChange = "2019-08-07 22:55:15 +0000";
layers = (
{
anchors = (
{
name = bottom;
position = "{323, 0}";
},
{
name = ogonek;
position = "{484, 29}";
},
{
name = top;
position = "{312, 547}";
}
);
background = {
components = (
{
alignment = -1;
name = "";
transform = "{1, 0, 0, 1, 44, 150}";
},
{
alignment = -1;
name = "";
transform = "{1, 0, 0, 1, 44, 200}";
},
{
alignment = -1;
name = "";
transform = "{1, 0, 0, 1, 94, 50}";
},
{
alignment = -1;
name = "";
transform = "{1, 0, 0, 1, 94, 100}";
},
{
alignment = -1;
name = "";
transform = "{1, 0, 0, 1, 94, 150}";
},
{
alignment = -1;
name = "";
transform = "{1, 0, 0, 1, 94, 200}";
},
{
alignment = -1;
name = "";
transform = "{1, 0, 0, 1, 94, 250}";
},
{
alignment = -1;
name = "";
transform = "{1, 0, 0, 1, 94, 300}";
},
{
alignment = -1;
name = "";
transform = "{1, 0, 0, 1, 94, 350}";
},
{
alignment = -1;
name = "";
transform = "{1, 0, 0, 1, 144, 0}";
},
{
alignment = -1;
name = "";
transform = "{1, 0, 0, 1, 144, 50}";
},
{
alignment = -1;
name = "";
transform = "{1, 0, 0, 1, 144, 100}";
},
{
alignment = -1;
name = "";
transform = "{1, 0, 0, 1, 144, 400}";
},
{
alignment = -1;
name = "";
transform = "{1, 0, 0, 1, 194, 0}";
},
{
alignment = -1;
name = "";
transform = "{1, 0, 0, 1, 194, 50}";
},
{
alignment = -1;
name = "";
transform = "{1, 0, 0, 1, 194, 100}";
},
{
alignment = -1;
name = "";
transform = "{1, 0, 0, 1, 194, 450}";
},
{
alignment = -1;
name = "";
transform = "{1, 0, 0, 1, 244, 0}";
},
{
alignment = -1;
name = "";
transform = "{1, 0, 0, 1, 244, 50}";
},
{
alignment = -1;
name = "";
transform = "{1, 0, 0, 1, 244, 100}";
},
{
alignment = -1;
name = "";
transform = "{1, 0, 0, 1, 244, 450}";
},
{
alignment = -1;
name = "";
transform = "{1, 0, 0, 1, 294, 0}";
},
{
alignment = -1;
name = "";
transform = "{1, 0, 0, 1, 294, 50}";
},
{
alignment = -1;
name = "";
transform = "{1, 0, 0, 1, 294, 100}";
},
{
alignment = -1;
name = "";
transform = "{1, 0, 0, 1, 294, 450}";
},
{
alignment = -1;
name = "";
transform = "{1, 0, 0, 1, 344, 0}";
},
{
alignment = -1;
name = "";
transform = "{1, 0, 0, 1, 344, 50}";
},
{
alignment = -1;
name = "";
transform = "{1, 0, 0, 1, 344, 100}";
},
{
alignment = -1;
name = "";
transform = "{1, 0, 0, 1, 344, 450}";
},
{
alignment = -1;
name = "";
transform = "{1, 0, 0, 1, 394, 0}";
},
{
alignment = -1;
name = "";
transform = "{1, 0, 0, 1, 394, 50}";
},
{
alignment = -1;
name = "";
transform = "{1, 0, 0, 1, 394, 100}";
},
{
alignment = -1;
name = "";
transform = "{1, 0, 0, 1, 394, 450}";
},
{
alignment = -1;
name = "";
transform = "{1, 0, 0, 1, 444, 50}";
},
{
alignment = -1;
name = "";
transform = "{1, 0, 0, 1, 444, 100}";
},
{
alignment = -1;
name = "";
transform = "{1, 0, 0, 1, 444, 150}";
},
{
alignment = -1;
name = "";
transform = "{1, 0, 0, 1, 444, 200}";
},
{
alignment = -1;
name = "";
transform = "{1, 0, 0, 1, 444, 250}";
},
{
alignment = -1;
name = "";
transform = "{1, 0, 0, 1, 444, 300}";
},
{
alignment = -1;
name = "";
transform = "{1, 0, 0, 1, 444, 350}";
},
{
alignment = -1;
name = "";
transform = "{1, 0, 0, 1, 444, 400}";
},
{
alignment = -1;
name = "";
transform = "{1, 0, 0, 1, 444, 450}";
},
{
alignment = -1;
name = "";
transform = "{1, 0, 0, 1, 444, 500}";
},
{
alignment = -1;
name = "";
transform = "{1, 0, 0, 1, 494, 0}";
},
{
alignment = -1;
name = "";
transform = "{1, 0, 0, 1, 494, 50}";
},
{
alignment = -1;
name = "";
transform = "{1, 0, 0, 1, 494, 100}";
},
{
alignment = -1;
name = "";
transform = "{1, 0, 0, 1, 494, 150}";
},
{
alignment = -1;
name = "";
transform = "{1, 0, 0, 1, 494, 200}";
},
{
alignment = -1;
name = "";
transform = "{1, 0, 0, 1, 494, 250}";
},
{
alignment = -1;
name = "";
transform = "{1, 0, 0, 1, 494, 300}";
},
{
alignment = -1;
name = "";
transform = "{1, 0, 0, 1, 494, 350}";
}
);
paths = (
{
closed = 1;
nodes = (
"453 525 LINE",
"504 525 LINE",
"571 0 LINE",
"481 0 LINE",
"481 82 LINE",
"443 17 OFFCURVE",
"371 -14 OFFCURVE",
"291 -14 CURVE SMOOTH",
"129 -14 OFFCURVE",
"29 105 OFFCURVE",
"74 273 CURVE SMOOTH",
"113 419 OFFCURVE",
"200 525 OFFCURVE",
"291 525 CURVE SMOOTH",
"362 525 OFFCURVE",
"429 504 OFFCURVE",
"465 446 CURVE"
);
},
{
closed = 1;
nodes = (
"106 175 OFFCURVE",
"129 136 OFFCURVE",
"279 138 CURVE SMOOTH",
"460 140 OFFCURVE",
"464 170 OFFCURVE",
"464 299 CURVE SMOOTH",
"464 448 OFFCURVE",
"357 476 OFFCURVE",
"290 476 CURVE",
"229 476 OFFCURVE",
"170 434 OFFCURVE",
"136 296 CURVE SMOOTH"
);
}
);
};
layerId = "BA196CD0-EE58-4274-B8DF-4393D3617A29";
paths = (
{
closed = 1;
nodes = (
"429 504 OFFCURVE",
"362 525 OFFCURVE",
"291 525 CURVE SMOOTH",
"200 525 OFFCURVE",
"111 404 OFFCURVE",
"81 251 CURVE SMOOTH",
"52 101 OFFCURVE",
"134 -14 OFFCURVE",
"291 -14 CURVE SMOOTH",
"371 -14 OFFCURVE",
"443 17 OFFCURVE",
"481 82 CURVE",
"481 0 LINE",
"571 0 LINE",
"504 525 LINE",
"453 525 LINE",
"465 446 LINE"
);
},
{
closed = 1;
nodes = (
"184 434 OFFCURVE",
"229 476 OFFCURVE",
"290 476 CURVE",
"357 476 OFFCURVE",
"464 448 OFFCURVE",
"464 299 CURVE SMOOTH",
"464 170 OFFCURVE",
"460 138 OFFCURVE",
"279 138 CURVE SMOOTH",
"131 138 OFFCURVE",
"120 175 OFFCURVE",
"150 296 CURVE SMOOTH"
);
}
);
width = 646;
}
);
leftKerningGroup = Round;
unicode = 0061;
},
{
color = 7;
glyphname = b;
lastChange = "2019-08-08 22:23:31 +0000";
layers = (
{
anchors = (
{
name = bottom;
position = "{322, 0}";
},
{
name = top;
position = "{322, 800}";
},
{
name = top_hook;
position = "{123, 717}";
}
);
hints = (
{
place = "{99, 65}";
type = Stem;
}
);
layerId = "BA196CD0-EE58-4274-B8DF-4393D3617A29";
paths = (
{
closed = 1;
nodes = (
"497 193 OFFCURVE",
"444 152 OFFCURVE",
"364 146 CURVE",
"234 146 OFFCURVE",
"212 187 OFFCURVE",
"212 289 CURVE SMOOTH",
"212 395 OFFCURVE",
"269 468 OFFCURVE",
"364 468 CURVE SMOOTH",
"460 468 OFFCURVE",
"510 392 OFFCURVE",
"510 293 CURVE"
);
},
{
closed = 1;
nodes = (
"157 27 OFFCURVE",
"200 -14 OFFCURVE",
"343 -14 CURVE SMOOTH",
"476 -14 OFFCURVE",
"568 101 OFFCURVE",
"568 273 CURVE SMOOTH",
"568 417 OFFCURVE",
"476 532 OFFCURVE",
"343 532 CURVE SMOOTH",
"235 532 OFFCURVE",
"169 399 OFFCURVE",
"169 474 CURVE SMOOTH",
"169 793 LINE",
"75 793 LINE",
"105 430 OFFCURVE",
"110 144 OFFCURVE",
"131 99 CURVE"
);
}
);
width = 643;
}
);
rightKerningGroup = RoundRight;
unicode = 0062;
},
{
color = 7;
glyphname = c;
lastChange = "2019-08-10 22:50:02 +0000";
layers = (
{
anchors = (
{
name = bottom;
position = "{312, 0}";
},
{
name = top;
position = "{312, 547}";
},
{
name = top_hook;
position = "{393, 533}";
}
);
layerId = "BA196CD0-EE58-4274-B8DF-4393D3617A29";
paths = (
{
closed = 1;
nodes = (
"418 555 OFFCURVE",
"381 560 OFFCURVE",
"354 560 CURVE SMOOTH",
"184 560 OFFCURVE",
"75 451 OFFCURVE",
"75 273 CURVE SMOOTH",
"75 97 OFFCURVE",
"137 0 OFFCURVE",
"344 -14 CURVE SMOOTH",
"405 -18 OFFCURVE",
"458 -2 OFFCURVE",
"508 21 CURVE",
"405 135 LINE",
"300 73 OFFCURVE",
"185 143 OFFCURVE",
"175 273 CURVE",
"175 406 OFFCURVE",
"217 489 OFFCURVE",
"334 489 CURVE SMOOTH",
"362 489 OFFCURVE",
"407 487 OFFCURVE",
"439 477 CURVE",
"439 548 LINE"
);
}
);
width = 583;
}
);
leftKerningGroup = Round;
unicode = 0063;
},
{
glyphname = ccurl;
lastChange = "2019-08-10 01:17:00 +0000";
layers = (
{
anchors = (
{
name = _curl;
position = "{147, 459}";
},
{
name = bottom;
position = "{312, 0}";
},
{
name = top;
position = "{312, 540}";
}
);
layerId = "BA196CD0-EE58-4274-B8DF-4393D3617A29";
paths = (
{
closed = 1;
nodes = (
"418 555 OFFCURVE",
"381 560 OFFCURVE",
"354 560 CURVE SMOOTH",
"184 560 OFFCURVE",
"75 451 OFFCURVE",
"75 273 CURVE SMOOTH",
"75 97 OFFCURVE",
"138 -14 OFFCURVE",
"344 -14 CURVE SMOOTH",
"469 -14 OFFCURVE",
"601 83 OFFCURVE",
"601 183 CURVE SMOOTH",
"601 223 OFFCURVE",
"580 263 OFFCURVE",
"530 298 CURVE SMOOTH",
"494 323 OFFCURVE",
"459 334 OFFCURVE",
"428 334 CURVE SMOOTH",
"353 334 OFFCURVE",
"301 269 OFFCURVE",
"301 176 CURVE SMOOTH",
"301 40 OFFCURVE",
"301 -79 OFFCURVE",
"301 -200 CURVE",
"411 -200 LINE",
"411 -137 OFFCURVE",
"407 -75 OFFCURVE",
"402.998 -10.002 CURVE SMOOTH",
"400 42 OFFCURVE",
"395 95 OFFCURVE",
"395 152 CURVE SMOOTH",
"395 213 OFFCURVE",
"416 239 OFFCURVE",
"443 239 CURVE SMOOTH",
"457 239 OFFCURVE",
"473 232 OFFCURVE",
"489 220 CURVE SMOOTH",
"497 214 OFFCURVE",
"500 206 OFFCURVE",
"500 197 CURVE SMOOTH",
"500 158 OFFCURVE",
"431 97 OFFCURVE",
"319 97 CURVE SMOOTH",
"208 97 OFFCURVE",
"176 203 OFFCURVE",
"175 273 CURVE",
"175 406 OFFCURVE",
"217 489 OFFCURVE",
"334 489 CURVE SMOOTH",
"362 489 OFFCURVE",
"407 487 OFFCURVE",
"439 477 CURVE",
"439 548 LINE"
);
}
);
width = 583;
}
);
unicode = 0255;
},
{
color = 7;
glyphname = d;
lastChange = "2019-08-10 01:08:05 +0000";
layers = (
{
anchors = (
{
name = bottom;
position = "{514, 22}";
},
{
name = center;
position = "{370, 273}";
},
{
name = ezh;
position = "{535, 601}";
},
{
name = right_el;
position = "{674, 526}";
},
{
name = top;
position = "{299, 560}";
},
{
name = top_hook;
position = "{520, 700}";
},
{
name = topright;
position = "{636, 500}";
}
);
layerId = "BA196CD0-EE58-4274-B8DF-4393D3617A29";
paths = (
{
closed = 1;
nodes = (
"437 505 OFFCURVE",
"379 536 OFFCURVE",
"299 536 CURVE SMOOTH",
"167 536 OFFCURVE",
"75 421 OFFCURVE",
"75 273 CURVE SMOOTH",
"75 101 OFFCURVE",
"142 -19 OFFCURVE",
"299 -14 CURVE SMOOTH",
"379 -11 OFFCURVE",
"437 17 OFFCURVE",
"474 82 CURVE",
"474 0 LINE",
"569 -2 LINE",
"557 235 LINE",
"581 800 LINE",
"491 800 LINE",
"474 440 LINE"
);
},
{
closed = 1;
nodes = (
"140 391 OFFCURVE",
"197 471 OFFCURVE",
"293 471 CURVE SMOOTH",
"388 471 OFFCURVE",
"434 398 OFFCURVE",
"434 290 CURVE SMOOTH",
"434 169 OFFCURVE",
"385 149 OFFCURVE",
"290 149 CURVE SMOOTH",
"195 149 OFFCURVE",
"155 188 OFFCURVE",
"140 283 CURVE"
);
}
);
width = 656;
}
);
leftKerningGroup = Round;
unicode = 0064;
},
{
glyphname = dzaltone;
lastChange = "2019-08-10 00:48:13 +0000";
layers = (
{
components = (
{
name = d;
},
{
name = z;
transform = "{1, 0, 0, 1, 496, -13}";
}
);
layerId = "BA196CD0-EE58-4274-B8DF-4393D3617A29";
paths = (
{
closed = 1;
nodes = (
"519 469 LINE",
"723 469 LINE",
"723 536 LINE",
"519 536 LINE"
);
}
);
width = 656;
}
);
unicode = 02A3;
},
{
glyphname = dzcurl;
lastChange = "2019-08-10 01:08:32 +0000";
layers = (
{
components = (
{
name = d;
},
{
name = zcurl;
transform = "{1, 0, 0, 1, 503, -1}";
}
);
layerId = "BA196CD0-EE58-4274-B8DF-4393D3617A29";
paths = (
{
closed = 1;
nodes = (
"521 481 LINE",
"730 481 LINE",
"730 548 LINE",
"521 548 LINE"
);
}
);
width = 656;
}
);
unicode = 02A5;
},
{
color = 7;
glyphname = e;
lastChange = "2019-08-08 16:54:00 +0000";
layers = (
{
anchors = (
{
name = _hook;
position = "{348, 539}";
},
{
name = bottom;
position = "{331, 0}";
},
{
name = center;
position = "{112, 267}";
},
{
name = ogonek;
position = "{429, -7}";
},
{
name = righthook;
position = "{570, 274}";
},
{
name = top;
position = "{331, 547}";
}
);
layerId = "BA196CD0-EE58-4274-B8DF-4393D3617A29";
paths = (
{
closed = 1;
nodes = (
"456 551 OFFCURVE",
"344 560 CURVE",
"179 560 OFFCURVE",
"82 447 OFFCURVE",
"75 268 CURVE",
"75 95 OFFCURVE",
"185 -14 OFFCURVE",
"359 -14 CURVE SMOOTH",
"430 -14 OFFCURVE",
"495 0 OFFCURVE",
"560 28 CURVE",
"560 152 LINE",
"483 119 OFFCURVE",
"436 122 OFFCURVE",
"362 119 CURVE SMOOTH",
"221 114 OFFCURVE",
"156 192 OFFCURVE",
"156 287 CURVE",
"569 315 LINE",
"537 496 OFFCURVE"
);
},
{
closed = 1;
nodes = (
"179 440 OFFCURVE",
"244 513 OFFCURVE",
"344 513 CURVE SMOOTH",
"433 513 OFFCURVE",
"489 446 OFFCURVE",
"499 385 CURVE",
"179 374 LINE"
);
}
);
width = 644;
}
);
leftKerningGroup = Round;
unicode = 0065;
},
{
glyphname = eopen;
lastChange = "2019-08-08 16:58:43 +0000";
layers = (
{
layerId = "BA196CD0-EE58-4274-B8DF-4393D3617A29";
paths = (
{
closed = 1;
nodes = (
"112.733 286.315 OFFCURVE",
"86.217 317.59 OFFCURVE",
"86.217 371.981 CURVE SMOOTH",
"86.217 450.849 OFFCURVE",
"149.447 500.481 OFFCURVE",
"251.431 500.481 CURVE SMOOTH",
"290.865 500.481 OFFCURVE",
"378 476 OFFCURVE",
"378 388 CURVE",
"333 379 LINE",
"334 438 OFFCURVE",
"294.265 456.288 OFFCURVE",
"257.55 456.288 CURVE SMOOTH",
"190.241 456.288 OFFCURVE",
"134.489 431.132 OFFCURVE",
"134.489 376.741 CURVE SMOOTH",
"134.489 314.19 OFFCURVE",
"180.722 295.153 OFFCURVE",
"246.672 295.153 CURVE",
"270 295 LINE",
"282 242 LINE",
"259.59 242.122 LINE SMOOTH",
"186 243 OFFCURVE",
"147 210 OFFCURVE",
"147 165 CURVE",
"147 120 OFFCURVE",
"173 80 OFFCURVE",
"241 79 CURVE SMOOTH",
"290 78 OFFCURVE",
"341 79 OFFCURVE",
"315 182 CURVE",
"395 189 LINE",
"453 17 OFFCURVE",
"290 -12 OFFCURVE",
"248 -12 CURVE SMOOTH",
"156 -12 OFFCURVE",
"74.659 40.193 OFFCURVE",
"74.659 146.937 CURVE SMOOTH",
"74.659 210.167 OFFCURVE",
"97.775 251.64 OFFCURVE",
"176.643 263.198 CURVE"
);
}
);
width = 630;
}
);
unicode = 025B;
},
{
glyphname = eopenreversedclosed;
lastChange = "2019-08-08 17:10:50 +0000";
layers = (
{
layerId = "BA196CD0-EE58-4274-B8DF-4393D3617A29";
paths = (
{
closed = 1;
nodes = (
"135 369 OFFCURVE",
"181 500 OFFCURVE",
"379 500 CURVE SMOOTH",
"481 500 OFFCURVE",
"544 451 OFFCURVE",
"544 372 CURVE SMOOTH",
"544 318 OFFCURVE",
"540 290 OFFCURVE",
"453 263 CURVE",
"532 252 OFFCURVE",
"555 210 OFFCURVE",
"555 147 CURVE SMOOTH",
"555 40 OFFCURVE",
"474 -16 OFFCURVE",
"382 -12 CURVE SMOOTH",
"204 -4 OFFCURVE",
"135 119 OFFCURVE",
"135 249 CURVE SMOOTH"
);
},
{
closed = 1;
nodes = (
"197 194 OFFCURVE",
"239 79 OFFCURVE",
"389 79 CURVE SMOOTH",
"457 79 OFFCURVE",
"483 120 OFFCURVE",
"483 165 CURVE SMOOTH",
"483 210 OFFCURVE",
"444 243 OFFCURVE",
"370 242 CURVE SMOOTH",
"348 242 LINE",
"360 295 LINE",
"383 295 LINE SMOOTH",
"449 295 OFFCURVE",
"496 314 OFFCURVE",
"496 377 CURVE SMOOTH",
"496 431 OFFCURVE",
"440 456 OFFCURVE",
"372 456 CURVE SMOOTH",
"246 456 OFFCURVE",
"197 346 OFFCURVE",
"197 252 CURVE SMOOTH"
);
}
);
width = 630;
}
);
unicode = 025E;
},
{
glyphname = esh;
lastChange = "2019-08-08 15:53:07 +0000";
layers = (
{
layerId = "BA196CD0-EE58-4274-B8DF-4393D3617A29";
paths = (
{
closed = 1;
nodes = (
"647 754 OFFCURVE",
"615 760 OFFCURVE",
"580 760 CURVE SMOOTH",
"482 760 OFFCURVE",
"412 694 OFFCURVE",
"392 575 CURVE SMOOTH",
"353 344 LINE",
"315 83 LINE",
"293 -25 OFFCURVE",
"261 -65 OFFCURVE",
"198 -65 CURVE SMOOTH",
"167 -65 OFFCURVE",
"136 -54 OFFCURVE",
"103 -33 CURVE",
"-22 -98 LINE",
"27 -180 OFFCURVE",
"136 -208 OFFCURVE",
"173 -208 CURVE SMOOTH",
"287 -208 OFFCURVE",
"370 -216 OFFCURVE",
"414 107 CURVE SMOOTH",
"446 344 LINE",
"483 576 LINE SMOOTH",
"497 662 OFFCURVE",
"535 700 OFFCURVE",
"598 700 CURVE SMOOTH",
"627 700 OFFCURVE",
"652 691 OFFCURVE",
"677 672 CURVE",
"677 742 LINE"
);
}
);
width = 600;
}
);
unicode = 0283;
},
{
glyphname = ezh;
lastChange = "2019-08-10 00:44:26 +0000";
layers = (
{
anchors = (
{
name = _ezh;
position = "{47, 623}";
},
{
name = bottom;
position = "{300, 0}";
},
{
name = top;
position = "{300, 500}";
}
);
layerId = "BA196CD0-EE58-4274-B8DF-4393D3617A29";
paths = (
{
closed = 1;
nodes = (
"413 406 OFFCURVE",
"438 427 OFFCURVE",
"528 527 CURVE",
"520 598 OFFCURVE",
"522 598 OFFCURVE",
"510 667 CURVE",
"430 671 OFFCURVE",
"133 667 OFFCURVE",
"35 667 CURVE",
"35 573 LINE",
"182 572 OFFCURVE",
"317 572 OFFCURVE",
"430 573 CURVE",
"336 468 OFFCURVE",
"281 430 OFFCURVE",
"169 325 CURVE",
"169 232 LINE",
"309 245 OFFCURVE",
"423 205 OFFCURVE",
"430 126 CURVE",
"433 -23 OFFCURVE",
"300 -111 OFFCURVE",
"159 27 CURVE",
"32 -77 LINE",
"159 -202 OFFCURVE",
"284 -200 OFFCURVE",
"317 -200 CURVE SMOOTH",
"531 -200 OFFCURVE",
"569 -57 OFFCURVE",
"555 107 CURVE SMOOTH",
"547 203 OFFCURVE",
"441 305 OFFCURVE",
"321 314 CURVE"
);
}
);
width = 600;
}
);
unicode = 0292;
},
{
color = 7;
glyphname = f;
lastChange = "2019-08-10 00:23:56 +0000";
layers = (
{
anchors = (
{
name = bottom;
position = "{237, 0}";
},
{
name = center;
position = "{207, 265}";
},
{
name = top;
position = "{237, 800}";
}
);
layerId = "BA196CD0-EE58-4274-B8DF-4393D3617A29";
paths = (
{
closed = 1;
nodes = (
"207 795 OFFCURVE",
"156 761 OFFCURVE",
"156 547 CURVE",
"75 547 LINE",
"75 458 LINE",
"156 458 LINE",
"141 0 LINE",
"271 0 LINE",
"256 458 LINE",
"399 458 LINE",
"399 547 LINE",
"244 545 LINE",
"235 584 OFFCURVE",
"220 720 OFFCURVE",
"309 720 CURVE",
"390 720 LINE",
"390 795 LINE",
"310 795 LINE"
);
}
);
width = 474;
}
);
unicode = 0066;
},
{
color = 7;
glyphname = g;
lastChange = "2019-08-08 22:31:10 +0000";
layers = (
{
anchors = (
{
name = bottom;
position = "{325, -200}";
},
{
name = comma;
position = "{302, -262}";
},
{
name = top;
position = "{335, 547}";
},
{
name = top_hook;
position = "{523, 353}";
}
);
layerId = "BA196CD0-EE58-4274-B8DF-4393D3617A29";
paths = (
{
closed = 1;
nodes = (
"435 156 OFFCURVE",
"372 146 OFFCURVE",
"275 146 CURVE SMOOTH",
"179 146 OFFCURVE",
"142 156 OFFCURVE",
"129 285 CURVE",
"129 416 OFFCURVE",
"186 490 OFFCURVE",
"282 490 CURVE SMOOTH",
"378 490 OFFCURVE",
"435 416 OFFCURVE",
"435 285 CURVE SMOOTH"
);
},
{
closed = 1;
nodes = (
"484 547 LINE",
"463 477 LINE",
"408 518 OFFCURVE",
"379 560 OFFCURVE",
"299 560 CURVE SMOOTH",
"165 560 OFFCURVE",
"75 449 OFFCURVE",
"75 280 CURVE SMOOTH",
"75 111 OFFCURVE",
"165 0 OFFCURVE",
"299 0 CURVE SMOOTH",
"379 0 OFFCURVE",
"439 37 OFFCURVE",
"469 82 CURVE",
"469 52 LINE",
"456 -13 OFFCURVE",
"406 -124 OFFCURVE",
"288 -124 CURVE SMOOTH",
"235 -124 OFFCURVE",
"184 -111 OFFCURVE",
"131 -82 CURVE",
"94 -214 LINE",
"156 -245 OFFCURVE",
"233 -261 OFFCURVE",
"296 -261 CURVE SMOOTH",
"467 -261 OFFCURVE",
"543 -152 OFFCURVE",
"553 69 CURVE SMOOTH",
"574 547 LINE"
);
}
);
width = 649;
}
);
unicode = 0067;
},
{
glyphname = "gamma-latin";
lastChange = "2019-08-08 01:11:30 +0000";
layers = (
{
layerId = "BA196CD0-EE58-4274-B8DF-4393D3617A29";
paths = (
{
closed = 1;
nodes = (
"139 481 CURVE SMOOTH",
"127 493 OFFCURVE",
"122 500 OFFCURVE",
"110 515 CURVE",
"37 455 LINE",
"47 443 OFFCURVE",
"46 442 OFFCURVE",
"54 435 CURVE SMOOTH",
"467 41 OFFCURVE",
"429 -103 OFFCURVE",
"305 -100 CURVE SMOOTH",
"148 -96 OFFCURVE",
"181 74 OFFCURVE",
"564 427 CURVE SMOOTH",
"571 433 OFFCURVE",
"574 439 OFFCURVE",
"581 448 CURVE",
"506 515 LINE",
"497 505 OFFCURVE",
"491 495 OFFCURVE",
"482 485 CURVE SMOOTH",
"129 94 OFFCURVE",
"-84 -193 OFFCURVE",
"308 -197 CURVE SMOOTH",
"633 -200 OFFCURVE",
"530 88 OFFCURVE"
);
}
);
width = 600;
}
);
unicode = 0263;
},
{
glyphname = glottalstop;
lastChange = "2019-08-10 00:36:15 +0000";
layers = (
{
layerId = "BA196CD0-EE58-4274-B8DF-4393D3617A29";
paths = (
{
closed = 1;
nodes = (
"294 43 OFFCURVE",
"339 54 OFFCURVE",
"339 61 CURVE",
"339 91 OFFCURVE",
"340 285 OFFCURVE",
"340 325 CURVE SMOOTH",
"340 365 OFFCURVE",
"485 373 OFFCURVE",
"479 528 CURVE SMOOTH",
"476 600 OFFCURVE",
"448 660 OFFCURVE",
"365 679 CURVE SMOOTH",
"301 694 OFFCURVE",
"161 669 OFFCURVE",
"161 553 CURVE",
"197 553 OFFCURVE",
"210 553 OFFCURVE",
"243 553 CURVE",
"243 620 OFFCURVE",
"286 630 OFFCURVE",
"353 616 CURVE SMOOTH",
"398 607 OFFCURVE",
"418 570 OFFCURVE",
"418 517 CURVE SMOOTH",
"418 446 OFFCURVE",
"312 429 OFFCURVE",
"283 384 CURVE SMOOTH",
"257 343 OFFCURVE",
"254 329 OFFCURVE",
"254 272 CURVE SMOOTH",
"254 227 OFFCURVE",
"253 66 OFFCURVE",
"253 32 CURVE"
);
}
);
width = 600;
}
);
unicode = 0294;
},
{
color = 7;
glyphname = h;
lastChange = "2019-08-08 22:39:56 +0000";
layers = (
{
anchors = (
{
name = bottom;
position = "{333, 0}";
},
{
name = bottom_hook;
position = "{513, 0}";
},
{
name = center;
position = "{297, 273}";
},
{
name = top;
position = "{297, 547}";
},
{
name = top_hook;
position = "{176, 482}";
}
);
layerId = "BA196CD0-EE58-4274-B8DF-4393D3617A29";
paths = (
{
closed = 1;
nodes = (
"558 522 OFFCURVE",
"505 548 OFFCURVE",
"379 548 CURVE SMOOTH",
"303 548 OFFCURVE",
"271 532 OFFCURVE",
"203 469 CURVE",
"223 800 LINE",
"133 800 LINE",
"75 0 LINE",
"223 0 LINE",
"169 385 OFFCURVE",
"200 476 OFFCURVE",
"359 476 CURVE SMOOTH",
"515 476 OFFCURVE",
"527 365 OFFCURVE",
"453 0 CURVE",
"591 0 LINE",
"570 330 LINE SMOOTH"
);
}
);
width = 666;
}
);
unicode = 0068;
},
{
color = 7;
glyphname = i;
lastChange = "2019-08-08 16:43:31 +0000";
layers = (
{
anchors = (
{
name = bottom;
position = "{136, 0}";
}
);
layerId = "BA196CD0-EE58-4274-B8DF-4393D3617A29";
paths = (
{
closed = 1;
nodes = (
"197 0 LINE",
"167 192 OFFCURVE",
"167 341 OFFCURVE",
"174 506 CURVE",
"94 506 LINE",
"94 285 OFFCURVE",
"88 192 OFFCURVE",
"75 0 CURVE"
);
},
{
closed = 1;
nodes = (
"179 646 LINE",
"174 760 LINE",
"94 760 LINE",
"89 646 LINE"
);
}
);
width = 272;
}
);
unicode = 0069;
},
{
glyphname = idotless;
lastChange = "2019-08-08 23:07:50 +0000";
layers = (
{
anchors = (
{
name = bottom;
position = "{136, 0}";
},
{
name = ogonek;
position = "{245, 10}";
},
{
name = top;
position = "{136, 500}";
}
);
layerId = "BA196CD0-EE58-4274-B8DF-4393D3617A29";
paths = (
{
closed = 1;
nodes = (
"197 0 LINE",
"167 192 OFFCURVE",
"167 341 OFFCURVE",
"174 506 CURVE",
"94 506 LINE",
"94 285 OFFCURVE",
"88 192 OFFCURVE",
"75 0 CURVE"
);
}
);
width = 272;
}
);
unicode = 0131;
},
{
color = 7;
glyphname = j;
lastChange = "2019-08-10 01:10:09 +0000";
layers = (
{
anchors = (
{
name = top_hook;
position = "{279, 393}";
}
);
layerId = "BA196CD0-EE58-4274-B8DF-4393D3617A29";
paths = (
{
closed = 1;
nodes = (
"147 -131 OFFCURVE",
"97 -111 CURVE",
"75 -223 LINE",
"118 -225 OFFCURVE",
"231 -231 OFFCURVE",
"259 -200 CURVE SMOOTH",
"284 -173 OFFCURVE",
"289 -121 OFFCURVE",
"296 -14 CURVE SMOOTH",
"331 520 LINE",
"246 520 LINE",
"235 118 OFFCURVE",
"233 -27 OFFCURVE",
"194 -78 CURVE SMOOTH",
"152 -132 OFFCURVE"
);
},
{
closed = 1;
nodes = (
"261 756 LINE",
"341 756 LINE",
"336 646 LINE",
"246 646 LINE"
);
}
);
width = 416;
}
);
unicode = 006A;
},
{
glyphname = jdotless;
lastChange = "2019-08-09 22:09:27 +0000";
layers = (
{
components = (
{
name = j;
}
);
layerId = "BA196CD0-EE58-4274-B8DF-4393D3617A29";
paths = (
{
closed = 1;
nodes = (
"336 646 LINE",
"341 756 LINE",
"261 756 LINE",
"246 646 LINE"
);
}
);
width = 416;
}
);
unicode = 0237;
},
{
glyphname = jcrossedtail;
lastChange = "2019-08-11 00:01:18 +0000";
layers = (
{
anchors = (
{
name = _curl;
position = "{563, 459}";
},
{
name = bottom;
position = "{728, 0}";
},
{
name = top;
position = "{728, 540}";
}
);
components = (
{
name = jdotless;
transform = "{1, 0, 0, 1, 2, 4}";
},
{
name = dotaccentcomb;
transform = "{1, 0, 0, 1, -219, 34}";
}
);
layerId = "BA196CD0-EE58-4274-B8DF-4393D3617A29";
paths = (
{
closed = 1;
nodes = (
"325 85 OFFCURVE",
"297 74 OFFCURVE",
"233 67 CURVE",
"233 -45 OFFCURVE",
"172 -114 OFFCURVE",
"133 -114 CURVE SMOOTH",
"62 -114 OFFCURVE",
"78 -9 OFFCURVE",
"178 -9 CURVE SMOOTH",
"235 -9 OFFCURVE",
"266 -14 OFFCURVE",
"318 -17 CURVE SMOOTH",
"383 -21 OFFCURVE",
"467 -25 OFFCURVE",
"530 -25 CURVE",
"530 85 LINE",
"409 85 OFFCURVE",
"290 85 OFFCURVE",
"154 85 CURVE SMOOTH",
"61 85 OFFCURVE",
"-4 33 OFFCURVE",
"-4 -42 CURVE SMOOTH",
"-4 -243 OFFCURVE",
"39 -224 OFFCURVE",
"147 -224 CURVE SMOOTH",
"297 -224 OFFCURVE",
"304 -215 OFFCURVE",
"322 42 CURVE SMOOTH"
);
}
);
width = 999;
}
);
unicode = 029D;
},
{
color = 7;
glyphname = k;
lastChange = "2019-08-08 22:29:11 +0000";
layers = (
{
anchors = (
{
name = bottom;
position = "{264, 0}";
},
{
name = top;
position = "{325, 800}";
},
{
name = top_hook;
position = "{154, 378}";
}
);
layerId = "BA196CD0-EE58-4274-B8DF-4393D3617A29";
paths = (
{
closed = 1;
nodes = (
"195 0 LINE",
"186 255 LINE",
"370 0 LINE",
"575 0 LINE",
"264 299 LINE",
"427 500 LINE",
"329 502 LINE",
"180 331 LINE",
"207 793 LINE",
"117 793 LINE",
"75 0 LINE"
);
}
);
width = 650;
}
);
unicode = 006B;
},
{
color = 7;
glyphname = l;
lastChange = "2019-08-10 00:45:12 +0000";
layers = (
{
anchors = (
{
name = bottom;
position = "{117, 0}";
},
{
name = center;
position = "{137, 400}";
},
{
name = dot;
position = "{221, 406}";
},
{
name = ezh;
position = "{140, 547}";
},
{
name = right_el;
position = "{365, 538}";
},
{
name = top;
position = "{143, 685}";
},
{
name = topright;
position = "{259, 641}";
}
);
layerId = "BA196CD0-EE58-4274-B8DF-4393D3617A29";
paths = (
{
closed = 1;
nodes = (
"305 0 LINE",
"289 111 LINE",
"170 111 LINE",
"170 124 OFFCURVE",
"175 544 OFFCURVE",
"202 784 CURVE",
"117 784 LINE",
"88 506 OFFCURVE",
"75 111 OFFCURVE",
"75 0 CURVE"
);
}
);
width = 380;
}
);
unicode = 006C;
},
{
glyphname = lbelt;
lastChange = "2019-08-10 23:23:43 +0000";
layers = (
{
anchors = (
{
name = _curl;
position = "{527, 459}";
},
{
name = bottom;
position = "{692, 0}";
},
{
name = top;
position = "{692, 540}";
}
);
components = (
{
name = l;
}
);
layerId = "BA196CD0-EE58-4274-B8DF-4393D3617A29";
paths = (
{
closed = 1;
nodes = (
"394 398 LINE",
"324 398 OFFCURVE",
"264 401 OFFCURVE",
"153 401 CURVE SMOOTH",
"57 401 OFFCURVE",
"-28 462 OFFCURVE",
"-28 501 CURVE SMOOTH",
"-28 510 OFFCURVE",
"-25 518 OFFCURVE",
"-17 524 CURVE SMOOTH",
"-1 536 OFFCURVE",
"15 543 OFFCURVE",
"29 543 CURVE SMOOTH",
"56 543 OFFCURVE",
"93 517 OFFCURVE",
"93 456 CURVE SMOOTH",
"93 399 OFFCURVE",
"88 346 OFFCURVE",
"85 294 CURVE SMOOTH",
"81 229 OFFCURVE",
"77 167 OFFCURVE",
"77 104 CURVE",
"171 104 LINE",
"171 225 OFFCURVE",
"171 344 OFFCURVE",
"171 480 CURVE SMOOTH",
"171 573 OFFCURVE",
"119 638 OFFCURVE",
"44 638 CURVE SMOOTH",
"13 638 OFFCURVE",
"-30 633 OFFCURVE",
"-66 608 CURVE SMOOTH",
"-116 573 OFFCURVE",
"-131 524 OFFCURVE",
"-106 456 CURVE SMOOTH",
"-53 313 OFFCURVE",
"105 292 OFFCURVE",
"394 290 CURVE"
);
}
);
width = 963;
}
);
unicode = 026C;
},
{
glyphname = lezh;
lastChange = "2019-08-10 00:46:10 +0000";
layers = (
{
components = (
{
name = l;
},
{
name = ezh;
transform = "{1, 0, 0, 1, 93, -76}";
}
);
layerId = "BA196CD0-EE58-4274-B8DF-4393D3617A29";
paths = (
{
closed = 1;
nodes = (
"289 111 LINE",
"305 0 LINE",
"170 0 LINE",
"170 111 LINE"
);
}
);
width = 380;
}
);
unicode = 026E;
},
{
glyphname = lhookretroflex;
lastChange = "2019-08-08 16:38:35 +0000";
layers = (
{
anchors = (
{
name = bottom;
position = "{117, 0}";
},
{
name = center;
position = "{190, 400}";
},
{
name = dot;
position = "{221, 406}";
},
{
name = top;
position = "{143, 685}";
},
{
name = topright;
position = "{259, 641}";
}
);
layerId = "BA196CD0-EE58-4274-B8DF-4393D3617A29";
paths = (
{
closed = 1;
nodes = (
"442 -258 OFFCURVE",
"350 -245 OFFCURVE",
"117 -245 CURVE SMOOTH",
"51 -245 OFFCURVE",
"57 -122 OFFCURVE",
"60 -55 CURVE SMOOTH",
"74 226 OFFCURVE",
"99 608 OFFCURVE",
"117 784 CURVE",
"202 784 LINE",
"185 637 OFFCURVE",
"189 150 OFFCURVE",
"188 -55 CURVE SMOOTH",
"187 -163 OFFCURVE",
"340 -168 OFFCURVE",
"340 0 CURVE",
"453 20 LINE"
);
}
);
width = 380;
}
);
unicode = 026D;
},
{
glyphname = lsdigraph;
lastChange = "2019-08-10 00:05:29 +0000";
layers = (
{
components = (
{
name = l;
},
{
name = s;
transform = "{1, 0, 0, 1, 229, 9}";
}
);
layerId = "BA196CD0-EE58-4274-B8DF-4393D3617A29";
paths = (
{
closed = 1;
nodes = (
"128 0 LINE",
"575 0 LINE",
"575 112 LINE",
"128 112 LINE"
);
}
);
width = 380;
}
);
unicode = 02AA;
},
{
glyphname = lzdigraph;
lastChange = "2019-08-10 00:03:36 +0000";
layers = (
{
components = (
{
name = l;
},
{
name = z;
transform = "{1, 0, 0, 1, 187, -1}";
}
);
layerId = "BA196CD0-EE58-4274-B8DF-4393D3617A29";
paths = (
{
closed = 1;
nodes = (
"282 111 LINE",
"262 0 LINE",
"227 0 LINE",
"215 111 LINE"
);
},
{
closed = 1;
nodes = (
"139 482 LINE",
"370 482 LINE",
"370 549 LINE",
"139 549 LINE"
);
}
);
width = 380;
}
);
unicode = 02AB;
},
{
color = 7;
glyphname = m;
lastChange = "2019-08-10 00:10:54 +0000";
layers = (
{
anchors = (
{
name = bottom;
position = "{507, 0}";
},
{
name = center;
position = "{539, 279}";
},
{
name = eng_hook;
position = "{868, 12}";
},
{
name = top;
position = "{569, 560}";
}
);
layerId = "BA196CD0-EE58-4274-B8DF-4393D3617A29";
paths = (
{
closed = 1;
nodes = (
"542 519 OFFCURVE",
"476 560 OFFCURVE",
"396 560 CURVE SMOOTH",
"317 560 OFFCURVE",
"261 529 OFFCURVE",
"220 462 CURVE",
"230 547 LINE",
"140 547 LINE",
"75 0 LINE",
"200 0 LINE",
"226 353 LINE",
"269 491 OFFCURVE",
"293 501 OFFCURVE",
"385 501 CURVE SMOOTH",
"462 501 OFFCURVE",
"499 416 OFFCURVE",
"499 347 CURVE",
"428 0 LINE",
"552 0 LINE",
"594 309 LINE SMOOTH",
"610 425 OFFCURVE",
"646 497 OFFCURVE",
"740 497 CURVE SMOOTH",
"816 497 OFFCURVE",
"838 447 OFFCURVE",
"838 342 CURVE",
"804 0 LINE",
"939 0 LINE",
"928 330 LINE SMOOTH",
"925 421 OFFCURVE",
"864 560 OFFCURVE",
"750 560 CURVE SMOOTH",
"666 560 OFFCURVE",
"614 522 OFFCURVE",
"569 442 CURVE"
);
}
);
width = 1014;
}
);
unicode = 006D;
},
{
glyphname = mlonglegturned;
lastChange = "2019-08-09 23:58:21 +0000";
layers = (
{
components = (
{
name = mturned;
}
);
layerId = "BA196CD0-EE58-4274-B8DF-4393D3617A29";
paths = (
{
closed = 1;
nodes = (
"774 -200 LINE",
"883 -200 LINE",
"938 496 LINE",
"814 496 LINE"
);
}
);
width = 1014;
}
);
unicode = 0270;
},
{
color = 7;
glyphname = n;
lastChange = "2019-08-10 00:14:53 +0000";
layers = (
{
anchors = (
{
name = bottom;
position = "{316, 0}";
},
{
name = center;
position = "{333, 269}";
},
{
name = top;
position = "{316, 547}";
}
);
layerId = "BA196CD0-EE58-4274-B8DF-4393D3617A29";
paths = (
{
closed = 1;
nodes = (
"550 497 OFFCURVE",
"484 555 OFFCURVE",
"359 555 CURVE SMOOTH",
"283 555 OFFCURVE",
"241 524 OFFCURVE",
"198 495 CURVE",
"181 556 LINE",
"115 556 LINE",
"75 0 LINE",
"213 0 LINE",
"189 314 LINE SMOOTH",
"181 419 OFFCURVE",
"239 482 OFFCURVE",
"349 482 CURVE SMOOTH",
"429 482 OFFCURVE",
"485 439 OFFCURVE",
"476 339 CURVE SMOOTH",
"445 0 LINE",
"584 0 LINE",
"562 323 LINE SMOOTH"
);
}
);
width = 659;
}
);
unicode = 006E;
},
{
color = 0;
glyphname = eng;
lastChange = "2019-08-09 18:18:25 +0000";
layers = (
{
components = (
{
name = n;
}
);
layerId = "BA196CD0-EE58-4274-B8DF-4393D3617A29";
paths = (
{
closed = 1;
nodes = (
"445 -69 OFFCURVE",
"445 -88 OFFCURVE",
"384 -88 CURVE SMOOTH",
"338 -88 LINE",
"335 -99 OFFCURVE",
"321 -152 OFFCURVE",
"318 -161 CURVE",
"359 -175 OFFCURVE",
"527 -163 OFFCURVE",
"552 -139 CURVE SMOOTH",
"570 -122 OFFCURVE",
"586 -80 OFFCURVE",
"582 32 CURVE SMOOTH",
"581 57 OFFCURVE",
"445 27 OFFCURVE",
"445 3 CURVE SMOOTH"
);
}
);
width = 659;
}
);
unicode = 014B;
},
{
glyphname = nhookleft;
lastChange = "2019-08-10 23:19:22 +0000";
layers = (
{
components = (
{
name = n;
}
);
layerId = "BA196CD0-EE58-4274-B8DF-4393D3617A29";
paths = (
{
closed = 1;
nodes = (
"99 -198 OFFCURVE",
"126 -198 OFFCURVE",
"165 -198 CURVE SMOOTH",
"212 -198 OFFCURVE",
"212 -145 OFFCURVE",
"212 0 CURVE",
"75 0 LINE",
"75 -79 OFFCURVE",
"74 -90 OFFCURVE",
"-2 -90 CURVE",
"-2 -198 LINE"
);
}
);
width = 659;
}
);
unicode = 0272;
},
{
glyphname = nhookretroflex;
lastChange = "2019-08-10 23:18:09 +0000";
layers = (
{
anchors = (
{
name = _bottom_hook;
position = "{967.809, 379.718}";
}
);
components = (
{
name = n;
}
);
layerId = "BA196CD0-EE58-4274-B8DF-4393D3617A29";
paths = (
{
closed = 1;
nodes = (
"661 -87 LINE",
"585 -87 OFFCURVE",
"584 -76 OFFCURVE",
"584 3 CURVE",
"447 3 LINE",
"447 -142 OFFCURVE",
"447 -195 OFFCURVE",
"494 -195 CURVE SMOOTH",
"533 -195 OFFCURVE",
"560 -195 OFFCURVE",
"661 -195 CURVE"
);
}
);
width = 1259;
}
);
unicode = 0273;
},
{
color = 7;
glyphname = o;
lastChange = "2019-08-07 22:47:27 +0000";
layers = (
{
anchors = (
{
name = _;
position = "{333, 547}";
},
{
name = bottom;
position = "{326, 0}";
},
{
name = center;
position = "{326, 250}";
},
{
name = horn;
position = "{517, 392}";
},
{
name = ogonek;
position = "{587, 10}";
},
{
name = top;
position = "{326, 547}";
},
{
name = topright;
position = "{632, 500}";
}
);
layerId = "BA196CD0-EE58-4274-B8DF-4393D3617A29";
paths = (
{
closed = 1;
nodes = (
"422 483 OFFCURVE",
"482 403 OFFCURVE",
"482 289 CURVE SMOOTH",
"482 163 OFFCURVE",
"461 141 OFFCURVE",
"326 141 CURVE SMOOTH",
"211 141 OFFCURVE",
"170 161 OFFCURVE",
"170 289 CURVE SMOOTH",
"170 405 OFFCURVE",
"230 483 OFFCURVE",
"326 483 CURVE SMOOTH"
);
},
{
closed = 1;
nodes = (
"169 549 OFFCURVE",
"75 442 OFFCURVE",
"75 273 CURVE SMOOTH",
"75 94 OFFCURVE",
"169 -14 OFFCURVE",
"326 -14 CURVE SMOOTH",
"482 -14 OFFCURVE",
"577 94 OFFCURVE",
"577 273 CURVE SMOOTH",
"577 442 OFFCURVE",
"482 549 OFFCURVE",
"326 549 CURVE SMOOTH"
);
}
);
width = 652;
}
);
leftKerningGroup = Round;
rightKerningGroup = RoundRight;
unicode = 006F;
},
{
color = 7;
glyphname = p;
lastChange = "2019-08-10 00:19:51 +0000";
layers = (
{
anchors = (
{
name = bottom;
position = "{361, 0}";
},
{
name = center;
position = "{157, -97}";
},
{
name = top;
position = "{361, 500}";
},
{
name = top_hook;
position = "{183, 202}";
}
);
hints = (
{
place = "{141, 115}";
type = Stem;
},
{
horizontal = 1;
place = "{497, 63}";
type = Stem;
},
{
horizontal = 1;
place = "{-3, 140}";
type = Stem;
},
{
place = "{562, 63}";
type = Stem;
}
);
layerId = "BA196CD0-EE58-4274-B8DF-4393D3617A29";
paths = (
{
closed = 1;
nodes = (
"284 17 OFFCURVE",
"342 -14 OFFCURVE",
"422 -14 CURVE SMOOTH",
"555 -14 OFFCURVE",
"646 101 OFFCURVE",
"646 273 CURVE SMOOTH",
"646 438 OFFCURVE",
"555 553 OFFCURVE",
"422 553 CURVE SMOOTH",
"342 553 OFFCURVE",
"284 522 OFFCURVE",
"247 457 CURVE",
"229 532 LINE",
"139 532 LINE",
"155 237 LINE",
"75 -212 LINE",
"204 -204 LINE",
"247 82 LINE"
);
},
{
closed = 1;
nodes = (
"588 156 OFFCURVE",
"535 134 OFFCURVE",
"440 134 CURVE SMOOTH",
"345 134 OFFCURVE",
"283 156 OFFCURVE",
"283 289 CURVE SMOOTH",
"283 414 OFFCURVE",
"340 493 OFFCURVE",
"435 493 CURVE SMOOTH",
"531 493 OFFCURVE",
"588 414 OFFCURVE",
"588 289 CURVE SMOOTH"
);
}
);
width = 721;
}
);
rightKerningGroup = RoundRight;
unicode = 0070;
},
{
glyphname = thorn;
lastChange = "2019-08-07 22:47:05 +0000";
layers = (
{
layerId = "BA196CD0-EE58-4274-B8DF-4393D3617A29";
paths = (
{
closed = 1;
nodes = (
"167 800 LINE",
"183 -180 LINE",
"95 -180 LINE",
"79 800 LINE"
);
},
{
closed = 1;
nodes = (
"84 188 OFFCURVE",
"91 498 OFFCURVE",
"155 636 CURVE",
"299 636 OFFCURVE",
"482 535 OFFCURVE",
"479 371 CURVE SMOOTH",
"475 151 OFFCURVE",
"295 50 OFFCURVE",
"150 50 CURVE"
);
},
{
closed = 1;
nodes = (
"254 137 OFFCURVE",
"405 235 OFFCURVE",
"408 375 CURVE SMOOTH",
"410 460 OFFCURVE",
"254 559 OFFCURVE",
"202 559 CURVE SMOOTH",
"149 559 OFFCURVE",
"108 460 OFFCURVE",
"106 375 CURVE SMOOTH",
"103 235 OFFCURVE",
"149 137 OFFCURVE",
"202 137 CURVE SMOOTH"
);
}
);
width = 600;
}
);
unicode = 00FE;
},
{
color = 7;
glyphname = q;
lastChange = "2019-08-10 01:14:53 +0000";
layers = (
{
associatedMasterId = "BA196CD0-EE58-4274-B8DF-4393D3617A29";
layerId = "550EFC85-22CC-4D43-B167-1DAEAAA2FB65";
name = "Regular May 31 12, 16:28";
paths = (
{
closed = 1;
nodes = (
"157 153 OFFCURVE",
"212 136 OFFCURVE",
"308 136 CURVE SMOOTH",
"403 136 OFFCURVE",
"463 153 OFFCURVE",
"463 286 CURVE SMOOTH",
"463 418 OFFCURVE",
"405 498 OFFCURVE",
"310 498 CURVE SMOOTH",
"215 498 OFFCURVE",
"157 418 OFFCURVE",
"157 286 CURVE SMOOTH"
);
},
{
closed = 1;
nodes = (
"497 82 LINE",
"459 17 OFFCURVE",
"402 -14 OFFCURVE",
"321 -14 CURVE SMOOTH",
"189 -14 OFFCURVE",
"98 101 OFFCURVE",
"98 273 CURVE SMOOTH",
"98 445 OFFCURVE",
"189 560 OFFCURVE",
"321 560 CURVE SMOOTH",
"402 560 OFFCURVE",
"459 529 OFFCURVE",
"497 464 CURVE",
"511 547 LINE",
"598 547 LINE",
"561 -118 LINE SMOOTH",
"557 -208 LINE",
"474 -208 LINE"
);
}
);
width = 718;
},
{
anchors = (
{
name = bottom;
position = "{380, 0}";
},
{
name = top;
position = "{380, 500}";
},
{
name = top_hook;
position = "{525, 218}";
}
);
layerId = "BA196CD0-EE58-4274-B8DF-4393D3617A29";
paths = (
{
closed = 1;
nodes = (
"135 418 OFFCURVE",
"189 492 OFFCURVE",
"285 492 CURVE SMOOTH",
"380 492 OFFCURVE",
"441 418 OFFCURVE",
"441 286 CURVE SMOOTH",
"441 153 OFFCURVE",
"380 137 OFFCURVE",
"285 137 CURVE",
"190 137 OFFCURVE",
"135 153 OFFCURVE",
"135 286 CURVE SMOOTH"
);
},
{
closed = 1;
nodes = (
"679 -140 LINE",
"685 -20 LINE",
"599 -50 LINE",
"529 -70 LINE",
"541 186 LINE",
"576 547 LINE",
"489 547 LINE",
"489 427 LINE",
"435 512 OFFCURVE",
"392 554 OFFCURVE",
"296 554 CURVE SMOOTH",
"164 554 OFFCURVE",
"75 445 OFFCURVE",
"75 273 CURVE SMOOTH",
"75 101 OFFCURVE",
"167 -14 OFFCURVE",
"299 -14 CURVE SMOOTH",
"379 -14 OFFCURVE",
"436 17 OFFCURVE",
"474 82 CURVE",
"447 -208 LINE"
);
}
);
width = 760;
}
);
leftKerningGroup = Round;
unicode = 0071;
},
{
color = 7;
glyphname = r;
lastChange = "2019-08-10 00:20:27 +0000";
layers = (
{
anchors = (
{
name = bottom;
position = "{167, 0}";
},
{
name = bottom_wide;
position = "{198, 0}";
},
{
name = center;
position = "{160, 274}";
},
{
name = top;
position = "{216, 547}";
}
);
layerId = "BA196CD0-EE58-4274-B8DF-4393D3617A29";
paths = (
{
closed = 1;
nodes = (
"297 543 OFFCURVE",
"269 528 OFFCURVE",
"214 486 CURVE",
"214 542 LINE",
"121 545 LINE",
"121 317 OFFCURVE",
"116 196 OFFCURVE",
"75 0 CURVE",
"246 0 LINE",
"217 164 OFFCURVE",
"214 256 OFFCURVE",
"214 314 CURVE SMOOTH",
"214 411 OFFCURVE",
"266 443 OFFCURVE",
"427 459 CURVE",
"413 549 LINE"
);
}
);
width = 502;
}
);
unicode = 0072;
},
{
glyphname = ramshorn;
lastChange = "2019-08-10 23:54:19 +0000";
layers = (
{
anchors = (
{
name = _curl;
position = "{147, 459}";
},
{
name = bottom;
position = "{312, 0}";
},
{
name = top;
position = "{312, 540}";
}
);
layerId = "BA196CD0-EE58-4274-B8DF-4393D3617A29";
paths = (
{
closed = 1;
nodes = (
"554 397 OFFCURVE",
"549 515 OFFCURVE",
"427 513 CURVE SMOOTH",
"300 511 OFFCURVE",
"281 427 OFFCURVE",
"226 295 CURVE SMOOTH",
"177 178 OFFCURVE",
"132 96 OFFCURVE",
"162 51 CURVE SMOOTH",
"196 0 OFFCURVE",
"220 -8 OFFCURVE",
"280 -8 CURVE SMOOTH",
"323 -8 OFFCURVE",
"375 1 OFFCURVE",
"410 51 CURVE SMOOTH",
"445 102 OFFCURVE",
"406 172 OFFCURVE",
"359 268 CURVE SMOOTH",
"299 391 OFFCURVE",
"248 511 OFFCURVE",
"161 511 CURVE SMOOTH",
"18 511 OFFCURVE",
"18 422 OFFCURVE",
"18 339 CURVE",
"80 339 LINE",
"80 422 OFFCURVE",
"88 448 OFFCURVE",
"164 448 CURVE SMOOTH",
"224 448 OFFCURVE",
"253 345 OFFCURVE",
"289 224 CURVE SMOOTH",
"321 117 OFFCURVE",
"344 57 OFFCURVE",
"280 57 CURVE SMOOTH",
"228 57 OFFCURVE",
"244 115 OFFCURVE",
"289 224 CURVE SMOOTH",
"343 354 OFFCURVE",
"368 453 OFFCURVE",
"427 453 CURVE SMOOTH",
"470 453 OFFCURVE",
"485 397 OFFCURVE",
"489 339 CURVE",
"554 339 LINE"
);
}
);
width = 583;
}
);
unicode = 0264;
},
{
glyphname = rfishhook;
lastChange = "2019-08-10 22:50:48 +0000";
layers = (
{
anchors = (
{
name = _top_hook;
position = "{263, 66}";
},
{
name = center;
position = "{267, 299}";
}
);
layerId = "BA196CD0-EE58-4274-B8DF-4393D3617A29";
paths = (
{
closed = 1;
nodes = (
"222 4 LINE",
"307 4 LINE",
"307 399 LINE",
"222 399 LINE"
);
},
{
closed = 1;
nodes = (
"252 567 OFFCURVE",
"228 561 OFFCURVE",
"224 449 CURVE SMOOTH",
"222 399 OFFCURVE",
"222 415 OFFCURVE",
"222 345 CURVE",
"307 345 LINE",
"307 376 OFFCURVE",
"307 401 OFFCURVE",
"307 430 CURVE SMOOTH",
"307 478 OFFCURVE",
"310 481 OFFCURVE",
"378 481 CURVE",
"378 566 LINE"
);
}
);
width = 600;
}
);
unicode = 027E;
},
{
glyphname = rlonglegturned;
lastChange = "2019-08-08 17:12:32 +0000";
layers = (
{
components = (
{
name = rturned;
}
);
layerId = "BA196CD0-EE58-4274-B8DF-4393D3617A29";
paths = (
{
closed = 1;
nodes = (
"256 500 LINE",
"424 500 LINE",
"449 800 LINE",
"224 800 LINE"
);
}
);
width = 502;
}
);
unicode = 027A;
},
{
color = 7;
glyphname = s;
lastChange = "2019-08-10 00:20:57 +0000";
layers = (
{
anchors = (
{
name = _right_el;
position = "{136, 529}";
},
{
name = bottom;
position = "{132, -89}";
},
{
name = center;
position = "{309, 269}";
},
{
name = top;
position = "{323, 547}";
}
);
layerId = "BA196CD0-EE58-4274-B8DF-4393D3617A29";
paths = (
{
closed = 1;
nodes = (
"429 558 OFFCURVE",
"394 564 OFFCURVE",
"327 564 CURVE SMOOTH",
"154 564 OFFCURVE",
"119 479 OFFCURVE",
"119 376 CURVE SMOOTH",
"119 284 OFFCURVE",
"240 251 OFFCURVE",
"286 235 CURVE SMOOTH",
"358 210 OFFCURVE",
"427 229 OFFCURVE",
"427 177 CURVE SMOOTH",
"427 135 OFFCURVE",
"381 127 OFFCURVE",
"316 127 CURVE SMOOTH",
"255 127 OFFCURVE",
"231 135 OFFCURVE",
"173 157 CURVE",
"75 49 LINE",
"161 8 OFFCURVE",
"246 -14 OFFCURVE",
"314 -14 CURVE SMOOTH",
"466 -14 OFFCURVE",
"544 -11 OFFCURVE",
"544 157 CURVE SMOOTH",
"544 235 OFFCURVE",
"458 270 OFFCURVE",
"348 292 CURVE SMOOTH",
"251 311 OFFCURVE",
"182 331 OFFCURVE",
"176 400 CURVE SMOOTH",
"172 447 OFFCURVE",
"209 497 OFFCURVE",
"338 497 CURVE SMOOTH",
"396 497 OFFCURVE",
"396 497 OFFCURVE",
"458 489 CURVE",
"479 549 LINE"
);
}
);
width = 619;
}
);
unicode = 0073;
},
{
glyphname = germandbls;
lastChange = "2019-08-07 22:56:20 +0000";
layers = (
{
layerId = "BA196CD0-EE58-4274-B8DF-4393D3617A29";
paths = (
{
closed = 1;
nodes = (
"133 555 LINE",
"133 686 OFFCURVE",
"214 760 OFFCURVE",
"356 760 CURVE SMOOTH",
"492 760 OFFCURVE",
"566 683 OFFCURVE",
"566 537 CURVE",
"468 532 OFFCURVE",
"411 493 OFFCURVE",
"411 430 CURVE SMOOTH",
"411 399 OFFCURVE",
"428 375 OFFCURVE",
"471 347 CURVE SMOOTH",
"499 329 LINE SMOOTH",
"606 260 OFFCURVE",
"626 224 OFFCURVE",
"626 159 CURVE SMOOTH",
"626 47 OFFCURVE",
"551 -14 OFFCURVE",
"414 -14 CURVE SMOOTH",
"372 -14 OFFCURVE",
"328 -6 OFFCURVE",
"280 10 CURVE",
"280 129 LINE",
"333 109 OFFCURVE",
"377 100 OFFCURVE",
"419 100 CURVE SMOOTH",
"495 100 OFFCURVE",
"535 122 OFFCURVE",
"535 162 CURVE SMOOTH",
"535 176 OFFCURVE",
"530 189 OFFCURVE",
"521 203 CURVE SMOOTH",
"511 217 OFFCURVE",
"489 234 OFFCURVE",
"457 254 CURVE",
"417 281 LINE",
"387 319 OFFCURVE",
"352 366 OFFCURVE",
"352 420 CURVE SMOOTH",
"352 502 OFFCURVE",
"381 561 OFFCURVE",
"512 580 CURVE",
"461 699 OFFCURVE",
"428 705 OFFCURVE",
"354 705 CURVE SMOOTH",
"270 705 OFFCURVE",
"228 665 OFFCURVE",
"215 553 CURVE",
"239 0 LINE",
"104 0 LINE"
);
}
);
width = 600;
}
);
unicode = 00DF;
},
{
color = 7;
glyphname = t;
lastChange = "2019-08-10 01:16:29 +0000";
layers = (
{
anchors = (
{
name = bottom;
position = "{333, 0}";
},
{
name = caron;
position = "{371, 616}";
},
{
name = center;
position = "{237, 341}";
},
{
name = circumflexbelowcomb;
position = "{342, -25}";
},
{
name = curl;
position = "{442, 584}";
},
{
name = top;
position = "{249, 661}";
},
{
name = top_hook;
position = "{247, 639}";
},
{
name = topright;
position = "{536, 500}";
}
);
layerId = "BA196CD0-EE58-4274-B8DF-4393D3617A29";
paths = (
{
closed = 1;
nodes = (
"75 548 LINE",
"481 548 LINE",
"463 615 LINE",
"104 615 LINE"
);
},
{
closed = 1;
nodes = (
"429 151 OFFCURVE",
"328 151 OFFCURVE",
"277 151 CURVE",
"311 737 LINE",
"217 737 LINE",
"192 499 OFFCURVE",
"157 74 OFFCURVE",
"157 50 CURVE SMOOTH",
"157 43 OFFCURVE",
"161 0 OFFCURVE",
"195 0 CURVE SMOOTH",
"242 0 OFFCURVE",
"418 0 OFFCURVE",
"455 2 CURVE",
"447 150 LINE"
);
}
);
width = 556;
}
);
unicode = 0074;
},
{
glyphname = tesh;
lastChange = "2019-08-08 15:53:53 +0000";
layers = (
{
components = (
{
name = t;
transform = "{1, 0, 0.03492, 1, 31, 0}";
},
{
name = esh;
transform = "{0.97435, 0.22503, -0.22503, 0.97435, 283, -67}";
}
);
layerId = "BA196CD0-EE58-4274-B8DF-4393D3617A29";
paths = (
{
closed = 1;
nodes = (
"446 549 LINE",
"596 549 LINE",
"596 615 LINE",
"446 615 LINE"
);
}
);
width = 1156;
}
);
unicode = 02A7;
},
{
glyphname = tretroflexhook;
lastChange = "2019-08-10 23:08:43 +0000";
layers = (
{
anchors = (
{
name = bottom;
position = "{333, 0}";
},
{
name = caron;
position = "{371, 616}";
},
{
name = center;
position = "{237, 341}";
},
{
name = circumflexbelowcomb;
position = "{342, -25}";
},
{
name = curl;
position = "{442, 584}";
},
{
name = top;
position = "{249, 661}";
},
{
name = top_hook;
position = "{247, 639}";
},
{
name = topright;
position = "{536, 500}";
}
);
layerId = "BA196CD0-EE58-4274-B8DF-4393D3617A29";
paths = (
{
closed = 1;
nodes = (
"75 548 LINE",
"481 548 LINE",
"463 615 LINE",
"104 615 LINE"
);
},
{
closed = 1;
nodes = (
"399 11 OFFCURVE",
"328 11 OFFCURVE",
"277 11 CURVE",
"311 737 LINE",
"217 737 LINE",
"192 499 OFFCURVE",
"157 -66 OFFCURVE",
"157 -90 CURVE SMOOTH",
"157 -97 OFFCURVE",
"161 -140 OFFCURVE",
"195 -140 CURVE SMOOTH",
"242 -140 OFFCURVE",
"388 -140 OFFCURVE",
"425 -138 CURVE",
"417 10 LINE"
);
}
);
width = 556;
}
);
unicode = 0288;
},
{
glyphname = ts;
lastChange = "2019-08-10 23:25:29 +0000";
layers = (
{
components = (
{
alignment = -1;
name = s;
transform = "{1, 0, 0, 1.05709, 339, 15}";
},
{
alignment = -1;
name = t;
transform = "{0.93149, 0, 0, 1, -13, 0}";
}
);
layerId = "BA196CD0-EE58-4274-B8DF-4393D3617A29";
paths = (
{
closed = 1;
nodes = (
"317 549 LINE",
"675 549 LINE",
"675 612 LINE",
"317 615 LINE"
);
}
);
width = 1175;
}
);
unicode = 02A6;
},
{
color = 7;
glyphname = u;
lastChange = "2019-08-08 16:44:44 +0000";
layers = (
{
anchors = (
{
name = bottom;
position = "{322, 0}";
},
{
name = horn;
position = "{536, 446}";
},
{
name = ogonek;
position = "{507, 5}";
},
{
name = top;
position = "{331, 547}";
},
{
name = topright;
position = "{624, 500}";
}
);
layerId = "BA196CD0-EE58-4274-B8DF-4393D3617A29";
paths = (
{
closed = 1;
nodes = (
"108 27 OFFCURVE",
"165 -16 OFFCURVE",
"288 -16 CURVE SMOOTH",
"367 -16 OFFCURVE",
"429 -7 OFFCURVE",
"464 84 CURVE",
"460 0 LINE",
"569 0 LINE",
"549 547 LINE",
"460 547 LINE",
"450 315 LINE",
"442 225 OFFCURVE",
"406 140 OFFCURVE",
"309 140 CURVE SMOOTH",
"228 140 OFFCURVE",
"184 140 OFFCURVE",
"171 297 CURVE SMOOTH",
"150 547 LINE",
"75 547 LINE",
"96 216 LINE SMOOTH"
);
}
);
width = 644;
}
);
unicode = 0075;
},
{
color = 7;
glyphname = v;
lastChange = "2019-08-07 21:38:40 +0000";
layers = (
{
anchors = (
{
name = bottom;
position = "{372, 0}";
},
{
name = top;
position = "{372, 500}";
}
);
layerId = "BA196CD0-EE58-4274-B8DF-4393D3617A29";
paths = (
{
closed = 1;
nodes = (
"257 144 LINE",
"75 547 LINE",
"170 547 LINE",
"382 146 LINE",
"574 547 LINE",
"669 547 LINE",
"489 144 LINE",
"469 0 LINE",
"285 0 LINE"
);
}
);
width = 744;
}
);
unicode = 0076;
},
{
glyphname = vhook;
lastChange = "2019-08-10 22:46:54 +0000";
layers = (
{
anchors = (
{
name = _vhook;
position = "{426, 456}";
},
{
name = bottom;
position = "{372, 0}";
},
{
name = horn;
position = "{536, 446}";
},
{
name = ogonek;
position = "{365, -48}";
},
{
name = top;
position = "{359, 506}";
},
{
name = topright;
position = "{624, 500}";
}
);
layerId = "BA196CD0-EE58-4274-B8DF-4393D3617A29";
paths = (
{
closed = 1;
nodes = (
"96 27 OFFCURVE",
"186 -16 OFFCURVE",
"309 -16 CURVE SMOOTH",
"515 -16 OFFCURVE",
"496 161 OFFCURVE",
"496 258 CURVE SMOOTH",
"496 469 OFFCURVE",
"514 570 OFFCURVE",
"325 570 CURVE",
"325 495 LINE",
"418 495 OFFCURVE",
"407 410 OFFCURVE",
"407 354 CURVE SMOOTH",
"407 197 OFFCURVE",
"406 140 OFFCURVE",
"309 140 CURVE SMOOTH",
"228 140 OFFCURVE",
"181 140 OFFCURVE",
"181 297 CURVE SMOOTH",
"181 547 LINE",
"96 547 LINE",
"96 216 LINE SMOOTH"
);
}
);
width = 644;
}
);
unicode = 028B;
},
{
color = 7;
glyphname = w;
lastChange = "2019-08-07 21:38:40 +0000";
layers = (
{
anchors = (
{
name = bottom;
position = "{442, 0}";
},
{
name = top;
position = "{442, 547}";
}
);
layerId = "BA196CD0-EE58-4274-B8DF-4393D3617A29";
paths = (
{
closed = 1;
nodes = (
"75 547 LINE",
"165 547 LINE",
"277 198 LINE",
"411 423 LINE",
"473 423 LINE",
"607 198 LINE",
"719 547 LINE",
"809 547 LINE",
"666 0 LINE",
"541 0 LINE",
"442 189 LINE",
"339 0 LINE",
"218 0 LINE"
);
}
);
width = 884;
}
);
unicode = 0077;
},
{
color = 7;
glyphname = x;
lastChange = "2019-08-07 21:38:40 +0000";
layers = (
{
anchors = (
{
name = bottom;
position = "{390, 0}";
},
{
name = top;
position = "{390, 500}";
}
);
layerId = "BA196CD0-EE58-4274-B8DF-4393D3617A29";
paths = (
{
closed = 1;
nodes = (
"509 -7 LINE",
"649 -10 LINE",
"171 528 LINE",
"75 528 LINE"
);
},
{
closed = 1;
nodes = (
"104 0 LINE",
"243 0 LINE",
"704 528 LINE",
"613 528 LINE"
);
}
);
width = 779;
}
);
leftKerningGroup = Round;
unicode = 0078;
},
{
color = 7;
glyphname = y;
lastChange = "2019-08-07 21:38:40 +0000";
layers = (
{
anchors = (
{
name = bottom;
position = "{341, 0}";
},
{
name = top;
position = "{298, 547}";
}
);
layerId = "BA196CD0-EE58-4274-B8DF-4393D3617A29";
paths = (
{
closed = 1;
nodes = (
"403 -63 LINE",
"339 -206 OFFCURVE",
"267 -218 OFFCURVE",
"187 -218 CURVE SMOOTH",
"105 -218 LINE",
"105 -99 LINE",
"168 -99 LINE SMOOTH",
"259 -99 OFFCURVE",
"314 -39 OFFCURVE",
"352 108 CURVE",
"75 547 LINE",
"170 547 LINE",
"394 209 LINE",
"512 547 LINE",
"607 547 LINE"
);
}
);
width = 682;
}
);
unicode = 0079;
},
{
color = 7;
glyphname = z;
lastChange = "2019-08-10 22:54:37 +0000";
layers = (
{
anchors = (
{
name = _right_el;
position = "{178, 539}";
},
{
name = bottom;
position = "{331, 0}";
},
{
name = bottomhook;
position = "{467, 27}";
},
{
name = center;
position = "{331, 288}";
},
{
name = top;
position = "{344, 547}";
}
);
layerId = "BA196CD0-EE58-4274-B8DF-4393D3617A29";
paths = (
{
closed = 1;
nodes = (
"477 482 LINE",
"99 131 LINE",
"75 0 LINE",
"576 0 LINE",
"519 121 LINE",
"234 121 LINE",
"586 482 LINE",
"573 549 LINE",
"164 549 LINE",
"164 482 LINE"
);
}
);
width = 661;
}
);
unicode = 007A;
},
{
glyphname = zcurl;
lastChange = "2019-08-10 01:07:50 +0000";
layers = (
{
anchors = (
{
name = _right_el;
position = "{199, 514}";
},
{
name = bottom;
position = "{331, 0}";
},
{
name = center;
position = "{331, 288}";
},
{
name = top;
position = "{344, 547}";
}
);
layerId = "BA196CD0-EE58-4274-B8DF-4393D3617A29";
paths = (
{
closed = 1;
nodes = (
"477 482 LINE",
"99 131 LINE",
"75 0 LINE",
"504 0 LINE SMOOTH",
"636 0 OFFCURVE",
"702 219 OFFCURVE",
"564 255 CURVE SMOOTH",
"428 291 OFFCURVE",
"378 181 OFFCURVE",
"378 -193 CURVE",
"477 -193 LINE",
"477 175 OFFCURVE",
"512 192 OFFCURVE",
"540 169 CURVE SMOOTH",
"552 159 OFFCURVE",
"567 121 OFFCURVE",
"474 121 CURVE SMOOTH",
"234 121 LINE",
"586 482 LINE",
"573 549 LINE",
"164 549 LINE",
"164 482 LINE"
);
}
);
width = 661;
}
);
unicode = 0291;
},
{
glyphname = zretroflexhook;
lastChange = "2019-08-10 22:58:07 +0000";
layers = (
{
components = (
{
name = z;
},
{
name = od_hook;
transform = "{1, 0, 0, 1, 243, -335}";
}
);
layerId = "BA196CD0-EE58-4274-B8DF-4393D3617A29";
paths = (
{
closed = 1;
nodes = (
"524 0 LINE",
"599 0 LINE",
"599 121 LINE",
"485 121 LINE"
);
}
);
width = 661;
}
);
unicode = 0290;
},
{
glyphname = "A-cy";
lastChange = "2019-08-11 00:14:35 +0000";
layers = (
{
layerId = "BA196CD0-EE58-4274-B8DF-4393D3617A29";
paths = (
{
closed = 1;
nodes = (
"207 0 LINE",
"73 0 LINE",
"361 729 LINE",
"454 729 LINE",
"741 0 LINE",
"600 0 LINE",
"572 119 LINE",
"244 119 LINE"
);
},
{
closed = 1;
nodes = (
"273 235 LINE",
"542 235 LINE",
"407 639 LINE"
);
}
);
width = 814;
}
);
note = uni0410;
unicode = 0410;
},
{
glyphname = "Be-cy";
lastChange = "2019-08-11 00:14:35 +0000";
layers = (
{
layerId = "BA196CD0-EE58-4274-B8DF-4393D3617A29";
paths = (
{
closed = 1;
nodes = (
"214 142 LINE",
"208 376 LINE",
"338 380 LINE SMOOTH",
"412 380 OFFCURVE",
"452 344 QCURVE SMOOTH",
"492 308 OFFCURVE",
"492 242 QCURVE SMOOTH",
"492 200 OFFCURVE",
"452 172 QCURVE SMOOTH",
"409 141 OFFCURVE",
"338 141 QCURVE SMOOTH"
);
},
{
closed = 1;
nodes = (
"81 729 LINE",
"111 0 LINE",
"328 0 LINE SMOOTH",
"576 0 OFFCURVE",
"576 218 QCURVE SMOOTH",
"576 327 OFFCURVE",
"514 386 QCURVE SMOOTH",
"450 446 OFFCURVE",
"328 446 QCURVE SMOOTH",
"205 447 LINE",
"197 660 LINE",
"542 660 LINE",
"575 729 LINE"
);
}
);
width = 654;
}
);
note = uni0411;
unicode = 0411;
},
{
glyphname = "Ve-cy";
lastChange = "2019-08-11 00:14:35 +0000";
layers = (
{
layerId = "BA196CD0-EE58-4274-B8DF-4393D3617A29";
paths = (
{
closed = 1;
nodes = (
"73 0 LINE",
"73 729 LINE",
"301 729 LINE SMOOTH",
"414 729 OFFCURVE",
"475 682 QCURVE SMOOTH",
"536 635 OFFCURVE",
"536 549 QCURVE SMOOTH",
"536 413 OFFCURVE",
"413 393 QCURVE",
"600 363 OFFCURVE",
"600 204 QCURVE SMOOTH",
"600 107 OFFCURVE",
"529 53 QCURVE SMOOTH",
"459 0 OFFCURVE",
"335 0 QCURVE SMOOTH"
);
},
{
closed = 1;
nodes = (
"172 663 LINE",
"172 428 LINE",
"318 428 LINE SMOOTH",
"461 428 OFFCURVE",
"461 538 QCURVE SMOOTH",
"461 595 OFFCURVE",
"426 628 QCURVE SMOOTH",
"388 663 OFFCURVE",
"318 663 QCURVE SMOOTH"
);
},
{
closed = 1;
nodes = (
"172 348 LINE",
"172 145 LINE",
"330 145 LINE SMOOTH",
"413 145 OFFCURVE",
"448 168 QCURVE SMOOTH",
"486 193 OFFCURVE",
"486 259 QCURVE SMOOTH",
"486 284 OFFCURVE",
"448 316 QCURVE SMOOTH",
"408 348 OFFCURVE",
"330 348 QCURVE SMOOTH"
);
}
);
width = 673;
}
);
note = uni0412;
unicode = 0412;
},
{
glyphname = "Ge-cy";
lastChange = "2019-08-11 00:14:35 +0000";
layers = (
{
layerId = "BA196CD0-EE58-4274-B8DF-4393D3617A29";
paths = (
{
closed = 1;
nodes = (
"544 729 LINE",
"73 729 LINE",
"59 0 LINE",
"211 0 LINE",
"177 648 LINE",
"554 648 LINE"
);
}
);
width = 625;
}
);
note = uni0413;
unicode = 0413;
},
{
glyphname = "De-cy";
lastChange = "2019-08-11 00:14:35 +0000";
layers = (
{
layerId = "BA196CD0-EE58-4274-B8DF-4393D3617A29";
paths = (
{
closed = 1;
nodes = (
"609 726 LINE",
"203 725 LINE",
"179 236 LINE",
"145 192 LINE",
"89 114 LINE",
"29 114 LINE",
"79 -95 LINE",
"184 -95 LINE",
"167 4 LINE",
"576 4 LINE",
"551 -95 LINE",
"661 -95 LINE",
"705 114 LINE",
"630 114 LINE",
"609 638 LINE"
);
},
{
closed = 1;
nodes = (
"273 224 LINE",
"291 638 LINE",
"514 638 LINE",
"507 113 LINE",
"224 114 LINE"
);
}
);
width = 736;
}
);
note = uni0414;
unicode = 0414;
},
{
glyphname = "Ie-cy";
lastChange = "2019-08-11 00:14:35 +0000";
layers = (
{
layerId = "BA196CD0-EE58-4274-B8DF-4393D3617A29";
paths = (
{
closed = 1;
nodes = (
"543 0 LINE",
"73 0 LINE",
"73 729 LINE",
"534 729 LINE",
"534 646 LINE",
"172 646 LINE",
"172 430 LINE",
"519 430 LINE",
"519 347 LINE",
"172 347 LINE",
"172 151 LINE",
"543 151 LINE"
);
}
);
width = 616;
}
);
note = uni0415;
unicode = 0415;
},
{
glyphname = "Io-cy";
lastChange = "2019-08-11 00:14:35 +0000";
layers = (
{
layerId = "BA196CD0-EE58-4274-B8DF-4393D3617A29";
paths = (
{
closed = 1;
nodes = (
"488 833 LINE",
"398 833 LINE",
"403 937 LINE",
"483 937 LINE"
);
},
{
closed = 1;
nodes = (
"225 833 LINE",
"135 833 LINE",
"140 937 LINE",
"220 937 LINE"
);
},
{
closed = 1;
nodes = (
"543 0 LINE",
"73 0 LINE",
"73 729 LINE",
"534 729 LINE",
"534 646 LINE",
"172 646 LINE",
"172 430 LINE",
"519 430 LINE",
"519 347 LINE",
"172 347 LINE",
"172 151 LINE",
"543 151 LINE"
);
}
);
width = 616;
}
);
note = uni0401;
unicode = 0401;
},
{
glyphname = "Zhe-cy";
lastChange = "2019-08-11 00:14:35 +0000";
layers = (
{
layerId = "BA196CD0-EE58-4274-B8DF-4393D3617A29";
paths = (
{
closed = 1;
nodes = (
"13 0 LINE",
"275 338 LINE",
"32 727 LINE",
"106 727 LINE",
"344 422 LINE",
"351 728 LINE",
"413 728 LINE",
"432 419 LINE",
"676 729 LINE",
"750 729 LINE",
"499 340 LINE",
"751 0 LINE",
"589 0 LINE",
"432 251 LINE",
"433 0 LINE",
"332 0 LINE",
"335 252 LINE",
"174 -2 LINE"
);
}
);
width = 771;
}
);
note = uni0416;
unicode = 0416;
},
{
glyphname = "Ze-cy";
lastChange = "2019-08-11 00:14:35 +0000";
layers = (
{
layerId = "BA196CD0-EE58-4274-B8DF-4393D3617A29";
paths = (
{
closed = 1;
nodes = (
"462 388 OFFCURVE",
"503 340 QCURVE SMOOTH",
"543 293 OFFCURVE",
"543 222 QCURVE SMOOTH",
"543 -14 OFFCURVE",
"258 -14 QCURVE SMOOTH",
"167 -14 OFFCURVE",
"63 22 QCURVE",
"63 176 LINE",
"166 116 OFFCURVE",
"262 116 QCURVE SMOOTH",
"353 116 OFFCURVE",
"402 158 QCURVE SMOOTH",
"445 194 OFFCURVE",
"445 236 QCURVE SMOOTH",
"445 288 OFFCURVE",
"400 322 QCURVE SMOOTH",
"353 358 OFFCURVE",
"274 359 QCURVE SMOOTH",
"162 362 LINE",
"154 438 LINE",
"278 440 LINE SMOOTH",
"426 442 OFFCURVE",
"426 540 QCURVE SMOOTH",
"426 654 OFFCURVE",
"280 654 QCURVE SMOOTH",
"185 654 OFFCURVE",
"84 634 QCURVE",
"85 711 LINE",
"196 742 OFFCURVE",
"283 742 QCURVE SMOOTH",
"395 742 OFFCURVE",
"461 691 QCURVE SMOOTH",
"526 640 OFFCURVE",
"526 553 QCURVE SMOOTH",
"526 427 OFFCURVE",
"393 393 QCURVE"
);
}
);
width = 616;
}
);
note = uni0417;
unicode = 0417;
},
{
glyphname = "Ii-cy";
lastChange = "2019-08-11 00:14:35 +0000";
layers = (
{
layerId = "BA196CD0-EE58-4274-B8DF-4393D3617A29";
paths = (
{
closed = 1;
nodes = (
"508 0 LINE",
"633 0 LINE",
"613 714 LINE",
"490 714 LINE",
"177 139 LINE",
"162 729 LINE",
"71 729 LINE",
"71 0 LINE",
"214 0 LINE",
"537 610 LINE"
);
}
);
width = 708;
}
);
note = uni0418;
unicode = 0418;
},
{
glyphname = "Iishort-cy";
lastChange = "2019-08-11 00:14:35 +0000";
layers = (
{
layerId = "BA196CD0-EE58-4274-B8DF-4393D3617A29";
paths = (
{
closed = 1;
nodes = (
"325 920 LINE",
"170 963 LINE",
"170 912 LINE",
"325 816 LINE",
"484 912 LINE",
"484 963 LINE"
);
},
{
closed = 1;
nodes = (
"508 0 LINE",
"633 0 LINE",
"613 714 LINE",
"490 714 LINE",
"177 139 LINE",
"162 729 LINE",
"71 729 LINE",
"71 0 LINE",
"214 0 LINE",
"537 610 LINE"
);
}
);
width = 708;
}
);
note = uni0419;
unicode = 0419;
},
{
glyphname = "Ka-cy";
lastChange = "2019-08-11 00:14:35 +0000";
layers = (
{
layerId = "BA196CD0-EE58-4274-B8DF-4393D3617A29";
paths = (
{
closed = 1;
nodes = (
"201 0 LINE",
"73 0 LINE",
"93 729 LINE",
"191 729 LINE",
"182 421 LINE",
"509 729 LINE",
"636 729 LINE",
"274 389 LINE",
"662 0 LINE",
"429 0 LINE",
"182 351 LINE"
);
}
);
width = 735;
}
);
note = uni041A;
unicode = 041A;
},
{
glyphname = "El-cy";
lastChange = "2019-08-11 00:14:35 +0000";
layers = (
{
layerId = "BA196CD0-EE58-4274-B8DF-4393D3617A29";
paths = (
{
closed = 1;
nodes = (
"726 0 LINE",
"442 729 LINE",
"339 729 LINE",
"58 0 LINE",
"221 0 LINE",
"392 604 LINE",
"575 0 LINE"
);
}
);
width = 792;
}
);
note = uni041B;
unicode = 041B;
},
{
glyphname = "Em-cy";
lastChange = "2019-08-11 00:14:35 +0000";
layers = (
{
layerId = "BA196CD0-EE58-4274-B8DF-4393D3617A29";
paths = (
{
closed = 1;
nodes = (
"198 0 LINE",
"73 0 LINE",
"88 729 LINE",
"235 729 LINE",
"416 296 LINE",
"608 729 LINE",
"745 729 LINE",
"760 0 LINE",
"634 0 LINE",
"654 640 LINE",
"476 116 LINE",
"357 116 LINE",
"179 640 LINE"
);
}
);
width = 833;
}
);
note = uni041C;
unicode = 041C;
},
{
glyphname = "En-cy";
lastChange = "2019-08-11 00:14:35 +0000";
layers = (
{
layerId = "BA196CD0-EE58-4274-B8DF-4393D3617A29";
paths = (
{
closed = 1;
nodes = (
"187 0 LINE",
"73 0 LINE",
"83 729 LINE",
"187 729 LINE",
"187 381 LINE",
"525 381 LINE",
"525 729 LINE",
"629 729 LINE",
"639 0 LINE",
"525 0 LINE",
"525 245 LINE",
"187 245 LINE"
);
}
);
width = 712;
}
);
note = uni041D;
unicode = 041D;
},
{
glyphname = "O-cy";
lastChange = "2019-08-11 00:14:35 +0000";
layers = (
{
layerId = "BA196CD0-EE58-4274-B8DF-4393D3617A29";
paths = (
{
closed = 1;
nodes = (
"565 742 OFFCURVE",
"656 639 QCURVE SMOOTH",
"748 536 OFFCURVE",
"748 364 QCURVE SMOOTH",
"748 192 OFFCURVE",
"656 89 QCURVE SMOOTH",
"565 -14 OFFCURVE",
"411 -14 QCURVE SMOOTH",
"257 -14 OFFCURVE",
"165 88 QCURVE SMOOTH",
"73 191 OFFCURVE",
"73 364 QCURVE SMOOTH",
"73 536 OFFCURVE",
"165 639 QCURVE SMOOTH",
"257 742 OFFCURVE",
"411 742 QCURVE SMOOTH"
);
},
{
closed = 1;
nodes = (
"303 662 OFFCURVE",
"240 582 QCURVE SMOOTH",
"177 502 OFFCURVE",
"177 364 QCURVE SMOOTH",
"177 257 OFFCURVE",
"240 212 QCURVE SMOOTH",
"295 173 OFFCURVE",
"411 173 QCURVE SMOOTH",
"527 173 OFFCURVE",
"581 212 QCURVE SMOOTH",
"644 257 OFFCURVE",
"644 364 QCURVE SMOOTH",
"644 502 OFFCURVE",
"581 582 QCURVE SMOOTH",
"518 662 OFFCURVE",
"411 662 QCURVE SMOOTH"
);
}
);
width = 821;
}
);
note = uni041E;
unicode = 041E;
},
{
glyphname = "Pe-cy";
lastChange = "2019-08-11 00:14:35 +0000";
layers = (
{
layerId = "BA196CD0-EE58-4274-B8DF-4393D3617A29";
paths = (
{
closed = 1;
nodes = (
"576 726 LINE",
"73 729 LINE",
"69 0 LINE",
"189 0 LINE",
"177 642 LINE",
"480 642 LINE",
"469 0 LINE",
"589 0 LINE",
"576 642 LINE"
);
}
);
width = 663;
}
);
note = uni041F;
unicode = 041F;
},
{
glyphname = "Er-cy";
lastChange = "2019-08-11 00:14:35 +0000";
layers = (
{
layerId = "BA196CD0-EE58-4274-B8DF-4393D3617A29";
paths = (
{
closed = 1;
nodes = (
"191 0 LINE",
"73 0 LINE",
"103 729 LINE",
"320 729 LINE SMOOTH",
"568 729 OFFCURVE",
"568 511 QCURVE SMOOTH",
"568 402 OFFCURVE",
"506 343 QCURVE SMOOTH",
"442 283 OFFCURVE",
"320 283 QCURVE SMOOTH",
"201 283 LINE"
);
},
{
closed = 1;
nodes = (
"206 687 LINE",
"196 413 LINE",
"330 413 LINE SMOOTH",
"484 413 OFFCURVE",
"484 550 QCURVE SMOOTH",
"484 687 OFFCURVE",
"330 687 QCURVE SMOOTH"
);
}
);
width = 624;
}
);
note = uni0420;
unicode = 0420;
},
{
glyphname = "Es-cy";
lastChange = "2019-08-11 00:14:35 +0000";
layers = (
{
layerId = "BA196CD0-EE58-4274-B8DF-4393D3617A29";
paths = (
{
closed = 1;
nodes = (
"652 569 LINE",
"554 661 OFFCURVE",
"426 661 QCURVE SMOOTH",
"301 661 OFFCURVE",
"235 585 QCURVE SMOOTH",
"168 508 OFFCURVE",
"168 364 QCURVE SMOOTH",
"170 240 OFFCURVE",
"236 185 QCURVE SMOOTH",
"297 135 OFFCURVE",
"426 135 QCURVE SMOOTH",
"553 135 OFFCURVE",
"652 228 QCURVE",
"652 56 LINE",
"549 -14 OFFCURVE",
"420 -14 QCURVE SMOOTH",
"254 -14 OFFCURVE",
"159 87 QCURVE SMOOTH",
"64 188 OFFCURVE",
"64 364 QCURVE SMOOTH",
"64 540 OFFCURVE",
"159 641 QCURVE SMOOTH",
"254 742 OFFCURVE",
"420 742 QCURVE SMOOTH",
"550 742 OFFCURVE",
"652 673 QCURVE"
);
}
);
width = 722;
}
);
note = uni0421;
unicode = 0421;
},
{
glyphname = "Te-cy";
lastChange = "2019-08-11 00:14:35 +0000";
layers = (
{
layerId = "BA196CD0-EE58-4274-B8DF-4393D3617A29";
paths = (
{
closed = 1;
nodes = (
"332 656 LINE",
"73 646 LINE",
"73 729 LINE",
"690 729 LINE",
"690 646 LINE",
"431 656 LINE",
"451 0 LINE",
"313 0 LINE"
);
}
);
width = 763;
}
);
note = uni0422;
unicode = 0422;
},
{
glyphname = "U-cy";
lastChange = "2019-08-11 00:14:35 +0000";
layers = (
{
layerId = "BA196CD0-EE58-4274-B8DF-4393D3617A29";
paths = (
{
closed = 1;
nodes = (
"104 198 LINE",
"198 130 OFFCURVE",
"266 136 QCURVE SMOOTH",
"314 140 OFFCURVE",
"332 200 QCURVE",
"359 263 LINE",
"73 730 LINE",
"168 730 LINE",
"401 369 LINE",
"564 730 LINE",
"647 730 LINE",
"477 270 LINE",
"434 132 LINE",
"389 27 OFFCURVE",
"328 7 QCURVE SMOOTH",
"257 -16 OFFCURVE",
"114 21 QCURVE"
);
}
);
width = 723;
}
);
note = uni0423;
unicode = 0423;
},
{
glyphname = "Ef-cy";
lastChange = "2019-08-11 00:14:35 +0000";
layers = (
{
layerId = "BA196CD0-EE58-4274-B8DF-4393D3617A29";
paths = (
{
closed = 1;
nodes = (
"357 672 LINE",
"285 673 LINE",
"215 664 OFFCURVE",
"172 625 QCURVE SMOOTH",
"132 590 OFFCURVE",
"131 539 QCURVE SMOOTH",
"129 487 OFFCURVE",
"168 451 QCURVE SMOOTH",
"212 411 OFFCURVE",
"290 410 QCURVE",
"327 407 OFFCURVE",
"353 409 QCURVE"
);
},
{
closed = 1;
nodes = (
"529 728 LINE SMOOTH",
"774 729 OFFCURVE",
"774 508 QCURVE SMOOTH",
"774 399 OFFCURVE",
"712 340 QCURVE SMOOTH",
"648 280 OFFCURVE",
"526 280 QCURVE SMOOTH",
"471 280 LINE",
"480 0 LINE",
"344 0 LINE",
"353 280 LINE",
"310 280 LINE SMOOTH",
"188 280 OFFCURVE",
"125 340 QCURVE SMOOTH",
"62 399 OFFCURVE",
"62 508 QCURVE SMOOTH",
"62 726 OFFCURVE",
"310 726 QCURVE SMOOTH"
);
},
{
closed = 1;
nodes = (
"467 672 LINE",
"471 410 LINE",
"536 410 LINE SMOOTH",
"690 410 OFFCURVE",
"690 547 QCURVE SMOOTH",
"690 662 OFFCURVE",
"536 672 QCURVE"
);
}
);
width = 840;
}
);
note = uni0424;
unicode = 0424;
},
{
glyphname = "Ha-cy";
lastChange = "2019-08-11 00:14:35 +0000";
layers = (
{
layerId = "BA196CD0-EE58-4274-B8DF-4393D3617A29";
paths = (
{
closed = 1;
nodes = (
"73 0 LINE",
"324 340 LINE",
"106 729 LINE",
"212 729 LINE",
"394 389 LINE",
"576 729 LINE",
"682 729 LINE",
"457 340 LINE",
"697 0 LINE",
"538 0 LINE",
"386 221 LINE",
"233 0 LINE"
);
}
);
width = 771;
}
);
note = uni0425;
unicode = 0425;
},
{
glyphname = "Che-cy";
lastChange = "2019-08-11 00:14:35 +0000";
layers = (
{
layerId = "BA196CD0-EE58-4274-B8DF-4393D3617A29";
paths = (
{
closed = 1;
nodes = (
"77 730 LINE",
"157 730 LINE",
"162 459 LINE SMOOTH",
"163 373 OFFCURVE",
"204 339 QCURVE SMOOTH",
"237 312 OFFCURVE",
"301 312 QCURVE SMOOTH",
"373 312 OFFCURVE",
"415 354 QCURVE SMOOTH",
"459 398 OFFCURVE",
"460 477 QCURVE SMOOTH",
"472 730 LINE",
"555 730 LINE",
"575 0 LINE",
"450 0 LINE",
"457 278 LINE",
"404 196 OFFCURVE",
"271 196 QCURVE SMOOTH",
"176 196 OFFCURVE",
"124 256 QCURVE SMOOTH",
"72 317 OFFCURVE",
"72 430 QCURVE SMOOTH"
);
}
);
width = 650;
}
);
note = uni0427;
unicode = 0427;
},
{
glyphname = "Tse-cy";
lastChange = "2019-08-11 00:14:35 +0000";
layers = (
{
layerId = "BA196CD0-EE58-4274-B8DF-4393D3617A29";
paths = (
{
closed = 1;
nodes = (
"78 0 LINE",
"530 0 LINE",
"490 -144 LINE",
"600 -144 LINE",
"638 118 LINE",
"566 116 LINE",
"551 729 LINE",
"475 729 LINE",
"453 113 LINE",
"189 111 LINE",
"176 728 LINE",
"88 728 LINE"
);
}
);
width = 694;
}
);
note = uni0426;
unicode = 0426;
},
{
glyphname = "Sha-cy";
lastChange = "2019-08-11 00:14:35 +0000";
layers = (
{
layerId = "BA196CD0-EE58-4274-B8DF-4393D3617A29";
paths = (
{
closed = 1;
nodes = (
"72 726 LINE",
"77 0 LINE",
"722 0 LINE",
"717 726 LINE",
"621 726 LINE",
"639 109 LINE",
"460 110 LINE",
"467 702 LINE",
"359 702 LINE",
"377 110 LINE",
"175 110 LINE",
"184 726 LINE"
);
}
);
width = 804;
}
);
note = uni0428;
unicode = 0428;
},
{
glyphname = "Shcha-cy";
lastChange = "2019-08-11 00:14:35 +0000";
layers = (
{
layerId = "BA196CD0-EE58-4274-B8DF-4393D3617A29";
paths = (
{
closed = 1;
nodes = (
"67 726 LINE",
"72 0 LINE",
"691 0 LINE",
"654 -152 LINE",
"764 -152 LINE",
"812 104 LINE",
"716 122 LINE",
"712 726 LINE",
"616 726 LINE",
"632 121 LINE",
"455 120 LINE",
"462 702 LINE",
"354 702 LINE",
"372 120 LINE",
"159 121 LINE",
"179 726 LINE"
);
}
);
width = 832;
}
);
note = uni0429;
unicode = 0429;
},
{
glyphname = "Softsign-cy";
lastChange = "2019-08-11 00:14:35 +0000";
layers = (
{
layerId = "BA196CD0-EE58-4274-B8DF-4393D3617A29";
paths = (
{
closed = 1;
nodes = (
"203 729 LINE",
"125 729 LINE",
"115 0 LINE",
"332 0 LINE SMOOTH",
"580 0 OFFCURVE",
"580 218 QCURVE SMOOTH",
"580 327 OFFCURVE",
"518 386 QCURVE SMOOTH",
"454 446 OFFCURVE",
"332 446 QCURVE SMOOTH",
"213 446 LINE"
);
},
{
closed = 1;
nodes = (
"216 130 LINE",
"212 378 LINE",
"346 378 LINE SMOOTH",
"418 378 OFFCURVE",
"457 336 QCURVE SMOOTH",
"494 296 OFFCURVE",
"494 228 QCURVE SMOOTH",
"494 191 OFFCURVE",
"454 162 QCURVE SMOOTH",
"409 130 OFFCURVE",
"340 130 QCURVE SMOOTH"
);
}
);
width = 674;
}
);
note = uni042C;
unicode = 042C;
},
{
glyphname = "Hardsign-cy";
lastChange = "2019-08-11 00:14:35 +0000";
layers = (
{
layerId = "BA196CD0-EE58-4274-B8DF-4393D3617A29";
paths = (
{
closed = 1;
nodes = (
"273 729 LINE",
"44 730 LINE",
"16 628 LINE",
"167 630 LINE",
"185 0 LINE",
"402 0 LINE SMOOTH",
"650 0 OFFCURVE",
"650 218 QCURVE SMOOTH",
"650 327 OFFCURVE",
"588 386 QCURVE SMOOTH",
"524 446 OFFCURVE",
"402 446 QCURVE SMOOTH",
"283 446 LINE"
);
},
{
closed = 1;
nodes = (
"286 132 LINE",
"285 384 LINE",
"414 384 LINE SMOOTH",
"561 379 OFFCURVE",
"564 254 QCURVE SMOOTH",
"565 191 OFFCURVE",
"516 158 QCURVE SMOOTH",
"472 129 OFFCURVE",
"404 130 QCURVE SMOOTH"
);
}
);
width = 732;
}
);
note = uni042A;
unicode = 042A;
},
{
glyphname = "Yeru-cy";
lastChange = "2019-08-11 00:14:35 +0000";
layers = (
{
layerId = "BA196CD0-EE58-4274-B8DF-4393D3617A29";
paths = (
{
closed = 1;
nodes = (
"636 0 LINE",
"644 122 OFFCURVE",
"656 729 QCURVE",
"740 729 LINE",
"748 122 OFFCURVE",
"754 0 QCURVE"
);
},
{
closed = 1;
nodes = (
"128 729 LINE",
"50 729 LINE",
"80 0 LINE",
"297 0 LINE SMOOTH",
"545 0 OFFCURVE",
"545 218 QCURVE SMOOTH",
"545 327 OFFCURVE",
"483 386 QCURVE SMOOTH",
"419 446 OFFCURVE",
"297 446 QCURVE SMOOTH",
"148 446 LINE"
);
},
{
closed = 1;
nodes = (
"179 135 LINE",
"163 381 LINE",
"307 381 LINE SMOOTH",
"378 381 OFFCURVE",
"421 340 QCURVE SMOOTH",
"461 301 OFFCURVE",
"461 244 QCURVE SMOOTH",
"461 198 OFFCURVE",
"419 167 QCURVE SMOOTH",
"375 135 OFFCURVE",
"303 135 QCURVE SMOOTH"
);
}
);
width = 803;
}
);
note = uni042B;
unicode = 042B;
},
{
glyphname = "Ereversed-cy";
lastChange = "2019-08-11 00:14:35 +0000";
layers = (
{
layerId = "BA196CD0-EE58-4274-B8DF-4393D3617A29";
paths = (
{
closed = 1;
nodes = (
"523 243 OFFCURVE",
"472 200 QCURVE SMOOTH",
"411 150 OFFCURVE",
"282 150 QCURVE SMOOTH",
"155 150 OFFCURVE",
"56 243 QCURVE",
"56 71 LINE",
"159 1 OFFCURVE",
"288 1 QCURVE SMOOTH",
"454 1 OFFCURVE",
"549 102 QCURVE SMOOTH",
"644 203 OFFCURVE",
"644 379 QCURVE SMOOTH",
"644 555 OFFCURVE",
"549 656 QCURVE SMOOTH",
"454 757 OFFCURVE",
"288 757 QCURVE SMOOTH",
"158 757 OFFCURVE",
"56 688 QCURVE",
"56 584 LINE",
"154 676 OFFCURVE",
"282 676 QCURVE SMOOTH",
"407 676 OFFCURVE",
"473 600 QCURVE SMOOTH",
"523 542 OFFCURVE",
"536 431 QCURVE",
"267 432 LINE",
"267 350 LINE",
"534 350 LINE"
);
}
);
width = 710;
}
);
note = uni042D;
unicode = 042D;
},
{
glyphname = "Iu-cy";
lastChange = "2019-08-11 00:14:35 +0000";
layers = (
{
layerId = "BA196CD0-EE58-4274-B8DF-4393D3617A29";
paths = (
{
closed = 1;
nodes = (
"447 662 OFFCURVE",
"395 582 QCURVE SMOOTH",
"345 504 OFFCURVE",
"345 364 QCURVE SMOOTH",
"345 259 OFFCURVE",
"403 200 QCURVE SMOOTH",
"457 146 OFFCURVE",
"539 146 QCURVE SMOOTH",
"626 146 OFFCURVE",
"675 200 QCURVE SMOOTH",
"726 256 OFFCURVE",
"726 364 QCURVE SMOOTH",
"726 662 OFFCURVE",
"540 662 QCURVE SMOOTH"
);
},
{
closed = 1;
nodes = (
"159 266 LINE",
"153 0 LINE",
"68 0 LINE",
"60 729 LINE",
"171 729 LINE",
"165 360 LINE",
"247 343 LINE",
"271 733 OFFCURVE",
"540 733 QCURVE SMOOTH",
"821 733 OFFCURVE",
"821 364 QCURVE SMOOTH",
"821 -2 OFFCURVE",
"540 -2 QCURVE SMOOTH",
"255 -2 OFFCURVE",
"247 275 QCURVE"
);
}
);
width = 901;
}
);
note = uni042E;
unicode = 042E;
},
{
glyphname = "Ia-cy";
lastChange = "2019-08-11 00:14:35 +0000";
layers = (
{
layerId = "BA196CD0-EE58-4274-B8DF-4393D3617A29";
paths = (
{
closed = 1;
nodes = (
"217 322 OFFCURVE",
"156 199 QCURVE SMOOTH",
"56 0 LINE",
"196 0 LINE",
"270 187 LINE",
"305 259 OFFCURVE",
"340 284 QCURVE SMOOTH",
"372 308 OFFCURVE",
"432 308 QCURVE SMOOTH",
"506 308 LINE",
"506 0 LINE",
"624 0 LINE",
"624 729 LINE",
"401 729 LINE SMOOTH",
"168 729 OFFCURVE",
"168 519 QCURVE SMOOTH",
"168 379 OFFCURVE",
"278 342 QCURVE"
);
},
{
closed = 1;
nodes = (
"515 677 LINE",
"515 409 LINE",
"391 409 LINE SMOOTH",
"334 409 OFFCURVE",
"286 442 QCURVE SMOOTH",
"238 476 OFFCURVE",
"238 519 QCURVE SMOOTH",
"238 677 OFFCURVE",
"391 677 QCURVE SMOOTH"
);
}
);
width = 714;
}
);
note = uni042F;
unicode = 042F;
},
{
glyphname = "a-cy";
lastChange = "2019-08-11 00:14:35 +0000";
layers = (
{
layerId = "BA196CD0-EE58-4274-B8DF-4393D3617A29";
paths = (
{
closed = 1;
nodes = (
"462 547 LINE",
"539 547 LINE",
"537 0 LINE",
"462 0 LINE",
"462 82 LINE",
"406 -14 OFFCURVE",
"287 -14 QCURVE SMOOTH",
"188 -14 OFFCURVE",
"117 52 QCURVE SMOOTH",
"36 125 OFFCURVE",
"43 271 QCURVE SMOOTH",
"51 403 OFFCURVE",
"113 497 QCURVE",
"188 569 OFFCURVE",
"285 574 QCURVE",
"406 560 OFFCURVE",
"462 464 QCURVE"
);
},
{
closed = 1;
nodes = (
"130 208 OFFCURVE",
"147 171 QCURVE SMOOTH",
"182 101 OFFCURVE",
"272 101 QCURVE",
"345 91 OFFCURVE",
"376 145 QCURVE",
"415 194 OFFCURVE",
"415 290 QCURVE SMOOTH",
"420 495 OFFCURVE",
"286 499 QCURVE",
"209 495 OFFCURVE",
"157 408 QCURVE",
"128 352 OFFCURVE",
"128 279 QCURVE SMOOTH"
);
}
);
width = 608;
}
);
note = uni0430;
unicode = 0430;
},
{
glyphname = "be-cy";
lastChange = "2019-08-11 00:14:35 +0000";
layers = (
{
layerId = "BA196CD0-EE58-4274-B8DF-4393D3617A29";
paths = (
{
closed = 1;
nodes = (
"206 106 LINE",
"196 286 LINE",
"308 286 LINE SMOOTH",
"375 286 OFFCURVE",
"407 254 QCURVE SMOOTH",
"432 229 OFFCURVE",
"432 190 QCURVE SMOOTH",
"432 160 OFFCURVE",
"407 137 QCURVE SMOOTH",
"373 106 OFFCURVE",
"308 106 QCURVE SMOOTH"
);
},
{
closed = 1;
nodes = (
"81 551 LINE",
"107 0 LINE",
"293 0 LINE SMOOTH",
"505 0 OFFCURVE",
"505 165 QCURVE SMOOTH",
"505 247 OFFCURVE",
"452 292 QCURVE SMOOTH",
"397 337 OFFCURVE",
"293 337 QCURVE SMOOTH",
"187 338 LINE",
"181 499 LINE",
"476 499 LINE",
"504 551 LINE"
);
}
);
width = 588;
}
);
note = uni0431;
unicode = 0431;
},
{
glyphname = "ve-cy";
lastChange = "2019-08-11 00:14:35 +0000";
layers = (
{
layerId = "BA196CD0-EE58-4274-B8DF-4393D3617A29";
paths = (
{
closed = 1;
nodes = (
"70 0 LINE",
"70 554 LINE",
"262 554 LINE SMOOTH",
"356 554 OFFCURVE",
"407 518 QCURVE SMOOTH",
"459 483 OFFCURVE",
"459 417 QCURVE SMOOTH",
"459 314 OFFCURVE",
"356 299 QCURVE",
"513 276 OFFCURVE",
"513 155 QCURVE SMOOTH",
"513 81 OFFCURVE",
"453 40 QCURVE SMOOTH",
"394 0 OFFCURVE",
"290 0 QCURVE SMOOTH"
);
},
{
closed = 1;
nodes = (
"175 504 LINE",
"175 325 LINE",
"276 325 LINE SMOOTH",
"396 325 OFFCURVE",
"396 409 QCURVE SMOOTH",
"396 504 OFFCURVE",
"276 504 QCURVE SMOOTH"
);
},
{
closed = 1;
nodes = (
"175 264 LINE",
"175 110 LINE",
"286 110 LINE SMOOTH",
"356 110 OFFCURVE",
"385 128 QCURVE SMOOTH",
"417 147 OFFCURVE",
"417 197 QCURVE SMOOTH",
"417 216 OFFCURVE",
"385 240 QCURVE SMOOTH",
"352 264 OFFCURVE",
"286 264 QCURVE SMOOTH"
);
}
);
width = 595;
}
);
note = uni0432;
unicode = 0432;
},
{
glyphname = "ge-cy";
lastChange = "2019-08-11 00:14:35 +0000";
layers = (
{
layerId = "BA196CD0-EE58-4274-B8DF-4393D3617A29";
paths = (
{
closed = 1;
nodes = (
"492 552 LINE",
"73 552 LINE",
"65 0 LINE",
"210 0 LINE",
"177 478 LINE",
"502 478 LINE"
);
}
);
width = 563;
}
);
note = uni0433;
unicode = 0433;
},
{
glyphname = "de-cy";
lastChange = "2019-08-11 00:14:35 +0000";
layers = (
{
layerId = "BA196CD0-EE58-4274-B8DF-4393D3617A29";
paths = (
{
closed = 1;
nodes = (
"549 554 LINE",
"232 553 LINE",
"189 236 LINE",
"155 192 LINE",
"99 99 LINE",
"39 99 LINE",
"89 -93 LINE",
"180 -93 LINE",
"166 -1 LINE",
"531 -1 LINE",
"505 -93 LINE",
"601 -93 LINE",
"645 99 LINE",
"559 99 LINE",
"549 479 LINE"
);
},
{
closed = 1;
nodes = (
"283 224 LINE",
"304 479 LINE",
"439 479 LINE",
"453 99 LINE",
"221 99 LINE"
);
}
);
width = 692;
}
);
note = uni0434;
unicode = 0434;
},
{
glyphname = "ie-cy";
lastChange = "2019-08-11 00:14:35 +0000";
layers = (
{
layerId = "BA196CD0-EE58-4274-B8DF-4393D3617A29";
paths = (
{
closed = 1;
nodes = (
"566 291 LINE",
"158 291 LINE",
"159 190 OFFCURVE",
"211 154 QCURVE SMOOTH",
"249 126 OFFCURVE",
"351 121 QCURVE",
"487 121 OFFCURVE",
"549 154 QCURVE",
"551 40 LINE",
"454 -2 OFFCURVE",
"348 -2 QCURVE",
"214 3 OFFCURVE",
"141 68 QCURVE SMOOTH",
"64 136 OFFCURVE",
"64 263 QCURVE",
"69 399 OFFCURVE",
"139 476 QCURVE SMOOTH",
"211 555 OFFCURVE",
"333 555 QCURVE",
"444 550 OFFCURVE",
"500 496 QCURVE SMOOTH",
"557 441 OFFCURVE",
"566 325 QCURVE"
);
},
{
closed = 1;
nodes = (
"488 370 LINE",
"480 422 OFFCURVE",
"440 462 QCURVE SMOOTH",
"395 508 OFFCURVE",
"333 508 QCURVE SMOOTH",
"262 508 OFFCURVE",
"213 463 QCURVE SMOOTH",
"168 422 OFFCURVE",
"168 369 QCURVE"
);
}
);
width = 639;
}
);
note = uni0435;
unicode = 0435;
},
{
glyphname = "io-cy";
lastChange = "2019-08-11 00:14:35 +0000";
layers = (
{
layerId = "BA196CD0-EE58-4274-B8DF-4393D3617A29";
paths = (
{
closed = 1;
nodes = (
"535 633 LINE",
"445 633 LINE",
"450 730 LINE",
"530 730 LINE"
);
},
{
closed = 1;
nodes = (
"220 633 LINE",
"130 633 LINE",
"135 730 LINE",
"215 730 LINE"
);
},
{
closed = 1;
nodes = (
"566 296 LINE",
"158 296 LINE",
"159 196 OFFCURVE",
"211 162 QCURVE SMOOTH",
"247 137 OFFCURVE",
"351 132 QCURVE",
"487 132 OFFCURVE",
"549 165 QCURVE",
"551 41 LINE",
"454 -1 OFFCURVE",
"348 -1 QCURVE",
"215 4 OFFCURVE",
"141 71 QCURVE SMOOTH",
"64 141 OFFCURVE",
"64 268 QCURVE",
"69 403 OFFCURVE",
"139 478 QCURVE SMOOTH",
"210 553 OFFCURVE",
"333 553 QCURVE",
"445 548 OFFCURVE",
"500 498 QCURVE SMOOTH",
"557 445 OFFCURVE",
"566 330 QCURVE"
);
},
{
closed = 1;
nodes = (
"488 375 LINE",
"480 426 OFFCURVE",
"440 463 QCURVE SMOOTH",
"395 506 OFFCURVE",
"333 506 QCURVE SMOOTH",
"261 506 OFFCURVE",
"213 465 QCURVE SMOOTH",
"168 426 OFFCURVE",
"168 374 QCURVE"
);
}
);
width = 632;
}
);
note = uni0451;
unicode = 0451;
},
{
glyphname = "zhe-cy";
lastChange = "2019-08-11 00:14:35 +0000";
layers = (
{
layerId = "BA196CD0-EE58-4274-B8DF-4393D3617A29";
paths = (
{
closed = 1;
nodes = (
"43 -3 LINE",
"262 254 LINE",
"59 550 LINE",
"158 550 LINE",
"320 318 LINE",
"325 550 LINE",
"378 550 LINE",
"393 316 LINE",
"560 551 LINE",
"659 551 LINE",
"449 256 LINE",
"660 -3 LINE",
"525 -3 LINE",
"393 188 LINE",
"394 -3 LINE",
"310 -3 LINE",
"312 189 LINE",
"177 -4 LINE"
);
}
);
width = 693;
}
);
note = uni0436;
unicode = 0436;
},
{
glyphname = "ze-cy";
lastChange = "2019-08-11 00:14:35 +0000";
layers = (
{
layerId = "BA196CD0-EE58-4274-B8DF-4393D3617A29";
paths = (
{
closed = 1;
nodes = (
"409 292 OFFCURVE",
"444 256 QCURVE SMOOTH",
"478 222 OFFCURVE",
"478 169 QCURVE SMOOTH",
"478 -5 OFFCURVE",
"235 -5 QCURVE SMOOTH",
"149 -5 OFFCURVE",
"61 22 QCURVE",
"61 136 LINE",
"149 91 OFFCURVE",
"238 91 QCURVE SMOOTH",
"291 91 OFFCURVE",
"334 122 QCURVE SMOOTH",
"370 149 OFFCURVE",
"370 180 QCURVE SMOOTH",
"370 218 OFFCURVE",
"338 243 QCURVE SMOOTH",
"304 269 OFFCURVE",
"248 270 QCURVE SMOOTH",
"146 273 LINE",
"139 329 LINE",
"252 330 LINE SMOOTH",
"354 332 OFFCURVE",
"354 404 QCURVE SMOOTH",
"354 488 OFFCURVE",
"253 488 QCURVE SMOOTH",
"165 488 OFFCURVE",
"82 429 QCURVE",
"80 530 LINE",
"174 553 OFFCURVE",
"256 553 QCURVE SMOOTH",
"352 553 OFFCURVE",
"408 515 QCURVE SMOOTH",
"463 478 OFFCURVE",
"463 414 QCURVE SMOOTH",
"463 321 OFFCURVE",
"350 296 QCURVE"
);
}
);
width = 536;
}
);
note = uni0437;
unicode = 0437;
},
{
glyphname = "ii-cy";
lastChange = "2019-08-11 00:14:35 +0000";
layers = (
{
layerId = "BA196CD0-EE58-4274-B8DF-4393D3617A29";
paths = (
{
closed = 1;
nodes = (
"469 0 LINE",
"582 0 LINE",
"564 543 LINE",
"452 543 LINE",
"167 106 LINE",
"154 554 LINE",
"71 554 LINE",
"71 0 LINE",
"201 0 LINE",
"495 464 LINE"
);
}
);
width = 656;
}
);
note = uni0438;
unicode = 0438;
},
{
glyphname = "iishort-cy";
lastChange = "2019-08-11 00:14:35 +0000";
layers = (
{
layerId = "BA196CD0-EE58-4274-B8DF-4393D3617A29";
paths = (
{
closed = 1;
nodes = (
"302 700 LINE",
"163 738 LINE",
"163 692 LINE",
"302 606 LINE",
"445 692 LINE",
"445 738 LINE"
);
},
{
closed = 1;
nodes = (
"469 0 LINE",
"582 0 LINE",
"564 543 LINE",
"452 543 LINE",
"167 106 LINE",
"154 554 LINE",
"71 554 LINE",
"71 0 LINE",
"201 0 LINE",
"495 464 LINE"
);
}
);
width = 661;
}
);
note = uni0439;
unicode = 0439;
},
{
glyphname = "ka-cy";
lastChange = "2019-08-11 00:14:35 +0000";
layers = (
{
layerId = "BA196CD0-EE58-4274-B8DF-4393D3617A29";
paths = (
{
closed = 1;
nodes = (
"196 0 LINE",
"73 0 LINE",
"87 550 LINE",
"185 550 LINE",
"182 330 LINE",
"432 550 LINE",
"559 550 LINE",
"274 298 LINE",
"585 0 LINE",
"396 0 LINE",
"187 260 LINE"
);
}
);
width = 637;
}
);
note = uni043A;
unicode = 043A;
},
{
glyphname = "el-cy";
lastChange = "2019-08-11 00:14:35 +0000";
layers = (
{
layerId = "BA196CD0-EE58-4274-B8DF-4393D3617A29";
paths = (
{
closed = 1;
nodes = (
"624 0 LINE",
"382 548 LINE",
"295 548 LINE",
"56 0 LINE",
"195 0 LINE",
"340 459 LINE",
"495 0 LINE"
);
}
);
width = 692;
}
);
note = uni043B;
unicode = 043B;
},
{
glyphname = "em-cy";
lastChange = "2019-08-11 00:14:35 +0000";
layers = (
{
layerId = "BA196CD0-EE58-4274-B8DF-4393D3617A29";
paths = (
{
closed = 1;
nodes = (
"180 0 LINE",
"73 0 LINE",
"86 550 LINE",
"212 550 LINE",
"366 225 LINE",
"530 550 LINE",
"648 550 LINE",
"660 0 LINE",
"553 0 LINE",
"570 482 LINE",
"418 88 LINE",
"316 88 LINE",
"164 482 LINE"
);
}
);
width = 753;
}
);
note = uni043C;
unicode = 043C;
},
{
glyphname = "en-cy";
lastChange = "2019-08-11 00:14:35 +0000";
layers = (
{
layerId = "BA196CD0-EE58-4274-B8DF-4393D3617A29";
paths = (
{
closed = 1;
nodes = (
"183 0 LINE",
"67 0 LINE",
"82 548 LINE",
"173 548 LINE",
"179 290 LINE",
"472 290 LINE",
"480 548 LINE",
"569 548 LINE",
"579 0 LINE",
"465 0 LINE",
"472 186 LINE",
"179 186 LINE"
);
}
);
width = 654;
}
);
note = uni043D;
unicode = 043D;
},
{
glyphname = "o-cy";
lastChange = "2019-08-11 00:14:35 +0000";
layers = (
{
layerId = "BA196CD0-EE58-4274-B8DF-4393D3617A29";
paths = (
{
closed = 1;
nodes = (
"441 560 OFFCURVE",
"508 484 QCURVE SMOOTH",
"575 408 OFFCURVE",
"575 273 QCURVE SMOOTH",
"575 139 OFFCURVE",
"508 62 QCURVE SMOOTH",
"441 -14 OFFCURVE",
"324 -14 QCURVE SMOOTH",
"206 -14 OFFCURVE",
"140 62 QCURVE SMOOTH",
"73 139 OFFCURVE",
"73 273 QCURVE SMOOTH",
"73 408 OFFCURVE",
"140 484 QCURVE SMOOTH",
"206 560 OFFCURVE",
"324 560 QCURVE SMOOTH"
);
},
{
closed = 1;
nodes = (
"252 494 OFFCURVE",
"210 439 QCURVE SMOOTH",
"168 384 OFFCURVE",
"168 289 QCURVE SMOOTH",
"168 200 OFFCURVE",
"210 167 QCURVE SMOOTH",
"243 141 OFFCURVE",
"324 141 QCURVE SMOOTH",
"404 141 OFFCURVE",
"438 167 QCURVE SMOOTH",
"480 200 OFFCURVE",
"480 289 QCURVE SMOOTH",
"480 383 OFFCURVE",
"438 438 QCURVE SMOOTH",
"396 494 OFFCURVE",
"324 494 QCURVE SMOOTH"
);
}
);
width = 648;
}
);
note = uni043E;
unicode = 043E;
},
{
glyphname = "pe-cy";
lastChange = "2019-08-11 00:14:35 +0000";
layers = (
{
layerId = "BA196CD0-EE58-4274-B8DF-4393D3617A29";
paths = (
{
closed = 1;
nodes = (
"456 0 LINE",
"576 0 LINE",
"565 486 LINE",
"469 486 LINE"
);
},
{
closed = 1;
nodes = (
"565 547 LINE",
"73 550 LINE",
"74 0 LINE",
"187 0 LINE",
"177 486 LINE",
"565 486 LINE"
);
}
);
width = 649;
}
);
note = uni043F;
unicode = 043F;
},
{
glyphname = "er-cy";
lastChange = "2019-08-11 00:14:35 +0000";
layers = (
{
layerId = "BA196CD0-EE58-4274-B8DF-4393D3617A29";
paths = (
{
closed = 1;
nodes = (
"159 -208 LINE",
"59 -208 LINE",
"80 127 LINE",
"88 539 LINE",
"178 539 LINE",
"163 464 LINE",
"218 560 OFFCURVE",
"338 560 QCURVE SMOOTH",
"438 560 OFFCURVE",
"500 481 QCURVE SMOOTH",
"562 402 OFFCURVE",
"562 273 QCURVE SMOOTH",
"562 144 OFFCURVE",
"500 65 QCURVE SMOOTH",
"438 -14 OFFCURVE",
"338 -14 QCURVE SMOOTH",
"218 -14 OFFCURVE",
"163 82 QCURVE"
);
},
{
closed = 1;
nodes = (
"504 388 OFFCURVE",
"464 444 QCURVE SMOOTH",
"423 500 OFFCURVE",
"351 500 QCURVE SMOOTH",
"280 500 OFFCURVE",
"239 444 QCURVE SMOOTH",
"199 388 OFFCURVE",
"199 289 QCURVE SMOOTH",
"199 196 OFFCURVE",
"242 162 QCURVE SMOOTH",
"276 134 OFFCURVE",
"356 134 QCURVE SMOOTH",
"434 134 OFFCURVE",
"466 162 QCURVE SMOOTH",
"504 195 OFFCURVE",
"504 289 QCURVE SMOOTH"
);
}
);
width = 628;
}
);
note = uni0440;
unicode = 0440;
},
{
glyphname = "es-cy";
lastChange = "2019-08-11 00:14:35 +0000";
layers = (
{
layerId = "BA196CD0-EE58-4274-B8DF-4393D3617A29";
paths = (
{
closed = 1;
nodes = (
"506 447 LINE",
"430 489 OFFCURVE",
"352 489 QCURVE SMOOTH",
"265 489 OFFCURVE",
"219 431 QCURVE SMOOTH",
"173 374 OFFCURVE",
"173 273 QCURVE",
"180 204 OFFCURVE",
"220 174 QCURVE SMOOTH",
"259 146 OFFCURVE",
"348 141 QCURVE",
"466 141 OFFCURVE",
"504 162 QCURVE",
"506 21 LINE",
"430 -14 OFFCURVE",
"342 -14 QCURVE SMOOTH",
"219 -14 OFFCURVE",
"146 64 QCURVE SMOOTH",
"73 141 OFFCURVE",
"73 273 QCURVE SMOOTH",
"73 406 OFFCURVE",
"147 483 QCURVE SMOOTH",
"220 560 OFFCURVE",
"348 560 QCURVE SMOOTH",
"434 560 OFFCURVE",
"506 526 QCURVE"
);
}
);
width = 579;
}
);
note = uni0441;
unicode = 0441;
},
{
glyphname = "te-cy";
lastChange = "2019-08-11 00:14:35 +0000";
layers = (
{
layerId = "BA196CD0-EE58-4274-B8DF-4393D3617A29";
paths = (
{
closed = 1;
nodes = (
"277 495 LINE",
"57 469 LINE",
"57 552 LINE",
"581 552 LINE",
"581 469 LINE",
"361 495 LINE",
"384 0 LINE",
"255 0 LINE"
);
}
);
width = 650;
}
);
note = uni0442;
unicode = 0442;
},
{
glyphname = "u-cy";
lastChange = "2019-08-11 00:14:35 +0000";
layers = (
{
layerId = "BA196CD0-EE58-4274-B8DF-4393D3617A29";
paths = (
{
closed = 1;
nodes = (
"81 4 LINE",
"168 -64 OFFCURVE",
"231 -58 QCURVE SMOOTH",
"276 -54 OFFCURVE",
"301 -5 QCURVE",
"314 1 LINE",
"58 550 LINE",
"164 550 LINE",
"367 157 LINE",
"497 550 LINE",
"596 550 LINE",
"435 90 LINE",
"388 -62 LINE",
"346 -167 OFFCURVE",
"289 -187 QCURVE SMOOTH",
"223 -210 OFFCURVE",
"90 -173 QCURVE"
);
}
);
width = 660;
}
);
note = uni0443;
unicode = 0443;
},
{
glyphname = "ef-cy";
lastChange = "2019-08-11 00:14:35 +0000";
layers = (
{
layerId = "BA196CD0-EE58-4274-B8DF-4393D3617A29";
paths = (
{
closed = 1;
nodes = (
"361 444 LINE",
"289 445 LINE SMOOTH",
"219 446 OFFCURVE",
"176 401 QCURVE SMOOTH",
"136 361 OFFCURVE",
"135 302 QCURVE SMOOTH",
"133 242 OFFCURVE",
"172 201 QCURVE SMOOTH",
"216 155 OFFCURVE",
"294 154 QCURVE",
"331 150 OFFCURVE",
"357 153 QCURVE"
);
},
{
closed = 1;
nodes = (
"361 518 LINE",
"380 576 LINE",
"446 576 LINE",
"467 518 LINE",
"533 520 LINE SMOOTH",
"778 521 OFFCURVE",
"778 267 QCURVE SMOOTH",
"778 141 OFFCURVE",
"716 73 QCURVE SMOOTH",
"652 4 OFFCURVE",
"530 4 QCURVE SMOOTH",
"475 4 LINE",
"484 -202 LINE",
"348 -202 LINE",
"357 4 LINE",
"314 4 LINE SMOOTH",
"192 4 OFFCURVE",
"129 73 QCURVE SMOOTH",
"66 141 OFFCURVE",
"66 267 QCURVE SMOOTH",
"66 517 OFFCURVE",
"314 517 QCURVE SMOOTH"
);
},
{
closed = 1;
nodes = (
"471 444 LINE",
"475 154 LINE",
"540 154 LINE SMOOTH",
"694 154 OFFCURVE",
"694 311 QCURVE SMOOTH",
"694 444 OFFCURVE",
"540 444 QCURVE SMOOTH"
);
}
);
width = 840;
}
);
note = uni0444;
unicode = 0444;
},
{
glyphname = "ha-cy";
lastChange = "2019-08-11 00:14:35 +0000";
layers = (
{
layerId = "BA196CD0-EE58-4274-B8DF-4393D3617A29";
paths = (
{
closed = 1;
nodes = (
"324 323 LINE",
"489 547 LINE",
"580 547 LINE",
"387 256 LINE",
"600 0 LINE",
"455 0 LINE",
"330 190 LINE",
"195 0 LINE",
"50 0 LINE",
"268 262 LINE",
"78 547 LINE",
"174 547 LINE"
);
}
);
width = 661;
}
);
note = uni0445;
unicode = 0445;
},
{
glyphname = "che-cy";
lastChange = "2019-08-11 00:14:35 +0000";
layers = (
{
layerId = "BA196CD0-EE58-4274-B8DF-4393D3617A29";
paths = (
{
closed = 1;
nodes = (
"84 550 LINE",
"173 550 LINE",
"174 371 LINE",
"170 287 OFFCURVE",
"208 254 QCURVE SMOOTH",
"235 231 OFFCURVE",
"291 231 QCURVE SMOOTH",
"362 231 OFFCURVE",
"400 269 QCURVE SMOOTH",
"441 310 OFFCURVE",
"438 388 QCURVE",
"439 550 LINE",
"528 550 LINE",
"542 0 LINE",
"430 0 LINE",
"436 221 LINE",
"383 119 OFFCURVE",
"267 119 QCURVE SMOOTH",
"84 119 OFFCURVE",
"84 368 QCURVE SMOOTH"
);
}
);
width = 622;
}
);
note = uni0447;
unicode = 0447;
},
{
glyphname = "tse-cy";
lastChange = "2019-08-11 00:14:35 +0000";
layers = (
{
layerId = "BA196CD0-EE58-4274-B8DF-4393D3617A29";
paths = (
{
closed = 1;
nodes = (
"88 0 LINE",
"508 0 LINE",
"481 -126 LINE",
"586 -126 LINE",
"621 107 LINE",
"539 105 LINE",
"534 549 LINE",
"438 549 LINE",
"456 102 LINE",
"169 100 LINE",
"176 548 LINE",
"68 548 LINE",
"86 100 LINE"
);
}
);
width = 666;
}
);
note = uni0446;
unicode = 0446;
},
{
glyphname = "sha-cy";
lastChange = "2019-08-11 00:14:35 +0000";
layers = (
{
layerId = "BA196CD0-EE58-4274-B8DF-4393D3617A29";
paths = (
{
closed = 1;
nodes = (
"72 552 LINE",
"77 0 LINE",
"722 0 LINE",
"717 552 LINE",
"621 552 LINE",
"639 99 LINE",
"460 100 LINE",
"467 528 LINE",
"359 528 LINE",
"377 100 LINE",
"175 98 LINE",
"184 552 LINE"
);
}
);
width = 804;
}
);
note = uni0448;
unicode = 0448;
},
{
glyphname = "shcha-cy";
lastChange = "2019-08-11 00:14:35 +0000";
layers = (
{
layerId = "BA196CD0-EE58-4274-B8DF-4393D3617A29";
paths = (
{
closed = 1;
nodes = (
"67 552 LINE",
"72 0 LINE",
"675 0 LINE",
"642 -166 LINE",
"764 -166 LINE",
"799 104 LINE",
"716 102 LINE",
"712 552 LINE",
"616 552 LINE",
"634 99 LINE",
"455 100 LINE",
"462 528 LINE",
"354 528 LINE",
"372 100 LINE",
"170 98 LINE",
"179 552 LINE"
);
}
);
width = 832;
}
);
note = uni0449;
unicode = 0449;
},
{
glyphname = "softsign-cy";
lastChange = "2019-08-11 00:14:35 +0000";
layers = (
{
layerId = "BA196CD0-EE58-4274-B8DF-4393D3617A29";
paths = (
{
closed = 1;
nodes = (
"192 554 LINE",
"117 554 LINE",
"107 0 LINE",
"316 0 LINE SMOOTH",
"554 0 OFFCURVE",
"554 166 QCURVE SMOOTH",
"554 339 OFFCURVE",
"316 339 QCURVE SMOOTH",
"202 339 LINE"
);
},
{
closed = 1;
nodes = (
"206 98 LINE",
"197 281 LINE",
"326 282 LINE SMOOTH",
"473 286 OFFCURVE",
"473 195 QCURVE SMOOTH",
"473 151 OFFCURVE",
"435 125 QCURVE SMOOTH",
"395 98 OFFCURVE",
"326 98 QCURVE SMOOTH"
);
}
);
width = 626;
}
);
note = uni044C;
unicode = 044C;
},
{
glyphname = "hardsign-cy";
lastChange = "2019-08-11 00:14:35 +0000";
layers = (
{
layerId = "BA196CD0-EE58-4274-B8DF-4393D3617A29";
paths = (
{
closed = 1;
nodes = (
"257 547 LINE",
"44 548 LINE",
"18 455 LINE",
"166 457 LINE",
"175 0 LINE",
"378 0 LINE SMOOTH",
"609 0 OFFCURVE",
"609 164 QCURVE SMOOTH",
"609 335 OFFCURVE",
"378 335 QCURVE SMOOTH",
"266 335 LINE"
);
},
{
closed = 1;
nodes = (
"271 97 LINE",
"267 282 LINE",
"387 282 LINE SMOOTH",
"455 282 OFFCURVE",
"493 256 QCURVE SMOOTH",
"531 230 OFFCURVE",
"531 185 QCURVE SMOOTH",
"531 145 OFFCURVE",
"493 121 QCURVE SMOOTH",
"454 97 OFFCURVE",
"387 97 QCURVE SMOOTH"
);
}
);
width = 666;
}
);
note = uni044A;
unicode = 044A;
},
{
glyphname = "yeru-cy";
lastChange = "2019-08-11 00:14:35 +0000";
layers = (
{
layerId = "BA196CD0-EE58-4274-B8DF-4393D3617A29";
paths = (
{
closed = 1;
nodes = (
"599 0 LINE",
"605 91 OFFCURVE",
"617 547 QCURVE",
"695 547 LINE",
"702 91 OFFCURVE",
"708 0 QCURVE"
);
},
{
closed = 1;
nodes = (
"161 547 LINE",
"52 547 LINE",
"80 0 LINE",
"280 0 LINE SMOOTH",
"510 0 OFFCURVE",
"510 164 QCURVE SMOOTH",
"510 335 OFFCURVE",
"280 335 QCURVE SMOOTH",
"170 335 LINE"
);
},
{
closed = 1;
nodes = (
"175 97 LINE",
"166 282 LINE",
"290 282 LINE SMOOTH",
"356 282 OFFCURVE",
"395 257 QCURVE SMOOTH",
"432 233 OFFCURVE",
"432 193 QCURVE SMOOTH",
"432 151 OFFCURVE",
"395 125 QCURVE SMOOTH",
"356 97 OFFCURVE",
"290 97 QCURVE SMOOTH"
);
}
);
width = 747;
}
);
note = uni044B;
unicode = 044B;
},
{
glyphname = "ereversed-cy";
lastChange = "2019-08-11 00:14:35 +0000";
layers = (
{
layerId = "BA196CD0-EE58-4274-B8DF-4393D3617A29";
paths = (
{
closed = 1;
nodes = (
"427 179 OFFCURVE",
"387 147 QCURVE SMOOTH",
"336 106 OFFCURVE",
"251 106 QCURVE SMOOTH",
"146 106 OFFCURVE",
"65 172 QCURVE",
"65 50 LINE",
"149 0 OFFCURVE",
"256 0 QCURVE SMOOTH",
"391 0 OFFCURVE",
"470 77 QCURVE SMOOTH",
"548 153 OFFCURVE",
"548 279 QCURVE SMOOTH",
"548 404 OFFCURVE",
"470 476 QCURVE SMOOTH",
"392 549 OFFCURVE",
"256 549 QCURVE SMOOTH",
"149 549 OFFCURVE",
"65 499 QCURVE",
"65 425 LINE",
"145 491 OFFCURVE",
"251 491 QCURVE SMOOTH",
"334 491 OFFCURVE",
"388 437 QCURVE SMOOTH",
"431 394 OFFCURVE",
"443 317 QCURVE",
"221 317 LINE",
"221 248 LINE",
"441 249 LINE"
);
}
);
width = 605;
}
);
note = uni044D;
unicode = 044D;
},
{
glyphname = "iu-cy";
lastChange = "2019-08-11 00:14:35 +0000";
layers = (
{
layerId = "BA196CD0-EE58-4274-B8DF-4393D3617A29";
paths = (
{
closed = 1;
nodes = (
"422 498 OFFCURVE",
"376 436 QCURVE SMOOTH",
"331 375 OFFCURVE",
"331 270 QCURVE SMOOTH",
"331 191 OFFCURVE",
"383 147 QCURVE SMOOTH",
"431 107 OFFCURVE",
"505 107 QCURVE SMOOTH",
"583 107 OFFCURVE",
"627 147 QCURVE SMOOTH",
"673 189 OFFCURVE",
"673 270 QCURVE SMOOTH",
"673 498 OFFCURVE",
"506 498 QCURVE SMOOTH"
);
},
{
closed = 1;
nodes = (
"163 229 LINE",
"158 -3 LINE",
"81 -3 LINE",
"74 548 LINE",
"174 548 LINE",
"165 303 LINE",
"244 298 LINE",
"265 551 OFFCURVE",
"506 551 QCURVE SMOOTH",
"759 551 OFFCURVE",
"759 270 QCURVE SMOOTH",
"759 -4 OFFCURVE",
"506 -4 QCURVE SMOOTH",
"249 -4 OFFCURVE",
"242 236 QCURVE"
);
}
);
width = 834;
}
);
note = uni044E;
unicode = 044E;
},
{
glyphname = "ia-cy";
lastChange = "2019-08-11 00:14:35 +0000";
layers = (
{
layerId = "BA196CD0-EE58-4274-B8DF-4393D3617A29";
paths = (
{
closed = 1;
nodes = (
"188 241 OFFCURVE",
"138 149 QCURVE SMOOTH",
"56 0 LINE",
"170 0 LINE",
"230 140 LINE",
"259 194 OFFCURVE",
"287 213 QCURVE SMOOTH",
"314 231 OFFCURVE",
"362 231 QCURVE SMOOTH",
"423 231 LINE",
"423 0 LINE",
"519 0 LINE",
"519 547 LINE",
"337 547 LINE SMOOTH",
"147 547 OFFCURVE",
"147 389 QCURVE SMOOTH",
"147 284 OFFCURVE",
"237 257 QCURVE"
);
},
{
closed = 1;
nodes = (
"430 508 LINE",
"430 307 LINE",
"329 307 LINE SMOOTH",
"282 307 OFFCURVE",
"244 331 QCURVE SMOOTH",
"204 357 OFFCURVE",
"204 389 QCURVE SMOOTH",
"204 508 OFFCURVE",
"329 508 QCURVE SMOOTH"
);
}
);
width = 604;
}
);
note = uni044F;
unicode = 044F;
},
{
glyphname = Gamma;
lastChange = "2019-08-09 18:04:52 +0000";
layers = (
{
layerId = "BA196CD0-EE58-4274-B8DF-4393D3617A29";
paths = (
{
closed = 1;
nodes = (
"197 -44 LINE",
"158 745 LINE",
"88 745 LINE",
"86 -44 LINE"
);
},
{
closed = 1;
nodes = (
"496 647 LINE",
"496 746 LINE",
"91 746 LINE",
"91 646 LINE"
);
}
);
width = 600;
}
);
unicode = 0393;
},
{
glyphname = Delta;
lastChange = "2019-08-09 18:02:00 +0000";
layers = (
{
layerId = "BA196CD0-EE58-4274-B8DF-4393D3617A29";
paths = (
{
closed = 1;
nodes = (
"-54 89 LINE",
"-54 -10 LINE",
"646 -10 LINE",
"646 89 LINE"
);
},
{
closed = 1;
nodes = (
"-54 89 LINE",
"48 -10 LINE",
"347 708 LINE",
"241 715 LINE"
);
},
{
closed = 1;
nodes = (
"537 -10 LINE",
"646 89 LINE",
"347 711 LINE",
"241 715 LINE"
);
}
);
width = 600;
}
);
unicode = 0394;
},
{
glyphname = Xi;
lastChange = "2019-08-09 18:04:17 +0000";
layers = (
{
layerId = "BA196CD0-EE58-4274-B8DF-4393D3617A29";
paths = (
{
closed = 1;
nodes = (
"34 629 LINE",
"562 629 LINE",
"562 709 LINE",
"34 709 LINE"
);
},
{
closed = 1;
nodes = (
"125 285 LINE",
"470 285 LINE",
"470 365 LINE",
"125 365 LINE"
);
},
{
closed = 1;
nodes = (
"-4 0 LINE",
"599 0 LINE",
"599 108 LINE",
"-4 108 LINE"
);
}
);
width = 600;
}
);
unicode = 039E;
},
{
glyphname = Pi;
lastChange = "2019-08-09 18:03:19 +0000";
layers = (
{
layerId = "BA196CD0-EE58-4274-B8DF-4393D3617A29";
paths = (
{
closed = 1;
nodes = (
"27 0 LINE",
"114 0 LINE",
"114 700 LINE",
"27 700 LINE"
);
},
{
closed = 1;
nodes = (
"38 638 LINE",
"473 638 LINE",
"473 700 LINE",
"38 700 LINE"
);
},
{
closed = 1;
nodes = (
"404 0 LINE",
"491 0 LINE",
"491 700 LINE",
"404 700 LINE"
);
}
);
width = 600;
}
);
unicode = 03A0;
},
{
glyphname = Psi;
lastChange = "2019-08-09 17:58:01 +0000";
layers = (
{
components = (
{
name = bar;
transform = "{1, 0, 0, 1, 11, 72}";
}
);
layerId = "BA196CD0-EE58-4274-B8DF-4393D3617A29";
paths = (
{
closed = 1;
nodes = (
"-23 502 OFFCURVE",
"-22 290 OFFCURVE",
"298 284 CURVE",
"601 291 OFFCURVE",
"608 504 OFFCURVE",
"619 779 CURVE",
"530 779 LINE",
"553 580 OFFCURVE",
"473 392 OFFCURVE",
"287 392 CURVE SMOOTH",
"105 392 OFFCURVE",
"18 574 OFFCURVE",
"63 779 CURVE",
"-33 779 LINE"
);
}
);
width = 600;
}
);
unicode = 03A8;
},
{
glyphname = Omega;
lastChange = "2019-08-09 17:46:24 +0000";
layers = (
{
anchors = (
{
name = _greek_top;
position = "{35, 678}";
},
{
name = bottom;
position = "{411, -33}";
},
{
name = center;
position = "{413, 350}";
},
{
name = horn;
position = "{684, 547}";
},
{
name = ogonek;
position = "{743, 10}";
},
{
name = top;
position = "{413, 729}";
},
{
name = topleft;
position = "{35, 648}";
},
{
name = topright;
position = "{805, 700}";
}
);
layerId = "BA196CD0-EE58-4274-B8DF-4393D3617A29";
paths = (
{
closed = 1;
nodes = (
"556 672 OFFCURVE",
"646 548 OFFCURVE",
"646 364 CURVE SMOOTH",
"646 264 OFFCURVE",
"586 148 OFFCURVE",
"484 116 CURVE",
"477 63 OFFCURVE",
"473 30 OFFCURVE",
"473 -12 CURVE",
"333 -12 LINE",
"333 30 OFFCURVE",
"332 49 OFFCURVE",
"324 111 CURVE",
"219 101 OFFCURVE",
"179 264 OFFCURVE",
"179 364 CURVE SMOOTH",
"179 548 OFFCURVE",
"270 672 OFFCURVE",
"413 672 CURVE SMOOTH"
);
},
{
closed = 1;
nodes = (
"208 742 OFFCURVE",
"75 594 OFFCURVE",
"75 364 CURVE SMOOTH",
"75 179 OFFCURVE",
"151 144 OFFCURVE",
"190 102 CURVE",
"138 96 OFFCURVE",
"93 90 OFFCURVE",
"57 83 CURVE",
"57 55 OFFCURVE",
"57 24 OFFCURVE",
"57 -12 CURVE",
"81 -13 OFFCURVE",
"113 -12 OFFCURVE",
"155 -12 CURVE SMOOTH",
"637 -12 LINE SMOOTH",
"675 -12 OFFCURVE",
"736 -16 OFFCURVE",
"755 -12 CURVE",
"755 29 OFFCURVE",
"755 42 OFFCURVE",
"755 83 CURVE",
"718 88 OFFCURVE",
"712 88 OFFCURVE",
"622 102 CURVE",
"686 144 OFFCURVE",
"750 176 OFFCURVE",
"750 364 CURVE SMOOTH",
"750 594 OFFCURVE",
"618 742 OFFCURVE",
"413 742 CURVE SMOOTH"
);
}
);
width = 825;
}
);
unicode = 03A9;
},
{
glyphname = KaiSymbol;
lastChange = "2019-08-11 00:01:52 +0000";
layers = (
{
anchors = (
{
name = _bottom;
position = "{365, 0}";
},
{
name = bottom;
position = "{365, -184}";
}
);
components = (
{
name = K;
}
);
layerId = "BA196CD0-EE58-4274-B8DF-4393D3617A29";
paths = (
{
closed = 1;
nodes = (
"650 -17 OFFCURVE",
"648 0 OFFCURVE",
"626 17 CURVE",
"445 -232 OFFCURVE",
"328 -200 OFFCURVE",
"111 -108 CURVE",
"108 -117 OFFCURVE",
"114 -143 OFFCURVE",
"111 -159 CURVE",
"332 -270 OFFCURVE",
"526 -272 OFFCURVE",
"676 -26 CURVE"
);
}
);
width = 720;
}
);
unicode = 03CF;
},
{
glyphname = alpha;
lastChange = "2019-08-08 23:32:26 +0000";
layers = (
{
components = (
{
name = a;
}
);
layerId = "BA196CD0-EE58-4274-B8DF-4393D3617A29";
paths = (
{
closed = 1;
nodes = (
"396 -40 OFFCURVE",
"496 -17 OFFCURVE",
"666 3 CURVE",
"670 25 OFFCURVE",
"674 60 OFFCURVE",
"674 111 CURVE",
"559 60 OFFCURVE",
"527 86 OFFCURVE",
"503 167 CURVE"
);
}
);
width = 646;
}
);
unicode = 03B1;
},
{
glyphname = beta;
lastChange = "2019-08-08 01:00:06 +0000";
layers = (
{
anchors = (
{
name = bottom;
position = "{339, 0}";
},
{
name = top;
position = "{339, 700}";
}
);
layerId = "BA196CD0-EE58-4274-B8DF-4393D3617A29";
paths = (
{
closed = 1;
nodes = (
"76 -200 LINE",
"174 -200 LINE",
"174 574 LINE",
"76 574 LINE"
);
},
{
closed = 1;
nodes = (
"278 348 LINE",
"332 348 LINE SMOOTH",
"385 348 OFFCURVE",
"425 338 OFFCURVE",
"450 316 CURVE SMOOTH",
"476 293 OFFCURVE",
"493 268 OFFCURVE",
"493 248 CURVE SMOOTH",
"493 160 OFFCURVE",
"430 103 OFFCURVE",
"332 145 CURVE SMOOTH",
"174 212 LINE",
"174 574 LINE",
"174 574 LINE",
"243 747 OFFCURVE",
"463 612 OFFCURVE",
"463 538 CURVE SMOOTH",
"463 464 OFFCURVE",
"416 428 OFFCURVE",
"320 428 CURVE SMOOTH",
"278 428 LINE"
);
},
{
closed = 1;
nodes = (
"337 0 LINE SMOOTH",
"491 -66 OFFCURVE",
"602 0 OFFCURVE",
"602 204 CURVE SMOOTH",
"602 303 OFFCURVE",
"544 372 OFFCURVE",
"415 393 CURVE",
"495 406 OFFCURVE",
"538 459 OFFCURVE",
"538 549 CURVE SMOOTH",
"538 664 OFFCURVE",
"222 917 OFFCURVE",
"76 574 CURVE",
"76 574 LINE",
"75 113 LINE"
);
}
);
width = 677;
}
);
unicode = 03B2;
},
{
glyphname = gamma;
lastChange = "2019-08-08 23:26:56 +0000";
layers = (
{
anchors = (
{
name = bottom;
position = "{341, 0}";
},
{
name = top;
position = "{298, 547}";
}
);
layerId = "BA196CD0-EE58-4274-B8DF-4393D3617A29";
paths = (
{
closed = 1;
nodes = (
"430 -44 LINE",
"541 184 OFFCURVE",
"601 274 OFFCURVE",
"570 549 CURVE",
"469 549 LINE",
"498 358 OFFCURVE",
"450 188 OFFCURVE",
"382 146 CURVE",
"170 547 LINE",
"75 547 LINE",
"257 144 LINE",
"285 0 LINE"
);
},
{
closed = 1;
nodes = (
"325 -294 LINE",
"463 -275 LINE",
"413 82 LINE",
"275 63 LINE"
);
}
);
width = 682;
}
);
unicode = 03B3;
},
{
glyphname = delta;
lastChange = "2019-08-09 13:02:28 +0000";
layers = (
{
layerId = "BA196CD0-EE58-4274-B8DF-4393D3617A29";
paths = (
{
closed = 1;
nodes = (
"251 394 OFFCURVE",
"191 329 OFFCURVE",
"191 234 CURVE SMOOTH",
"191 168 OFFCURVE",
"247 116 OFFCURVE",
"335 116 CURVE SMOOTH",
"424 116 OFFCURVE",
"480 168 OFFCURVE",
"480 234 CURVE SMOOTH",
"480 329 OFFCURVE",
"426 394 OFFCURVE",
"335 394 CURVE SMOOTH"
);
},
{
closed = 1;
nodes = (
"65 119 OFFCURVE",
"65 247 CURVE SMOOTH",
"65 357 OFFCURVE",
"144 474 OFFCURVE",
"301 474 CURVE SMOOTH",
"314 474 OFFCURVE",
"327 474 OFFCURVE",
"341 472 CURVE",
"177 569 OFFCURVE",
"86 651 OFFCURVE",
"86 730 CURVE SMOOTH",
"86 797 OFFCURVE",
"166 840 OFFCURVE",
"309 840 CURVE SMOOTH",
"367 840 OFFCURVE",
"439 832 OFFCURVE",
"525 813 CURVE",
"525 722 LINE",
"406 744 OFFCURVE",
"384 750 OFFCURVE",
"336 758 CURVE SMOOTH",
"296 765 OFFCURVE",
"193 780 OFFCURVE",
"182 730 CURVE SMOOTH",
"171 679 OFFCURVE",
"260 633 OFFCURVE",
"309 597 CURVE SMOOTH",
"361 558 OFFCURVE",
"391 545 OFFCURVE",
"465 473 CURVE SMOOTH",
"564 377 OFFCURVE",
"596 314 OFFCURVE",
"596 239 CURVE SMOOTH",
"596 92 OFFCURVE",
"480 -14 OFFCURVE",
"335 -14 CURVE SMOOTH",
"155 -14 OFFCURVE"
);
}
);
width = 654;
}
);
unicode = 03B4;
},
{
glyphname = zeta;
lastChange = "2019-08-09 13:17:12 +0000";
layers = (
{
layerId = "BA196CD0-EE58-4274-B8DF-4393D3617A29";
paths = (
{
closed = 1;
nodes = (
"127 655 LINE",
"483 655 LINE",
"483 722 LINE",
"127 722 LINE"
);
},
{
closed = 1;
nodes = (
"247 -116 OFFCURVE",
"323 -111 OFFCURVE",
"365 -111 CURVE",
"483 -1 OFFCURVE",
"494 182 OFFCURVE",
"401 197 CURVE SMOOTH",
"140 238 OFFCURVE",
"158 295 OFFCURVE",
"172 358 CURVE SMOOTH",
"198 477 OFFCURVE",
"365 655 OFFCURVE",
"483 655 CURVE",
"483 682 OFFCURVE",
"483 688 OFFCURVE",
"483 722 CURVE",
"351 722 OFFCURVE",
"158 548 OFFCURVE",
"108 439 CURVE SMOOTH",
"82 382 OFFCURVE",
"30 279 OFFCURVE",
"137 201 CURVE SMOOTH",
"248 120 OFFCURVE",
"280 137 OFFCURVE",
"313 121 CURVE SMOOTH",
"401 78 OFFCURVE",
"272 -37 OFFCURVE",
"215 -111 CURVE"
);
}
);
width = 600;
}
);
unicode = 03B6;
},
{
glyphname = eta;
lastChange = "2019-08-09 16:57:19 +0000";
layers = (
{
anchors = (
{
name = bottom;
position = "{316, 0}";
},
{
name = top;
position = "{316, 547}";
}
);
layerId = "BA196CD0-EE58-4274-B8DF-4393D3617A29";
paths = (
{
closed = 1;
nodes = (
"555 497 OFFCURVE",
"484 555 OFFCURVE",
"359 555 CURVE SMOOTH",
"283 555 OFFCURVE",
"241 524 OFFCURVE",
"198 495 CURVE",
"178 565 LINE SMOOTH",
"174 578 OFFCURVE",
"136 611 OFFCURVE",
"98 611 CURVE SMOOTH",
"51 611 OFFCURVE",
"14 611 OFFCURVE",
"14 593 CURVE SMOOTH",
"14 547 LINE",
"37 547 OFFCURVE",
"106 559 OFFCURVE",
"102 484 CURVE SMOOTH",
"75 0 LINE",
"213 0 LINE",
"189 314 LINE SMOOTH",
"181 419 OFFCURVE",
"239 482 OFFCURVE",
"349 482 CURVE SMOOTH",
"429 482 OFFCURVE",
"481 439 OFFCURVE",
"476 339 CURVE SMOOTH",
"445 -241 LINE",
"584 -241 LINE",
"562 323 LINE SMOOTH"
);
}
);
width = 659;
}
);
unicode = 03B7;
},
{
glyphname = theta;
lastChange = "2019-08-08 01:00:46 +0000";
layers = (
{
layerId = "BA196CD0-EE58-4274-B8DF-4393D3617A29";
paths = (
{
closed = 1;
nodes = (
"432 703 OFFCURVE",
"485 614 OFFCURVE",
"485 435 CURVE",
"472 256 OFFCURVE",
"431 167 OFFCURVE",
"329 167 CURVE",
"228 167 OFFCURVE",
"179 250 OFFCURVE",
"179 435 CURVE SMOOTH",
"179 614 OFFCURVE",
"229 703 OFFCURVE",
"330 703 CURVE SMOOTH"
);
},
{
closed = 1;
nodes = (
"167 742 OFFCURVE",
"75 614 OFFCURVE",
"75 364 CURVE",
"75 118 OFFCURVE",
"166 -14 OFFCURVE",
"329 -14 CURVE SMOOTH",
"493 -14 OFFCURVE",
"579 118 OFFCURVE",
"579 364 CURVE",
"579 614 OFFCURVE",
"494 742 OFFCURVE",
"330 742 CURVE SMOOTH"
);
},
{
closed = 1;
nodes = (
"156 362 LINE",
"516 362 LINE",
"516 440 LINE",
"156 440 LINE"
);
}
);
width = 654;
}
);
unicode = 03B8;
},
{
glyphname = iota;
lastChange = "2019-08-08 23:16:05 +0000";
layers = (
{
components = (
{
name = idotless;
}
);
layerId = "BA196CD0-EE58-4274-B8DF-4393D3617A29";
paths = (
{
closed = 1;
nodes = (
"274 -121 LINE",
"274 -93 OFFCURVE",
"274 -107 OFFCURVE",
"274 -51 CURVE",
"240 -54 OFFCURVE",
"202 -58 OFFCURVE",
"196 4 CURVE",
"76 4 LINE",
"76 -28 LINE SMOOTH",
"76 -78 OFFCURVE",
"86 -121 OFFCURVE",
"140 -121 CURVE SMOOTH"
);
}
);
width = 666;
}
);
unicode = 03B9;
},
{
glyphname = nu;
lastChange = "2019-08-08 23:22:50 +0000";
layers = (
{
anchors = (
{
name = bottom;
position = "{372, 0}";
},
{
name = top;
position = "{372, 500}";
}
);
layerId = "BA196CD0-EE58-4274-B8DF-4393D3617A29";
paths = (
{
closed = 1;
nodes = (
"469 0 LINE",
"569 293 OFFCURVE",
"601 274 OFFCURVE",
"570 549 CURVE",
"469 549 LINE",
"498 358 OFFCURVE",
"450 188 OFFCURVE",
"382 146 CURVE",
"170 547 LINE",
"75 547 LINE",
"257 144 LINE",
"285 0 LINE"
);
}
);
width = 744;
}
);
unicode = 03BD;
},
{
glyphname = xi;
lastChange = "2019-08-09 13:24:07 +0000";
layers = (
{
layerId = "BA196CD0-EE58-4274-B8DF-4393D3617A29";
paths = (
{
closed = 1;
nodes = (
"127 655 LINE",
"483 655 LINE",
"483 722 LINE",
"127 722 LINE"
);
},
{
closed = 1;
nodes = (
"327 -116 OFFCURVE",
"403 -111 OFFCURVE",
"445 -111 CURVE",
"463 -85 OFFCURVE",
"525 -21 OFFCURVE",
"525 49 CURVE SMOOTH",
"525 98 OFFCURVE",
"488 196 OFFCURVE",
"389 196 CURVE SMOOTH",
"245 196 OFFCURVE",
"234 360 OFFCURVE",
"451 360 CURVE",
"451 417 OFFCURVE",
"457 374 OFFCURVE",
"451 417 CURVE",
"64 433 OFFCURVE",
"365 655 OFFCURVE",
"483 655 CURVE",
"483 682 OFFCURVE",
"483 688 OFFCURVE",
"483 722 CURVE",
"351 722 OFFCURVE",
"183 588 OFFCURVE",
"187 500 CURVE SMOOTH",
"190 436 OFFCURVE",
"185 453 OFFCURVE",
"261 365 CURVE",
"154 303 OFFCURVE",
"190 132 OFFCURVE",
"302 129 CURVE SMOOTH",
"543 123 OFFCURVE",
"376 -25 OFFCURVE",
"295 -111 CURVE"
);
}
);
width = 600;
}
);
unicode = 03BE;
},
{
glyphname = pi;
lastChange = "2019-08-09 12:50:49 +0000";
layers = (
{
layerId = "BA196CD0-EE58-4274-B8DF-4393D3617A29";
paths = (
{
closed = 1;
nodes = (
"15 430 LINE",
"572 430 LINE",
"572 504 LINE",
"15 504 LINE"
);
},
{
closed = 1;
nodes = (
"83 0 LINE",
"175 0 LINE",
"212 432 LINE",
"120 432 LINE"
);
},
{
closed = 1;
nodes = (
"336 117 LINE",
"427 117 LINE",
"471 477 LINE",
"380 477 LINE"
);
},
{
closed = 1;
nodes = (
"523 19 OFFCURVE",
"523 33 OFFCURVE",
"523 74 CURVE",
"474 74 OFFCURVE",
"420 65 OFFCURVE",
"427 120 CURVE SMOOTH",
"436 187 OFFCURVE",
"402 166 OFFCURVE",
"391 191 CURVE SMOOTH",
"380 216 OFFCURVE",
"344 164 OFFCURVE",
"336 117 CURVE SMOOTH",
"314 -12 OFFCURVE",
"338 -3 OFFCURVE",
"523 -3 CURVE"
);
}
);
width = 600;
}
);
unicode = 03C0;
},
{
glyphname = rho;
lastChange = "2019-08-09 12:52:31 +0000";
layers = (
{
anchors = (
{
name = bottom;
position = "{361, 0}";
},
{
name = top;
position = "{361, 500}";
},
{
name = top_hook;
position = "{183, 202}";
}
);
hints = (
{
place = "{141, 115}";
type = Stem;
},
{
horizontal = 1;
place = "{497, 63}";
type = Stem;
},
{
horizontal = 1;
place = "{-3, 140}";
type = Stem;
},
{
place = "{562, 63}";
type = Stem;
}
);
layerId = "BA196CD0-EE58-4274-B8DF-4393D3617A29";
paths = (
{
closed = 1;
nodes = (
"284 17 OFFCURVE",
"342 -14 OFFCURVE",
"422 -14 CURVE SMOOTH",
"555 -14 OFFCURVE",
"646 101 OFFCURVE",
"646 273 CURVE SMOOTH",
"646 438 OFFCURVE",
"555 553 OFFCURVE",
"422 553 CURVE SMOOTH",
"342 553 OFFCURVE",
"207 500 OFFCURVE",
"170 325 CURVE",
"155 237 LINE",
"75 -212 LINE",
"204 -204 LINE",
"247 82 LINE"
);
},
{
closed = 1;
nodes = (
"588 156 OFFCURVE",
"535 134 OFFCURVE",
"440 134 CURVE SMOOTH",
"345 134 OFFCURVE",
"283 156 OFFCURVE",
"283 289 CURVE SMOOTH",
"283 414 OFFCURVE",
"340 493 OFFCURVE",
"435 493 CURVE SMOOTH",
"531 493 OFFCURVE",
"588 414 OFFCURVE",
"588 289 CURVE SMOOTH"
);
}
);
width = 721;
}
);
unicode = 03C1;
},
{
glyphname = sigmafinal;
lastChange = "2019-08-09 13:07:28 +0000";
layers = (
{
layerId = "BA196CD0-EE58-4274-B8DF-4393D3617A29";
paths = (
{
closed = 1;
nodes = (
"378 85 OFFCURVE",
"378 122 OFFCURVE",
"378 167 CURVE SMOOTH",
"378 224 OFFCURVE",
"384 268 OFFCURVE",
"351 285 CURVE SMOOTH",
"197 365 OFFCURVE",
"192 446 OFFCURVE",
"203 517 CURVE SMOOTH",
"211 570 OFFCURVE",
"234 607 OFFCURVE",
"279 616 CURVE SMOOTH",
"346 630 OFFCURVE",
"384 637 OFFCURVE",
"433 575 CURVE",
"471 575 OFFCURVE",
"483 570 OFFCURVE",
"519 575 CURVE",
"470 690 OFFCURVE",
"331 694 OFFCURVE",
"267 679 CURVE SMOOTH",
"184 660 OFFCURVE",
"142 607 OFFCURVE",
"133 535 CURVE SMOOTH",
"118 413 OFFCURVE",
"142 329 OFFCURVE",
"265 239 CURVE",
"265 118 OFFCURVE",
"265 110 OFFCURVE",
"265 80 CURVE",
"265 73 OFFCURVE",
"337 58 OFFCURVE",
"378 51 CURVE"
);
}
);
width = 600;
}
);
unicode = 03C2;
},
{
glyphname = sigma;
lastChange = "2019-08-09 13:05:00 +0000";
layers = (
{
components = (
{
name = o;
}
);
layerId = "BA196CD0-EE58-4274-B8DF-4393D3617A29";
paths = (
{
closed = 1;
nodes = (
"326 485 LINE",
"649 485 LINE",
"649 549 LINE",
"326 549 LINE"
);
}
);
width = 652;
}
);
unicode = 03C3;
},
{
glyphname = tau;
lastChange = "2019-08-09 13:08:21 +0000";
layers = (
{
layerId = "BA196CD0-EE58-4274-B8DF-4393D3617A29";
paths = (
{
closed = 1;
nodes = (
"65 430 LINE",
"562 430 LINE",
"562 504 LINE",
"65 504 LINE"
);
},
{
closed = 1;
nodes = (
"246 117 LINE",
"337 117 LINE",
"381 477 LINE",
"290 477 LINE"
);
},
{
closed = 1;
nodes = (
"432 19 OFFCURVE",
"432 33 OFFCURVE",
"432 74 CURVE",
"383 73 OFFCURVE",
"329 65 OFFCURVE",
"336 120 CURVE SMOOTH",
"345 187 OFFCURVE",
"311 166 OFFCURVE",
"300 191 CURVE SMOOTH",
"289 216 OFFCURVE",
"253 164 OFFCURVE",
"245 117 CURVE SMOOTH",
"223 -12 OFFCURVE",
"247 -2 OFFCURVE",
"432 -3 CURVE"
);
}
);
width = 600;
}
);
unicode = 03C4;
},
{
glyphname = upsilon;
lastChange = "2019-08-10 22:38:00 +0000";
layers = (
{
anchors = (
{
name = _vhook;
position = "{426, 456}";
},
{
name = bottom;
position = "{322, 0}";
},
{
name = horn;
position = "{536, 446}";
},
{
name = ogonek;
position = "{365, -48}";
},
{
name = top;
position = "{246, 549}";
},
{
name = topright;
position = "{624, 500}";
}
);
layerId = "BA196CD0-EE58-4274-B8DF-4393D3617A29";
paths = (
{
closed = 1;
nodes = (
"108 27 OFFCURVE",
"165 -16 OFFCURVE",
"288 -16 CURVE SMOOTH",
"494 -16 OFFCURVE",
"506 136 OFFCURVE",
"496 258 CURVE SMOOTH",
"484 405 OFFCURVE",
"455 500 OFFCURVE",
"414 547 CURVE",
"335 547 LINE",
"383 484 OFFCURVE",
"401 406 OFFCURVE",
"407 354 CURVE SMOOTH",
"427 166 OFFCURVE",
"406 140 OFFCURVE",
"309 140 CURVE SMOOTH",
"228 140 OFFCURVE",
"184 140 OFFCURVE",
"171 297 CURVE SMOOTH",
"150 547 LINE",
"75 547 LINE",
"96 216 LINE SMOOTH"
);
}
);
width = 644;
}
);
unicode = 03C5;
},
{
glyphname = chi;
lastChange = "2019-08-08 23:42:42 +0000";
layers = (
{
anchors = (
{
name = bottom;
position = "{398, -200}";
},
{
name = top;
position = "{398, 500}";
}
);
layerId = "BA196CD0-EE58-4274-B8DF-4393D3617A29";
paths = (
{
closed = 1;
nodes = (
"109 423 LINE",
"244 423 OFFCURVE",
"297 330 OFFCURVE",
"312 298 CURVE SMOOTH",
"488 -89 LINE SMOOTH",
"539 -200 OFFCURVE",
"573 -200 OFFCURVE",
"749 -200 CURVE",
"749 -66 LINE",
"638 -66 OFFCURVE",
"601 -51 OFFCURVE",
"573 7 CURVE SMOOTH",
"392 375 LINE SMOOTH",
"376 407 OFFCURVE",
"297 538 OFFCURVE",
"109 538 CURVE"
);
},
{
closed = 1;
nodes = (
"83 -198 LINE",
"244 -200 LINE",
"688 530 LINE",
"600 530 LINE"
);
}
);
width = 779;
}
);
unicode = 03C7;
},
{
glyphname = psi;
lastChange = "2019-08-08 23:44:03 +0000";
layers = (
{
anchors = (
{
name = bottom;
position = "{322, 0}";
},
{
name = horn;
position = "{536, 446}";
},
{
name = ogonek;
position = "{365, -48}";
},
{
name = top;
position = "{331, 547}";
},
{
name = topright;
position = "{624, 500}";
}
);
components = (
{
name = bar;
transform = "{0.99609, 0.08838, -0.0955, 1.07636, 43, -54}";
}
);
layerId = "BA196CD0-EE58-4274-B8DF-4393D3617A29";
paths = (
{
closed = 1;
nodes = (
"108 27 OFFCURVE",
"206 -12 OFFCURVE",
"329 -12 CURVE SMOOTH",
"564 -12 OFFCURVE",
"576 140 OFFCURVE",
"566 262 CURVE SMOOTH",
"554 409 OFFCURVE",
"525 504 OFFCURVE",
"484 551 CURVE",
"405 553 LINE",
"453 490 OFFCURVE",
"471 410 OFFCURVE",
"477 358 CURVE SMOOTH",
"499 170 OFFCURVE",
"476 144 OFFCURVE",
"344 144 CURVE SMOOTH",
"263 144 OFFCURVE",
"184 140 OFFCURVE",
"171 297 CURVE SMOOTH",
"150 547 LINE",
"75 547 LINE",
"96 216 LINE SMOOTH"
);
}
);
width = 644;
}
);
unicode = 03C8;
},
{
glyphname = omega;
lastChange = "2019-08-09 12:39:32 +0000";
layers = (
{
layerId = "BA196CD0-EE58-4274-B8DF-4393D3617A29";
paths = (
{
closed = 1;
nodes = (
"267 26 OFFCURVE",
"235 8 OFFCURVE",
"181 8 CURVE SMOOTH",
"44 8 OFFCURVE",
"3 71 OFFCURVE",
"-24 173 CURVE SMOOTH",
"-34 211 OFFCURVE",
"-44 343 OFFCURVE",
"86 500 CURVE",
"181 500 LINE",
"54 343 OFFCURVE",
"74 226 OFFCURVE",
"74 190 CURVE SMOOTH",
"74 154 OFFCURVE",
"93 104 OFFCURVE",
"166 99 CURVE SMOOTH",
"229 95 OFFCURVE",
"258 135 OFFCURVE",
"258 201 CURVE",
"258 296 LINE",
"311 308 LINE",
"311 214 LINE SMOOTH",
"311 140 OFFCURVE",
"343 101 OFFCURVE",
"388 101 CURVE",
"572 101 OFFCURVE",
"543 341 OFFCURVE",
"455 488 CURVE",
"550 488 LINE",
"643 310 OFFCURVE",
"648 -5 OFFCURVE",
"406 -3 CURVE SMOOTH",
"343 -2 OFFCURVE",
"301 11 OFFCURVE",
"290 90 CURVE"
);
}
);
width = 630;
}
);
unicode = 03C9;
},
{
glyphname = iotadieresistonos;
lastChange = "2019-08-08 23:14:03 +0000";
layers = (
{
components = (
{
name = idotless;
},
{
name = dieresiscomb;
transform = "{1, 0, 0, 1, -380, 0}";
},
{
alignment = -1;
name = acutecomb;
transform = "{1, 0, 0, 1, -151, 71}";
}
);
layerId = "BA196CD0-EE58-4274-B8DF-4393D3617A29";
paths = (
{
closed = 1;
nodes = (
"274 -121 LINE",
"274 -93 OFFCURVE",
"274 -107 OFFCURVE",
"274 -51 CURVE",
"240 -54 OFFCURVE",
"202 -58 OFFCURVE",
"196 4 CURVE",
"76 4 LINE",
"76 -28 LINE SMOOTH",
"76 -78 OFFCURVE",
"86 -121 OFFCURVE",
"140 -121 CURVE SMOOTH"
);
}
);
width = 272;
}
);
unicode = 0390;
},
{
color = 0;
glyphname = kaiSymbol;
lastChange = "2019-08-10 01:27:57 +0000";
layers = (
{
anchors = (
{
name = _top_hook;
position = "{263, 66}";
},
{
name = bottom;
position = "{381, 0}";
},
{
name = center;
position = "{378, 365}";
},
{
name = top;
position = "{378, 729}";
},
{
name = topleft;
position = "{21, 709}";
}
);
layerId = "BA196CD0-EE58-4274-B8DF-4393D3617A29";
paths = (
{
closed = 1;
nodes = (
"50 666 LINE SMOOTH",
"95 657 OFFCURVE",
"135 604 OFFCURVE",
"201 478 CURVE SMOOTH",
"250 384 OFFCURVE",
"247 62 OFFCURVE",
"215 -19 CURVE SMOOTH",
"204 -47 OFFCURVE",
"193 -110 OFFCURVE",
"155 -90 CURVE SMOOTH",
"122 -72 OFFCURVE",
"141 -29 OFFCURVE",
"180 19 CURVE SMOOTH",
"204 48 OFFCURVE",
"242 74 OFFCURVE",
"269 116 CURVE SMOOTH",
"286 143 OFFCURVE",
"304 171 OFFCURVE",
"323 198 CURVE SMOOTH",
"501 452 OFFCURVE",
"702 739 OFFCURVE",
"709 782 CURVE SMOOTH",
"711 795 OFFCURVE",
"694 794 OFFCURVE",
"689 794 CURVE SMOOTH",
"672 794 OFFCURVE",
"644 866 OFFCURVE",
"591 767 CURVE",
"120 110 LINE SMOOTH",
"62 30 OFFCURVE",
"-3 -99 OFFCURVE",
"65 -141 CURVE SMOOTH",
"226 -244 OFFCURVE",
"390 -60 OFFCURVE",
"390 155 CURVE SMOOTH",
"390 245 OFFCURVE",
"369 349 OFFCURVE",
"332 441 CURVE SMOOTH",
"319 473 OFFCURVE",
"322 489 OFFCURVE",
"215 651 CURVE SMOOTH",
"180 704 OFFCURVE",
"152 760 OFFCURVE",
"32 760 CURVE",
"20 709 OFFCURVE",
"20 709 OFFCURVE",
"13 673 CURVE"
);
},
{
closed = 1;
nodes = (
"534 69 OFFCURVE",
"553 38 OFFCURVE",
"587 38 CURVE SMOOTH",
"621 38 OFFCURVE",
"645 81 OFFCURVE",
"643 126 CURVE SMOOTH",
"619 599 LINE",
"619 657 OFFCURVE",
"661 701 OFFCURVE",
"695 740 CURVE SMOOTH",
"711 758 OFFCURVE",
"726 774 OFFCURVE",
"735 790 CURVE SMOOTH",
"740 799 OFFCURVE",
"742 808 OFFCURVE",
"742 817 CURVE SMOOTH",
"742 853 OFFCURVE",
"705 884 OFFCURVE",
"671 884 CURVE SMOOTH",
"669 884 OFFCURVE",
"666 883 OFFCURVE",
"663 883 CURVE",
"602 873 OFFCURVE",
"510 810 OFFCURVE",
"514 676 CURVE SMOOTH",
"532 126 LINE SMOOTH"
);
},
{
closed = 1;
nodes = (
"591 -138 LINE SMOOTH",
"591 -186 OFFCURVE",
"588 -189 OFFCURVE",
"520 -189 CURVE",
"520 -274 LINE",
"645 -274 OFFCURVE",
"670 -269 OFFCURVE",
"674 -157 CURVE",
"674 -116 OFFCURVE",
"674 -116 OFFCURVE",
"676 124 CURVE",
"591 124 LINE"
);
}
);
width = 761;
}
);
unicode = 03D7;
},
{
glyphname = raiseddownarrowmod;
lastChange = "2019-08-08 15:39:18 +0000";
layers = (
{
layerId = "BA196CD0-EE58-4274-B8DF-4393D3617A29";
paths = (
{
closed = 1;
nodes = (
"300 160 LINE",
"461 343 LINE",
"140 343 LINE"
);
},
{
closed = 1;
nodes = (
"252 336 LINE",
"349 336 LINE",
"349 543 LINE",
"252 543 LINE"
);
}
);
width = 600;
}
);
unicode = A71C;
},
{
color = 6;
glyphname = zero;
lastChange = "2019-08-02 20:45:03 +0000";
layers = (
{
guideLines = (
{
angle = 180;
position = "{330, 364}";
},
{
angle = 90;
position = "{329, 321}";
}
);
layerId = "BA196CD0-EE58-4274-B8DF-4393D3617A29";
paths = (
{
closed = 1;
nodes = (
"229 703 OFFCURVE",
"179 614 OFFCURVE",
"179 435 CURVE SMOOTH",
"179 250 OFFCURVE",
"228 167 OFFCURVE",
"329 167 CURVE",
"431 167 OFFCURVE",
"472 256 OFFCURVE",
"485 435 CURVE",
"485 614 OFFCURVE",
"432 703 OFFCURVE",
"330 703 CURVE SMOOTH"
);
},
{
closed = 1;
nodes = (
"494 742 OFFCURVE",
"579 614 OFFCURVE",
"579 364 CURVE",
"579 118 OFFCURVE",
"493 -14 OFFCURVE",
"329 -14 CURVE SMOOTH",
"166 -14 OFFCURVE",
"75 118 OFFCURVE",
"75 364 CURVE",
"75 614 OFFCURVE",
"167 742 OFFCURVE",
"330 742 CURVE SMOOTH"
);
},
{
closed = 1;
nodes = (
"371 321 OFFCURVE",
"380 373 OFFCURVE",
"380 410 CURVE SMOOTH",
"380 480 OFFCURVE",
"371 525 OFFCURVE",
"330 525 CURVE SMOOTH",
"284 525 OFFCURVE",
"277 467 OFFCURVE",
"277 410 CURVE SMOOTH",
"277 373 OFFCURVE",
"288 321 OFFCURVE",
"330 321 CURVE SMOOTH"
);
}
);
width = 654;
}
);
unicode = 0030;
},
{
color = 6;
glyphname = one;
lastChange = "2019-08-02 20:45:03 +0000";
layers = (
{
layerId = "BA196CD0-EE58-4274-B8DF-4393D3617A29";
paths = (
{
closed = 1;
nodes = (
"75 137 LINE",
"212 141 LINE",
"237 639 LINE",
"114 574 LINE",
"124 665 LINE",
"182 700 OFFCURVE",
"237 729 OFFCURVE",
"270 729 CURVE SMOOTH",
"330 729 LINE",
"330 142 LINE",
"495 137 LINE",
"495 0 LINE",
"75 0 LINE"
);
}
);
width = 570;
}
);
unicode = 0031;
},
{
color = 6;
glyphname = two;
lastChange = "2019-08-02 20:45:03 +0000";
layers = (
{
layerId = "BA196CD0-EE58-4274-B8DF-4393D3617A29";
paths = (
{
closed = 1;
nodes = (
"543 142 LINE",
"554 0 LINE",
"75 0 LINE",
"100 141 LINE SMOOTH",
"107 183 OFFCURVE",
"172 227 OFFCURVE",
"240 271 CURVE SMOOTH",
"359 348 OFFCURVE",
"397 406 OFFCURVE",
"423 456 CURVE SMOOTH",
"435 480 OFFCURVE",
"441 504 OFFCURVE",
"441 528 CURVE SMOOTH",
"441 605 OFFCURVE",
"382 659 OFFCURVE",
"294 659 CURVE SMOOTH",
"232 659 OFFCURVE",
"164 638 OFFCURVE",
"86 594 CURVE",
"92 694 LINE",
"172 726 OFFCURVE",
"235 742 OFFCURVE",
"292 742 CURVE SMOOTH",
"443 742 OFFCURVE",
"540 661 OFFCURVE",
"540 534 CURVE SMOOTH",
"540 431 OFFCURVE",
"551 365 OFFCURVE",
"305 142 CURVE"
);
}
);
width = 629;
}
);
unicode = 0032;
},
{
color = 6;
glyphname = three;
lastChange = "2019-08-02 20:45:03 +0000";
layers = (
{
layerId = "BA196CD0-EE58-4274-B8DF-4393D3617A29";
paths = (
{
closed = 1;
nodes = (
"521 376 OFFCURVE",
"555 315 OFFCURVE",
"555 222 CURVE SMOOTH",
"555 65 OFFCURVE",
"452 -14 OFFCURVE",
"270 -14 CURVE SMOOTH",
"209 -14 OFFCURVE",
"144 -2 OFFCURVE",
"75 22 CURVE",
"120 156 LINE",
"156 142 OFFCURVE",
"250 134 OFFCURVE",
"276 134 CURVE SMOOTH",
"417 134 OFFCURVE",
"448 170 OFFCURVE",
"448 236 CURVE",
"448 303 OFFCURVE",
"391 362 OFFCURVE",
"283 362 CURVE SMOOTH",
"189 362 LINE",
"207 440 LINE",
"302 440 LINE",
"399 440 OFFCURVE",
"467 468 OFFCURVE",
"467 560 CURVE SMOOTH",
"467 640 OFFCURVE",
"385 677 OFFCURVE",
"286 677 CURVE SMOOTH",
"232 677 OFFCURVE",
"171 668 OFFCURVE",
"97 643 CURVE",
"120 713 LINE",
"195 734 OFFCURVE",
"237 742 OFFCURVE",
"295 742 CURVE SMOOTH",
"445 742 OFFCURVE",
"538 669 OFFCURVE",
"538 553 CURVE SMOOTH",
"538 473 OFFCURVE",
"499 427 OFFCURVE",
"405 393 CURVE"
);
}
);
width = 630;
}
);
unicode = 0033;
},
{
color = 6;
glyphname = four;
lastChange = "2019-08-02 20:45:03 +0000";
layers = (
{
hints = (
{
horizontal = 1;
place = "{0, 21}";
target = up;
type = BottomGhost;
},
{
horizontal = 1;
place = "{205, 2000}";
type = Stem;
},
{
horizontal = 1;
place = "{213.5, 83}";
type = Stem;
},
{
place = "{396, 197}";
type = Stem;
},
{
place = "{383.5, 123}";
type = Stem;
}
);
layerId = "BA196CD0-EE58-4274-B8DF-4393D3617A29";
paths = (
{
closed = 1;
nodes = (
"417 0 LINE",
"552 0 LINE",
"492 730 LINE",
"442 727 LINE"
);
},
{
closed = 1;
nodes = (
"75 218 LINE",
"630 204 LINE",
"630 306 LINE",
"125 291 LINE"
);
},
{
closed = 1;
nodes = (
"125 291 LINE",
"177 256 LINE",
"492 730 LINE",
"442 727 LINE"
);
}
);
width = 705;
}
);
unicode = 0034;
},
{
color = 6;
glyphname = five;
lastChange = "2019-08-02 20:45:03 +0000";
layers = (
{
layerId = "BA196CD0-EE58-4274-B8DF-4393D3617A29";
paths = (
{
closed = 1;
nodes = (
"103 723 LINE",
"495 729 LINE",
"498 656 LINE",
"175 656 LINE",
"185 446 LINE",
"226 446 OFFCURVE",
"253 446 OFFCURVE",
"282 446 CURVE SMOOTH",
"402 446 OFFCURVE",
"547 398 OFFCURVE",
"547 234 CURVE SMOOTH",
"547 77 OFFCURVE",
"445 -14 OFFCURVE",
"267 -14 CURVE SMOOTH",
"206 -14 OFFCURVE",
"143 -4 OFFCURVE",
"75 17 CURVE",
"109 184 LINE",
"173 149 OFFCURVE",
"205 137 OFFCURVE",
"275 137 CURVE SMOOTH",
"388 137 OFFCURVE",
"433 199 OFFCURVE",
"433 249 CURVE SMOOTH",
"433 362 OFFCURVE",
"359 368 OFFCURVE",
"280 368 CURVE SMOOTH",
"228 368 OFFCURVE",
"166 362 OFFCURVE",
"87 352 CURVE"
);
}
);
width = 622;
}
);
unicode = 0035;
},
{
color = 6;
glyphname = six;
lastChange = "2019-08-02 20:45:03 +0000";
layers = (
{
layerId = "BA196CD0-EE58-4274-B8DF-4393D3617A29";
paths = (
{
closed = 1;
nodes = (
"247 404 OFFCURVE",
"191 339 OFFCURVE",
"191 234 CURVE SMOOTH",
"191 168 OFFCURVE",
"247 116 OFFCURVE",
"335 116 CURVE SMOOTH",
"424 116 OFFCURVE",
"480 168 OFFCURVE",
"480 234 CURVE SMOOTH",
"480 339 OFFCURVE",
"424 404 OFFCURVE",
"335 404 CURVE SMOOTH"
);
},
{
closed = 1;
nodes = (
"531 664 LINE",
"458 664 OFFCURVE",
"431 664 OFFCURVE",
"381 664 CURVE SMOOTH",
"251 664 OFFCURVE",
"183 597 OFFCURVE",
"173 413 CURVE",
"219 466 OFFCURVE",
"272 482 OFFCURVE",
"341 482 CURVE SMOOTH",
"488 482 OFFCURVE",
"579 387 OFFCURVE",
"579 234 CURVE SMOOTH",
"579 84 OFFCURVE",
"482 -14 OFFCURVE",
"335 -14 CURVE SMOOTH",
"167 -14 OFFCURVE",
"75 118 OFFCURVE",
"75 364 CURVE SMOOTH",
"75 594 OFFCURVE",
"193 742 OFFCURVE",
"377 742 CURVE SMOOTH",
"427 742 OFFCURVE",
"473 742 OFFCURVE",
"531 742 CURVE"
);
}
);
width = 654;
}
);
unicode = 0036;
},
{
color = 6;
glyphname = seven;
lastChange = "2019-08-02 20:45:03 +0000";
layers = (
{
layerId = "BA196CD0-EE58-4274-B8DF-4393D3617A29";
paths = (
{
closed = 1;
nodes = (
"75 656 LINE",
"527 639 LINE",
"543 715 LINE",
"78 727 LINE"
);
},
{
closed = 1;
nodes = (
"262 0 LINE",
"435 0 LINE",
"543 715 LINE",
"461 713 LINE"
);
}
);
width = 618;
}
);
unicode = 0037;
},
{
color = 6;
glyphname = eight;
lastChange = "2019-08-02 20:45:03 +0000";
layers = (
{
layerId = "BA196CD0-EE58-4274-B8DF-4393D3617A29";
paths = (
{
closed = 1;
nodes = (
"241 356 OFFCURVE",
"184 303 OFFCURVE",
"184 215 CURVE SMOOTH",
"184 166 OFFCURVE",
"242 125 OFFCURVE",
"336 125 CURVE SMOOTH",
"430 125 OFFCURVE",
"486 167 OFFCURVE",
"486 215 CURVE SMOOTH",
"486 303 OFFCURVE",
"429 356 OFFCURVE",
"335 356 CURVE SMOOTH"
);
},
{
closed = 1;
nodes = (
"152 409 OFFCURVE",
"112 470 OFFCURVE",
"112 553 CURVE SMOOTH",
"112 657 OFFCURVE",
"190 732 OFFCURVE",
"335 732 CURVE SMOOTH",
"480 732 OFFCURVE",
"558 657 OFFCURVE",
"558 553 CURVE SMOOTH",
"558 470 OFFCURVE",
"518 409 OFFCURVE",
"434 388 CURVE",
"529 366 OFFCURVE",
"595 298 OFFCURVE",
"595 205 CURVE SMOOTH",
"595 64 OFFCURVE",
"496 -14 OFFCURVE",
"335 -14 CURVE SMOOTH",
"174 -14 OFFCURVE",
"75 64 OFFCURVE",
"75 205 CURVE SMOOTH",
"75 298 OFFCURVE",
"141 366 OFFCURVE",
"236 388 CURVE"
);
},
{
closed = 1;
nodes = (
"200 498 OFFCURVE",
"250 437 OFFCURVE",
"335 437 CURVE",
"419 437 OFFCURVE",
"470 498 OFFCURVE",
"470 573 CURVE SMOOTH",
"470 636 OFFCURVE",
"419 684 OFFCURVE",
"335 684 CURVE SMOOTH",
"250 684 OFFCURVE",
"200 636 OFFCURVE",
"200 573 CURVE SMOOTH"
);
}
);
width = 670;
}
);
unicode = 0038;
},
{
color = 6;
glyphname = nine;
lastChange = "2019-08-02 20:45:03 +0000";
layers = (
{
layerId = "BA196CD0-EE58-4274-B8DF-4393D3617A29";
paths = (
{
closed = 1;
nodes = (
"134 142 LINE",
"189 128 OFFCURVE",
"267 118 OFFCURVE",
"312 118 CURVE SMOOTH",
"412 118 OFFCURVE",
"470 121 OFFCURVE",
"480 274 CURVE",
"428 258 OFFCURVE",
"382 247 OFFCURVE",
"312 247 CURVE SMOOTH",
"166 247 OFFCURVE",
"75 341 OFFCURVE",
"75 494 CURVE SMOOTH",
"75 644 OFFCURVE",
"171 742 OFFCURVE",
"318 742 CURVE SMOOTH",
"487 742 OFFCURVE",
"578 643 OFFCURVE",
"578 364 CURVE SMOOTH",
"578 0 OFFCURVE",
"464 -13 OFFCURVE",
"280 -13 CURVE SMOOTH",
"231 -13 OFFCURVE",
"172 -6 OFFCURVE",
"111 7 CURVE"
);
},
{
closed = 1;
nodes = (
"412 341 OFFCURVE",
"485 384 OFFCURVE",
"485 510 CURVE SMOOTH",
"485 628 OFFCURVE",
"418 680 OFFCURVE",
"310 680 CURVE SMOOTH",
"202 680 OFFCURVE",
"134 615 OFFCURVE",
"134 510 CURVE SMOOTH",
"134 404 OFFCURVE",
"196 341 OFFCURVE",
"304 341 CURVE"
);
}
);
width = 653;
}
);
unicode = 0039;
},
{
glyphname = fraction;
lastChange = "2019-08-05 20:21:07 +0000";
layers = (
{
layerId = "BA196CD0-EE58-4274-B8DF-4393D3617A29";
paths = (
{
closed = 1;
nodes = (
"36 -45 LINE",
"137 -45 LINE",
"589 752 LINE",
"525 752 LINE"
);
}
);
width = 600;
}
);
unicode = 2044;
},
{
glyphname = period;
lastChange = "2019-08-04 01:24:08 +0000";
layers = (
{
layerId = "BA196CD0-EE58-4274-B8DF-4393D3617A29";
paths = (
{
closed = 1;
nodes = (
"466 0 LINE",
"567 0 LINE",
"567 101 LINE",
"466 101 LINE"
);
}
);
width = 1030;
}
);
unicode = 002E;
},
{
glyphname = comma;
lastChange = "2019-08-04 01:30:26 +0000";
layers = (
{
layerId = "BA196CD0-EE58-4274-B8DF-4393D3617A29";
paths = (
{
closed = 1;
nodes = (
"396 -127 LINE",
"491 -127 LINE",
"557 106 LINE",
"481 106 LINE"
);
}
);
width = 1030;
}
);
unicode = 002C;
},
{
glyphname = exclam;
lastChange = "2019-08-07 03:22:55 +0000";
layers = (
{
components = (
{
name = period;
transform = "{1.21, 0, 0, 1.21, -300, -56}";
}
);
layerId = "BA196CD0-EE58-4274-B8DF-4393D3617A29";
paths = (
{
closed = 1;
nodes = (
"209 242 LINE",
"380 288 LINE",
"386 800 LINE",
"265 801 LINE"
);
}
);
width = 600;
}
);
unicode = 0021;
},
{
glyphname = question;
lastChange = "2019-08-07 03:38:33 +0000";
layers = (
{
components = (
{
name = period;
transform = "{1.21, 0, 0, 1.21, -319, -99}";
}
);
layerId = "BA196CD0-EE58-4274-B8DF-4393D3617A29";
paths = (
{
closed = 1;
nodes = (
"295 163 OFFCURVE",
"367 178 OFFCURVE",
"367 185 CURVE",
"367 215 OFFCURVE",
"367 223 OFFCURVE",
"367 344 CURVE",
"441 377 OFFCURVE",
"479 416 OFFCURVE",
"479 528 CURVE SMOOTH",
"479 600 OFFCURVE",
"448 660 OFFCURVE",
"365 679 CURVE SMOOTH",
"301 694 OFFCURVE",
"215 691 OFFCURVE",
"153 625 CURVE",
"180 599 OFFCURVE",
"185 594 OFFCURVE",
"199 575 CURVE",
"248 629 OFFCURVE",
"286 630 OFFCURVE",
"353 616 CURVE SMOOTH",
"398 607 OFFCURVE",
"418 570 OFFCURVE",
"418 517 CURVE SMOOTH",
"418 446 OFFCURVE",
"378 435 OFFCURVE",
"254 390 CURVE",
"254 350 OFFCURVE",
"254 329 OFFCURVE",
"254 272 CURVE SMOOTH",
"254 227 OFFCURVE",
"254 190 OFFCURVE",
"254 156 CURVE"
);
}
);
width = 600;
}
);
unicode = 003F;
},
{
glyphname = asterisk;
lastChange = "2019-08-07 21:18:56 +0000";
layers = (
{
layerId = "BA196CD0-EE58-4274-B8DF-4393D3617A29";
paths = (
{
closed = 1;
nodes = (
"528 609 LINE",
"353 514 LINE",
"548 438 LINE",
"500 371 LINE",
"336 470 LINE",
"355 301 LINE",
"280 286 LINE",
"280 470 LINE",
"136 352 LINE",
"88 419 LINE",
"263 514 LINE",
"73 589 LINE",
"116 657 LINE",
"280 558 LINE",
"261 723 LINE",
"336 742 LINE",
"336 558 LINE",
"520 677 LINE"
);
}
);
width = 600;
}
);
unicode = 002A;
},
{
glyphname = asterisk.001;
lastChange = "2019-08-11 00:05:36 +0000";
layers = (
{
layerId = "BA196CD0-EE58-4274-B8DF-4393D3617A29";
paths = (
{
closed = 1;
nodes = (
"244 380 LINE",
"359 380 LINE",
"359 878 LINE",
"244 878 LINE"
);
},
{
closed = 1;
nodes = (
"335 854 LINE",
"335 404 LINE",
"268 404 LINE",
"268 854 LINE"
);
},
{
closed = 1;
nodes = (
"301 820 LINE",
"301 438 LINE",
"302 438 LINE",
"302 820 LINE"
);
},
{
closed = 1;
nodes = (
"280 434 LINE",
"323 434 LINE",
"323 824 LINE",
"280 824 LINE"
);
},
{
closed = 1;
nodes = (
"166 846 LINE",
"85 765 LINE",
"437 413 LINE",
"518 494 LINE"
);
},
{
closed = 1;
nodes = (
"437 447 LINE",
"119 765 LINE",
"166 812 LINE",
"484 494 LINE"
);
},
{
closed = 1;
nodes = (
"437 495 LINE",
"167 765 LINE",
"166 764 LINE",
"436 494 LINE"
);
},
{
closed = 1;
nodes = (
"178 783 LINE",
"148 753 LINE",
"425 476 LINE",
"455 506 LINE"
);
},
{
closed = 1;
nodes = (
"85 494 LINE",
"166 413 LINE",
"518 764 LINE",
"437 845 LINE"
);
},
{
closed = 1;
nodes = (
"484 764 LINE",
"166 447 LINE",
"119 494 LINE",
"437 811 LINE"
);
},
{
closed = 1;
nodes = (
"436 764 LINE",
"166 495 LINE",
"167 494 LINE",
"437 763 LINE"
);
},
{
closed = 1;
nodes = (
"148 506 LINE",
"178 476 LINE",
"455 752 LINE",
"425 782 LINE"
);
},
{
closed = 1;
nodes = (
"550 574 LINE",
"550 687 LINE",
"52 687 LINE",
"52 574 LINE"
);
},
{
closed = 1;
nodes = (
"76 663 LINE",
"526 663 LINE",
"526 598 LINE",
"76 598 LINE"
);
},
{
closed = 1;
nodes = (
"110 629 LINE",
"492 629 LINE",
"492 632 LINE",
"110 632 LINE"
);
},
{
closed = 1;
nodes = (
"496 610 LINE",
"496 651 LINE",
"106 651 LINE",
"106 610 LINE"
);
}
);
width = 600;
}
);
},
{
glyphname = numbersign;
lastChange = "2019-08-07 04:00:16 +0000";
layers = (
{
layerId = "BA196CD0-EE58-4274-B8DF-4393D3617A29";
paths = (
{
closed = 1;
nodes = (
"109 -44 LINE",
"195 -44 LINE",
"269 810 LINE",
"183 810 LINE"
);
},
{
closed = 1;
nodes = (
"-99 261 LINE",
"-107 175 LINE",
"747 175 LINE",
"755 261 LINE"
);
},
{
closed = 1;
nodes = (
"-83 549 LINE",
"-91 463 LINE",
"763 463 LINE",
"771 549 LINE"
);
},
{
closed = 1;
nodes = (
"374 -44 LINE",
"460 -44 LINE",
"534 810 LINE",
"448 810 LINE"
);
}
);
width = 600;
}
);
unicode = 0023;
},
{
glyphname = slash;
lastChange = "2019-08-07 03:56:25 +0000";
layers = (
{
layerId = "BA196CD0-EE58-4274-B8DF-4393D3617A29";
paths = (
{
closed = 1;
nodes = (
"149 -136 LINE",
"291 -32 LINE",
"497 734 LINE",
"405 687 LINE"
);
}
);
width = 600;
}
);
unicode = 002F;
},
{
glyphname = backslash;
lastChange = "2019-08-07 03:57:19 +0000";
layers = (
{
layerId = "BA196CD0-EE58-4274-B8DF-4393D3617A29";
paths = (
{
closed = 1;
nodes = (
"149 634 LINE",
"394 -178 LINE",
"461 -20 LINE",
"171 765 LINE"
);
}
);
width = 600;
}
);
unicode = 005C;
},
{
glyphname = parenleft;
lastChange = "2019-08-07 12:15:42 +0000";
layers = (
{
layerId = "BA196CD0-EE58-4274-B8DF-4393D3617A29";
paths = (
{
closed = 1;
nodes = (
"430 800 LINE",
"330 659 OFFCURVE",
"259 492 OFFCURVE",
"253 342 CURVE",
"259 191 OFFCURVE",
"288 -44 OFFCURVE",
"362 -200 CURVE",
"259 -193 LINE",
"195 -32 OFFCURVE",
"153 204 OFFCURVE",
"153 350 CURVE",
"165 495 OFFCURVE",
"241 663 OFFCURVE",
"352 807 CURVE"
);
}
);
width = 600;
}
);
unicode = 0028;
},
{
glyphname = braceleft;
lastChange = "2019-08-07 21:22:52 +0000";
layers = (
{
layerId = "BA196CD0-EE58-4274-B8DF-4393D3617A29";
paths = (
{
closed = 1;
nodes = (
"460 -70 LINE",
"466 -170 LINE",
"406 -169 LINE SMOOTH",
"244 -166 OFFCURVE",
"210 -129 OFFCURVE",
"211 15 CURVE",
"217 131 LINE",
"216 209 OFFCURVE",
"215 244 OFFCURVE",
"143 244 CURVE SMOOTH",
"113 244 LINE",
"116 354 LINE",
"146 353 LINE",
"220 358 OFFCURVE",
"229 363 OFFCURVE",
"235 460 CURVE SMOOTH",
"240 577 LINE SMOOTH",
"248 721 OFFCURVE",
"292 750 OFFCURVE",
"454 753 CURVE",
"514 753 LINE",
"501 683 LINE",
"468 684 LINE",
"369 679 OFFCURVE",
"356 666 OFFCURVE",
"351 574 CURVE SMOOTH",
"345 453 LINE SMOOTH",
"339 351 OFFCURVE",
"311 312 OFFCURVE",
"218 296 CURVE",
"309 277 OFFCURVE",
"327 234 OFFCURVE",
"328 146 CURVE",
"322 24 LINE",
"324 -42 OFFCURVE",
"335 -70 OFFCURVE",
"427 -70 CURVE SMOOTH"
);
}
);
width = 600;
}
);
unicode = 007B;
},
{
glyphname = bracketleft;
lastChange = "2019-08-07 21:19:52 +0000";
layers = (
{
layerId = "BA196CD0-EE58-4274-B8DF-4393D3617A29";
paths = (
{
closed = 1;
nodes = (
"177 -136 LINE",
"255 -136 LINE",
"318 700 LINE",
"240 700 LINE"
);
},
{
closed = 1;
nodes = (
"245 629 LINE",
"488 629 LINE",
"488 700 LINE",
"245 700 LINE"
);
},
{
closed = 1;
nodes = (
"189 -136 LINE",
"446 -136 LINE",
"446 -39 LINE",
"189 -39 LINE"
);
}
);
width = 600;
}
);
unicode = 005B;
},
{
glyphname = hyphen;
lastChange = "2019-08-04 03:42:37 +0000";
layers = (
{
layerId = "BA196CD0-EE58-4274-B8DF-4393D3617A29";
paths = (
{
closed = 1;
nodes = (
"319 244 LINE",
"710 244 LINE",
"710 335 LINE",
"319 335 LINE"
);
}
);
width = 1030;
}
);
unicode = 002D;
},
{
glyphname = endash;
lastChange = "2019-08-07 21:23:44 +0000";
layers = (
{
layerId = "BA196CD0-EE58-4274-B8DF-4393D3617A29";
paths = (
{
closed = 1;
nodes = (
"199 244 LINE",
"825 242 LINE",
"835 333 LINE",
"209 335 LINE"
);
}
);
width = 1030;
}
);
unicode = 2013;
},
{
glyphname = emdash;
lastChange = "2019-08-07 21:24:07 +0000";
layers = (
{
layerId = "BA196CD0-EE58-4274-B8DF-4393D3617A29";
paths = (
{
closed = 1;
nodes = (
"-133 244 LINE",
"825 242 LINE",
"835 333 LINE",
"-123 335 LINE"
);
}
);
width = 600;
}
);
unicode = 2014;
},
{
glyphname = guilsinglleft;
lastChange = "2019-08-07 21:28:04 +0000";
layers = (
{
layerId = "BA196CD0-EE58-4274-B8DF-4393D3617A29";
paths = (
{
closed = 1;
nodes = (
"442 501 LINE",
"440 408 LINE",
"288 282 LINE",
"430 146 LINE",
"407 34 LINE",
"185 246 LINE",
"207 305 LINE"
);
}
);
width = 600;
}
);
unicode = 2039;
},
{
glyphname = currency;
lastChange = "2019-08-05 20:35:54 +0000";
layers = (
{
layerId = "BA196CD0-EE58-4274-B8DF-4393D3617A29";
paths = (
{
closed = 1;
nodes = (
"232 277 OFFCURVE",
"186 324 OFFCURVE",
"186 382 CURVE SMOOTH",
"186 439 OFFCURVE",
"233 486 OFFCURVE",
"290 486 CURVE SMOOTH",
"347 486 OFFCURVE",
"394 439 OFFCURVE",
"394 382 CURVE SMOOTH",
"394 324 OFFCURVE",
"347 277 OFFCURVE",
"290 277 CURVE SMOOTH"
);
},
{
closed = 1;
nodes = (
"470 269 LINE",
"483 295 OFFCURVE",
"490 325 OFFCURVE",
"490 357 CURVE SMOOTH",
"490 396 OFFCURVE",
"479 432 OFFCURVE",
"459 463 CURVE",
"524 528 LINE",
"448 606 LINE",
"378 536 LINE",
"352 549 OFFCURVE",
"322 556 OFFCURVE",
"291 556 CURVE SMOOTH",
"260 556 OFFCURVE",
"230 549 OFFCURVE",
"204 536 CURVE",
"134 606 LINE",
"58 528 LINE",
"123 463 LINE",
"103 432 OFFCURVE",
"92 396 OFFCURVE",
"92 357 CURVE SMOOTH",
"92 325 OFFCURVE",
"99 295 OFFCURVE",
"112 269 CURVE",
"36 192 LINE",
"112 114 LINE",
"186 188 LINE",
"216 169 OFFCURVE",
"252 158 OFFCURVE",
"291 158 CURVE SMOOTH",
"330 158 OFFCURVE",
"366 169 OFFCURVE",
"396 188 CURVE",
"470 114 LINE",
"546 192 LINE"
);
}
);
width = 600;
}
);
unicode = 00A4;
},
{
glyphname = euro;
lastChange = "2019-08-05 20:54:41 +0000";
layers = (
{
components = (
{
name = equal;
transform = "{1, 0, 0, 1, -6, 76}";
}
);
layerId = "BA196CD0-EE58-4274-B8DF-4393D3617A29";
paths = (
{
closed = 1;
nodes = (
"658 -41 OFFCURVE",
"658 28 OFFCURVE",
"658 70 CURVE",
"445 70 OFFCURVE",
"329 24 OFFCURVE",
"329 386 CURVE SMOOTH",
"329 624 OFFCURVE",
"425 677 OFFCURVE",
"658 624 CURVE",
"658 670 OFFCURVE",
"658 710 OFFCURVE",
"658 735 CURVE",
"277 787 OFFCURVE",
"227 654 OFFCURVE",
"234 347 CURVE SMOOTH",
"242 0 OFFCURVE",
"259 -82 OFFCURVE",
"658 -71 CURVE"
);
}
);
width = 733;
}
);
unicode = 20AC;
},
{
color = 0;
glyphname = sterling;
lastChange = "2019-08-07 22:29:24 +0000";
layers = (
{
components = (
{
name = hyphen;
transform = "{1, 0, 0, 0.90858, -296, 86}";
}
);
guideLines = (
{
angle = 90;
position = "{130, 179}";
},
{
position = "{130, 179}";
},
{
angle = 90;
position = "{82, 685}";
},
{
position = "{82, 685}";
}
);
layerId = "BA196CD0-EE58-4274-B8DF-4393D3617A29";
paths = (
{
closed = 1;
nodes = (
"183 333 LINE",
"130 179 LINE",
"44 112 LINE",
"44 0 LINE",
"575 0 LINE",
"553 70 LINE",
"214 91 LINE",
"189 144 LINE",
"257 333 LINE",
"156 641 LINE",
"282 719 LINE",
"462 663 LINE",
"523 706 LINE",
"282 786 LINE",
"82 685 LINE"
);
}
);
width = 600;
}
);
unicode = 00A3;
},
{
glyphname = yen;
lastChange = "2019-08-05 20:55:58 +0000";
layers = (
{
anchors = (
{
name = top;
position = "{377, 729}";
}
);
components = (
{
name = equal;
transform = "{1, 0, 0, 1, 58, -57}";
}
);
layerId = "BA196CD0-EE58-4274-B8DF-4393D3617A29";
paths = (
{
closed = 1;
nodes = (
"295 -69 LINE",
"428 -69 LINE",
"442 410 LINE",
"679 729 LINE",
"573 729 LINE",
"378 516 LINE",
"181 729 LINE",
"75 729 LINE",
"309 410 LINE"
);
}
);
width = 754;
}
);
unicode = 00A5;
},
{
glyphname = plus;
lastChange = "2019-08-07 03:15:06 +0000";
layers = (
{
layerId = "BA196CD0-EE58-4274-B8DF-4393D3617A29";
paths = (
{
closed = 1;
nodes = (
"258 51 LINE",
"342 51 LINE",
"342 512 LINE",
"258 512 LINE"
);
},
{
closed = 1;
nodes = (
"516 239 LINE",
"516 313 LINE",
"56 316 LINE",
"56 242 LINE"
);
}
);
width = 600;
}
);
unicode = 002B;
},
{
glyphname = minus;
lastChange = "2019-08-05 20:52:59 +0000";
layers = (
{
layerId = "BA196CD0-EE58-4274-B8DF-4393D3617A29";
paths = (
{
closed = 1;
nodes = (
"81 232 LINE",
"527 249 LINE",
"498 326 LINE",
"112 302 LINE"
);
}
);
width = 600;
}
);
unicode = 2212;
},
{
glyphname = multiply;
lastChange = "2019-08-05 20:51:39 +0000";
layers = (
{
layerId = "BA196CD0-EE58-4274-B8DF-4393D3617A29";
paths = (
{
closed = 1;
nodes = (
"468 105 LINE",
"608 105 LINE",
"298 379 LINE",
"202 379 LINE"
);
},
{
closed = 1;
nodes = (
"178 105 LINE",
"317 105 LINE",
"564 376 LINE",
"473 376 LINE"
);
}
);
width = 779;
}
);
unicode = 00D7;
},
{
glyphname = greater;
lastChange = "2019-08-07 13:28:26 +0000";
layers = (
{
layerId = "BA196CD0-EE58-4274-B8DF-4393D3617A29";
paths = (
{
closed = 1;
nodes = (
"81 516 LINE",
"688 226 LINE",
"695 336 LINE",
"86 604 LINE"
);
},
{
closed = 1;
nodes = (
"690 229 LINE",
"551 293 LINE",
"51 157 LINE",
"50 37 LINE"
);
}
);
width = 600;
}
);
unicode = 003E;
},
{
glyphname = greaterequal;
lastChange = "2019-08-07 13:30:44 +0000";
layers = (
{
components = (
{
name = greater;
transform = "{1, 0, 0, 1, -11, 90}";
}
);
layerId = "BA196CD0-EE58-4274-B8DF-4393D3617A29";
paths = (
{
closed = 1;
nodes = (
"13 -53 LINE",
"688 15 LINE",
"659 92 LINE",
"44 17 LINE"
);
}
);
width = 600;
}
);
unicode = 2265;
},
{
glyphname = logicalnot;
lastChange = "2019-08-07 13:03:54 +0000";
layers = (
{
layerId = "BA196CD0-EE58-4274-B8DF-4393D3617A29";
paths = (
{
closed = 1;
nodes = (
"81 253 LINE",
"520 238 LINE",
"520 308 LINE",
"81 344 LINE"
);
},
{
closed = 1;
nodes = (
"425 57 LINE",
"532 57 LINE",
"521 305 LINE",
"421 305 LINE"
);
}
);
width = 600;
}
);
unicode = 00AC;
},
{
glyphname = emptyset;
lastChange = "2019-08-07 22:57:13 +0000";
layers = (
{
components = (
{
name = O;
}
);
layerId = "BA196CD0-EE58-4274-B8DF-4393D3617A29";
paths = (
{
closed = 1;
nodes = (
"102 -131 LINE",
"164 -163 LINE",
"746 768 LINE",
"684 801 LINE"
);
}
);
width = 825;
}
);
unicode = 2205;
},
{
glyphname = infinity;
lastChange = "2019-08-07 13:11:35 +0000";
layers = (
{
layerId = "BA196CD0-EE58-4274-B8DF-4393D3617A29";
paths = (
{
closed = 1;
nodes = (
"332 453 OFFCURVE",
"279 510 OFFCURVE",
"191 510 CURVE SMOOTH",
"95 510 OFFCURVE",
"38 453 OFFCURVE",
"38 359 CURVE SMOOTH",
"38 265 OFFCURVE",
"90 244 OFFCURVE",
"186 249 CURVE SMOOTH",
"274 254 OFFCURVE",
"332 265 OFFCURVE",
"332 359 CURVE SMOOTH"
);
},
{
closed = 1;
nodes = (
"392 553 OFFCURVE",
"446 599 OFFCURVE",
"529 599 CURVE SMOOTH",
"633 599 OFFCURVE",
"717 504 OFFCURVE",
"717 359 CURVE SMOOTH",
"717 214 OFFCURVE",
"633 119 OFFCURVE",
"529 119 CURVE SMOOTH",
"446 119 OFFCURVE",
"385 163 OFFCURVE",
"364 260 CURVE",
"342 165 OFFCURVE",
"274 119 OFFCURVE",
"181 119 CURVE SMOOTH",
"40 119 OFFCURVE",
"-38 198 OFFCURVE",
"-38 359 CURVE SMOOTH",
"-38 520 OFFCURVE",
"40 599 OFFCURVE",
"181 599 CURVE SMOOTH",
"274 599 OFFCURVE",
"342 553 OFFCURVE",
"364 458 CURVE"
);
},
{
closed = 1;
nodes = (
"474 507 OFFCURVE",
"413 457 OFFCURVE",
"413 372 CURVE",
"413 288 OFFCURVE",
"468 270 OFFCURVE",
"543 270 CURVE SMOOTH",
"606 270 OFFCURVE",
"660 288 OFFCURVE",
"660 372 CURVE SMOOTH",
"660 457 OFFCURVE",
"612 507 OFFCURVE",
"549 507 CURVE SMOOTH"
);
}
);
width = 670;
}
);
unicode = 221E;
},
{
glyphname = integral;
lastChange = "2019-08-07 13:13:23 +0000";
layers = (
{
layerId = "BA196CD0-EE58-4274-B8DF-4393D3617A29";
paths = (
{
closed = 1;
nodes = (
"684 672 LINE",
"659 691 OFFCURVE",
"634 700 OFFCURVE",
"605 700 CURVE SMOOTH",
"542 700 OFFCURVE",
"506 662 OFFCURVE",
"490 576 CURVE SMOOTH",
"461 414 LINE",
"446 344 LINE",
"414 107 LINE SMOOTH",
"371 -202 OFFCURVE",
"294 -208 OFFCURVE",
"173 -208 CURVE SMOOTH",
"136 -208 OFFCURVE",
"104 -201 OFFCURVE",
"73 -187 CURVE",
"103 -33 LINE",
"136 -54 OFFCURVE",
"167 -65 OFFCURVE",
"198 -65 CURVE SMOOTH",
"261 -65 OFFCURVE",
"293 -25 OFFCURVE",
"315 83 CURVE",
"353 344 LINE",
"368 414 LINE",
"399 575 LINE SMOOTH",
"422 694 OFFCURVE",
"489 760 OFFCURVE",
"587 760 CURVE SMOOTH",
"622 760 OFFCURVE",
"654 754 OFFCURVE",
"684 742 CURVE"
);
}
);
width = 600;
}
);
unicode = 222B;
},
{
glyphname = product;
lastChange = "2019-08-07 13:14:01 +0000";
layers = (
{
layerId = "BA196CD0-EE58-4274-B8DF-4393D3617A29";
paths = (
{
closed = 1;
nodes = (
"15 628 LINE",
"593 628 LINE",
"593 700 LINE",
"15 700 LINE"
);
},
{
closed = 1;
nodes = (
"102 0 LINE",
"201 0 LINE",
"201 650 LINE",
"102 650 LINE"
);
},
{
closed = 1;
nodes = (
"408 -1 LINE",
"507 -1 LINE",
"507 649 LINE",
"408 649 LINE"
);
}
);
width = 600;
}
);
unicode = 220F;
},
{
glyphname = summation;
lastChange = "2019-08-07 13:16:43 +0000";
layers = (
{
layerId = "BA196CD0-EE58-4274-B8DF-4393D3617A29";
paths = (
{
closed = 1;
nodes = (
"88 629 LINE",
"527 629 LINE",
"527 700 LINE",
"88 700 LINE"
);
},
{
closed = 1;
nodes = (
"393 311 LINE",
"393 383 LINE",
"88 103 LINE",
"88 -7 LINE"
);
},
{
closed = 1;
nodes = (
"88 -6 LINE",
"527 -6 LINE",
"527 103 LINE",
"88 103 LINE"
);
},
{
closed = 0;
nodes = (
"393 311 LINE",
"393 383 LINE"
);
},
{
closed = 1;
nodes = (
"89 627 LINE",
"394 309 LINE",
"394 381 LINE",
"89 699 LINE"
);
}
);
width = 600;
}
);
unicode = 2211;
},
{
glyphname = radical;
lastChange = "2019-08-07 13:18:56 +0000";
layers = (
{
layerId = "BA196CD0-EE58-4274-B8DF-4393D3617A29";
paths = (
{
closed = 1;
nodes = (
"528 778 LINE",
"855 778 LINE",
"855 731 LINE",
"591 700 LINE",
"385 -53 LINE",
"202 -53 LINE",
"84 178 LINE",
"130 224 LINE",
"276 97 LINE"
);
}
);
width = 600;
}
);
unicode = 221A;
},
{
glyphname = partialdiff;
lastChange = "2019-08-07 22:43:13 +0000";
layers = (
{
layerId = "BA196CD0-EE58-4274-B8DF-4393D3617A29";
paths = (
{
closed = 1;
nodes = (
"407 404 OFFCURVE",
"449 326 OFFCURVE",
"463 234 CURVE SMOOTH",
"473 170 OFFCURVE",
"407 116 OFFCURVE",
"319 116 CURVE SMOOTH",
"230 116 OFFCURVE",
"174 168 OFFCURVE",
"174 234 CURVE SMOOTH",
"174 339 OFFCURVE",
"230 404 OFFCURVE",
"319 404 CURVE"
);
},
{
closed = 1;
nodes = (
"396 720 LINE",
"469 720 OFFCURVE",
"519 704 OFFCURVE",
"526 632 CURVE SMOOTH",
"537 515 OFFCURVE",
"517 456 OFFCURVE",
"497 336 CURVE",
"451 456 OFFCURVE",
"382 482 OFFCURVE",
"313 482 CURVE SMOOTH",
"166 482 OFFCURVE",
"75 387 OFFCURVE",
"75 234 CURVE SMOOTH",
"75 84 OFFCURVE",
"172 -14 OFFCURVE",
"319 -14 CURVE SMOOTH",
"487 -14 OFFCURVE",
"542 124 OFFCURVE",
"579 364 CURVE SMOOTH",
"604 525 OFFCURVE",
"605 519 OFFCURVE",
"604 656 CURVE SMOOTH",
"603 768 OFFCURVE",
"485 787 OFFCURVE",
"427 787 CURVE"
);
}
);
width = 654;
}
);
unicode = 2202;
},
{
glyphname = upArrow;
lastChange = "2019-08-06 13:25:20 +0000";
layers = (
{
layerId = "BA196CD0-EE58-4274-B8DF-4393D3617A29";
paths = (
{
closed = 1;
nodes = (
"307 0 LINE",
"384 0 LINE",
"384 549 LINE",
"307 549 LINE"
);
},
{
closed = 1;
nodes = (
"92 279 LINE",
"400 543 LINE",
"348 595 LINE",
"40 330 LINE"
);
},
{
closed = 1;
nodes = (
"296 544 LINE",
"589 290 LINE",
"641 341 LINE",
"348 596 LINE"
);
}
);
width = 681;
}
);
unicode = 2191;
},
{
glyphname = lozenge;
lastChange = "2019-08-06 13:19:45 +0000";
layers = (
{
layerId = "BA196CD0-EE58-4274-B8DF-4393D3617A29";
paths = (
{
closed = 1;
nodes = (
"304 -102 LINE",
"529 270 LINE",
"529 334 LINE",
"304 758 LINE",
"59 334 LINE",
"59 270 LINE"
);
},
{
closed = 1;
nodes = (
"134 362 LINE",
"301 652 LINE",
"455 362 LINE",
"455 318 LINE",
"301 65 LINE",
"134 318 LINE"
);
}
);
width = 600;
}
);
unicode = 25CA;
},
{
glyphname = at;
lastChange = "2019-08-05 20:59:54 +0000";
layers = (
{
components = (
{
alignment = -1;
locked = 1;
name = a;
transform = "{0.39381, 0, 0, 0.39381, 77, 159}";
}
);
layerId = "BA196CD0-EE58-4274-B8DF-4393D3617A29";
paths = (
{
closed = 1;
nodes = (
"373 405 OFFCURVE",
"426 311 OFFCURVE",
"379 176 CURVE SMOOTH",
"370 150 OFFCURVE",
"331 117 OFFCURVE",
"307 117 CURVE SMOOTH",
"270 117 OFFCURVE",
"265 141 OFFCURVE",
"267 164 CURVE",
"300 170 LINE",
"301 170 OFFCURVE",
"301 113 OFFCURVE",
"345 184 CURVE SMOOTH",
"369 222 OFFCURVE",
"373 243 OFFCURVE",
"373 281 CURVE SMOOTH",
"373 335 OFFCURVE",
"339 410 OFFCURVE",
"220 410 CURVE SMOOTH",
"121 410 OFFCURVE",
"78 322 OFFCURVE",
"69 290 CURVE SMOOTH",
"61 262 OFFCURVE",
"51 236 OFFCURVE",
"57 181 CURVE",
"60 156 OFFCURVE",
"74 126 OFFCURVE",
"123 104 CURVE SMOOTH",
"191 74 OFFCURVE",
"235 80 OFFCURVE",
"301 89 CURVE SMOOTH",
"319 91 OFFCURVE",
"340 96 OFFCURVE",
"360 101 CURVE",
"362 102 OFFCURVE",
"363 102 OFFCURVE",
"364 100 CURVE",
"386 26 LINE",
"387 25 OFFCURVE",
"386 22 OFFCURVE",
"385 22 CURVE SMOOTH",
"316 -5 OFFCURVE",
"228 -5 OFFCURVE",
"219 -5 CURVE SMOOTH",
"-48 -2 OFFCURVE",
"-39 262 OFFCURVE",
"77 387 CURVE",
"145 460 OFFCURVE",
"277 439 OFFCURVE",
"294 433 CURVE SMOOTH"
);
}
);
width = 419;
}
);
unicode = 0040;
},
{
glyphname = ampersand;
lastChange = "2019-08-07 22:28:54 +0000";
layers = (
{
layerId = "BA196CD0-EE58-4274-B8DF-4393D3617A29";
paths = (
{
closed = 1;
nodes = (
"659 59 OFFCURVE",
"661 61 OFFCURVE",
"675 79 CURVE",
"653 98 OFFCURVE",
"215 487 OFFCURVE",
"141 554 CURVE SMOOTH",
"97 594 OFFCURVE",
"130 681 OFFCURVE",
"270 685 CURVE SMOOTH",
"343 687 OFFCURVE",
"407 655 OFFCURVE",
"407 597 CURVE SMOOTH",
"407 535 OFFCURVE",
"310 495 OFFCURVE",
"232 450 CURVE SMOOTH",
"90 368 OFFCURVE",
"52 298 OFFCURVE",
"52 205 CURVE SMOOTH",
"52 164 OFFCURVE",
"82 85 OFFCURVE",
"115 61 CURVE",
"176 17 OFFCURVE",
"231 -6 OFFCURVE",
"289 -6 CURVE SMOOTH",
"371 -6 OFFCURVE",
"435 21 OFFCURVE",
"436 21 CURVE SMOOTH",
"513 33 OFFCURVE",
"696 168 OFFCURVE",
"693 319 CURVE",
"603 319 LINE",
"605 159 OFFCURVE",
"419 112 OFFCURVE",
"349 112 CURVE SMOOTH",
"292 112 OFFCURVE",
"223 132 OFFCURVE",
"201 176 CURVE SMOOTH",
"130 319 OFFCURVE",
"260 362 OFFCURVE",
"371 439 CURVE SMOOTH",
"423 475 OFFCURVE",
"464 515 OFFCURVE",
"474 552 CURVE SMOOTH",
"484 588 OFFCURVE",
"483 612 OFFCURVE",
"450 658 CURVE SMOOTH",
"404 722 OFFCURVE",
"325 728 OFFCURVE",
"257 721 CURVE SMOOTH",
"207 716 OFFCURVE",
"122 692 OFFCURVE",
"95 641 CURVE SMOOTH",
"60 575 OFFCURVE",
"78 515 OFFCURVE",
"128 472 CURVE SMOOTH",
"636 32 LINE"
);
}
);
width = 600;
}
);
unicode = 0026;
},
{
glyphname = paragraph;
lastChange = "2019-08-06 13:38:57 +0000";
layers = (
{
layerId = "BA196CD0-EE58-4274-B8DF-4393D3617A29";
paths = (
{
closed = 1;
nodes = (
"438 -110 LINE",
"515 -110 LINE",
"500 692 LINE",
"423 692 LINE"
);
},
{
closed = 1;
nodes = (
"67 -110 LINE",
"245 -110 LINE",
"302 693 LINE",
"225 693 LINE"
);
},
{
closed = 1;
nodes = (
"229 453 OFFCURVE",
"229 579 OFFCURVE",
"229 693 CURVE",
"136 693 OFFCURVE",
"60 613 OFFCURVE",
"60 516 CURVE SMOOTH",
"60 419 OFFCURVE",
"131 337 OFFCURVE",
"229 339 CURVE"
);
}
);
width = 600;
}
);
unicode = 00B6;
},
{
glyphname = section;
lastChange = "2019-08-06 13:52:34 +0000";
layers = (
{
anchors = (
{
name = bottom;
position = "{389, 111}";
},
{
name = top;
position = "{389, 840}";
}
);
components = (
{
alignment = -1;
name = S;
transform = "{0.68301, 0, 0, 0.68301, 89, -57}";
}
);
layerId = "BA196CD0-EE58-4274-B8DF-4393D3617A29";
paths = (
{
closed = 1;
nodes = (
"491 666 OFFCURVE",
"431 680 OFFCURVE",
"384 680 CURVE SMOOTH",
"275 680 OFFCURVE",
"209 626 OFFCURVE",
"209 538 CURVE SMOOTH",
"209 462 OFFCURVE",
"252 422 OFFCURVE",
"352 402 CURVE SMOOTH",
"393 394 LINE SMOOTH",
"461 380 OFFCURVE",
"495 356 OFFCURVE",
"493 315 CURVE SMOOTH",
"489 248 OFFCURVE",
"459 241 OFFCURVE",
"391 241 CURVE SMOOTH",
"354 241 OFFCURVE",
"262 257 OFFCURVE",
"236 277 CURVE",
"184 295 LINE",
"157 213 OFFCURVE",
"228 163 OFFCURVE",
"369 163 CURVE SMOOTH",
"530 163 OFFCURVE",
"573 163 OFFCURVE",
"573 310 CURVE SMOOTH",
"573 392 OFFCURVE",
"515 437 OFFCURVE",
"413 458 CURVE SMOOTH",
"373 466 LINE SMOOTH",
"313 478 OFFCURVE",
"260 504 OFFCURVE",
"260 548 CURVE SMOOTH",
"260 601 OFFCURVE",
"319 625 OFFCURVE",
"392 625 CURVE SMOOTH",
"440 625 OFFCURVE",
"480 613 OFFCURVE",
"520 554 CURVE",
"548 605 LINE"
);
}
);
width = 777;
}
);
unicode = 00A7;
},
{
glyphname = copyright;
lastChange = "2019-08-07 22:29:41 +0000";
layers = (
{
components = (
{
name = c;
transform = "{0.38554, 0, 0, 0.38554, 199, 421}";
}
);
layerId = "BA196CD0-EE58-4274-B8DF-4393D3617A29";
paths = (
{
closed = 1;
nodes = (
"415 335 OFFCURVE",
"500 419 OFFCURVE",
"500 525 CURVE SMOOTH",
"500 627 OFFCURVE",
"415 712 OFFCURVE",
"311 712 CURVE SMOOTH",
"206 712 OFFCURVE",
"122 627 OFFCURVE",
"122 525 CURVE SMOOTH",
"122 419 OFFCURVE",
"206 335 OFFCURVE",
"311 335 CURVE SMOOTH"
);
},
{
closed = 1;
nodes = (
"224 369 OFFCURVE",
"155 440 OFFCURVE",
"155 525 CURVE SMOOTH",
"155 612 OFFCURVE",
"224 682 OFFCURVE",
"311 682 CURVE SMOOTH",
"397 682 OFFCURVE",
"467 612 OFFCURVE",
"467 525 CURVE SMOOTH",
"467 440 OFFCURVE",
"397 369 OFFCURVE",
"311 369 CURVE SMOOTH"
);
}
);
width = 583;
}
);
unicode = 00A9;
},
{
glyphname = registered;
lastChange = "2019-08-07 22:29:56 +0000";
layers = (
{
components = (
{
name = R;
transform = "{0.28966, 0, 0, 0.28966, 215, 423}";
}
);
layerId = "BA196CD0-EE58-4274-B8DF-4393D3617A29";
paths = (
{
closed = 1;
nodes = (
"415 335 OFFCURVE",
"500 419 OFFCURVE",
"500 525 CURVE SMOOTH",
"500 627 OFFCURVE",
"415 712 OFFCURVE",
"311 712 CURVE SMOOTH",
"206 712 OFFCURVE",
"122 627 OFFCURVE",
"122 525 CURVE SMOOTH",
"122 419 OFFCURVE",
"206 335 OFFCURVE",
"311 335 CURVE SMOOTH"
);
},
{
closed = 1;
nodes = (
"224 369 OFFCURVE",
"155 440 OFFCURVE",
"155 525 CURVE SMOOTH",
"155 612 OFFCURVE",
"224 682 OFFCURVE",
"311 682 CURVE SMOOTH",
"397 682 OFFCURVE",
"467 612 OFFCURVE",
"467 525 CURVE SMOOTH",
"467 440 OFFCURVE",
"397 369 OFFCURVE",
"311 369 CURVE SMOOTH"
);
}
);
width = 600;
}
);
unicode = 00AE;
},
{
glyphname = degree;
lastChange = "2019-08-06 13:49:47 +0000";
layers = (
{
layerId = "BA196CD0-EE58-4274-B8DF-4393D3617A29";
paths = (
{
closed = 1;
nodes = (
"415 335 OFFCURVE",
"500 419 OFFCURVE",
"500 525 CURVE SMOOTH",
"500 627 OFFCURVE",
"415 713 OFFCURVE",
"311 712 CURVE SMOOTH",
"206 711 OFFCURVE",
"122 627 OFFCURVE",
"122 525 CURVE SMOOTH",
"122 419 OFFCURVE",
"206 335 OFFCURVE",
"311 335 CURVE SMOOTH"
);
},
{
closed = 1;
nodes = (
"256 434 OFFCURVE",
"208 482 OFFCURVE",
"208 540 CURVE SMOOTH",
"208 600 OFFCURVE",
"256 647 OFFCURVE",
"315 647 CURVE SMOOTH",
"374 647 OFFCURVE",
"422 600 OFFCURVE",
"422 540 CURVE SMOOTH",
"422 482 OFFCURVE",
"374 434 OFFCURVE",
"315 434 CURVE SMOOTH"
);
}
);
width = 600;
}
);
unicode = 00B0;
},
{
glyphname = bar;
lastChange = "2019-08-05 20:22:22 +0000";
layers = (
{
layerId = "BA196CD0-EE58-4274-B8DF-4393D3617A29";
paths = (
{
closed = 1;
nodes = (
"241 -150 LINE",
"311 -150 LINE",
"337 700 LINE",
"267 700 LINE"
);
}
);
width = 600;
}
);
unicode = 007C;
},
{
glyphname = brokenbar;
lastChange = "2019-08-06 18:45:53 +0000";
layers = (
{
layerId = "BA196CD0-EE58-4274-B8DF-4393D3617A29";
paths = (
{
closed = 1;
nodes = (
"338 700 LINE",
"268 700 LINE",
"259 398 LINE",
"329 401 LINE"
);
},
{
closed = 1;
nodes = (
"329 401 LINE",
"324 232 LINE"
);
},
{
closed = 1;
nodes = (
"253 213 LINE",
"259 398 LINE"
);
},
{
closed = 1;
nodes = (
"242 -150 LINE",
"312 -150 LINE",
"324 232 LINE",
"253 213 LINE"
);
}
);
width = 600;
}
);
unicode = 00A6;
},
{
glyphname = dagger;
lastChange = "2019-08-07 00:29:35 +0000";
layers = (
{
components = (
{
name = minus;
transform = "{0.66592, 0, 0, 1.07354, 96, 261}";
}
);
layerId = "BA196CD0-EE58-4274-B8DF-4393D3617A29";
paths = (
{
closed = 1;
nodes = (
"247 318 LINE",
"334 177 LINE",
"346 751 LINE",
"264 751 LINE"
);
}
);
width = 600;
}
);
unicode = 2020;
},
{
glyphname = rhotichookmod;
lastChange = "2019-08-07 23:11:19 +0000";
layers = (
{
anchors = (
{
name = _hook;
position = "{213, 231}";
},
{
name = _right;
position = "{215, 217}";
},
{
name = _righthook;
position = "{409, 221}";
}
);
layerId = "BA196CD0-EE58-4274-B8DF-4393D3617A29";
paths = (
{
closed = 1;
nodes = (
"179 245 LINE",
"179 199 LINE",
"240 210 LINE",
"240 197 OFFCURVE",
"240 188 OFFCURVE",
"240 179 CURVE SMOOTH",
"240 137 OFFCURVE",
"256 89 OFFCURVE",
"316 89 CURVE SMOOTH",
"369 89 OFFCURVE",
"394 136 OFFCURVE",
"394 193 CURVE SMOOTH",
"394 212 OFFCURVE",
"394 231 OFFCURVE",
"394 255 CURVE",
"348 240 LINE",
"357 224 OFFCURVE",
"357 200 OFFCURVE",
"357 185 CURVE SMOOTH",
"357 149 OFFCURVE",
"327 144 OFFCURVE",
"311 144 CURVE SMOOTH",
"284 144 OFFCURVE",
"277 165 OFFCURVE",
"273 190 CURVE SMOOTH",
"270 207 OFFCURVE",
"270 239 OFFCURVE",
"270 256 CURVE"
);
}
);
width = 622;
}
);
unicode = 02DE;
},
{
glyphname = tonebarextrahighmod;
lastChange = "2019-08-08 00:01:25 +0000";
layers = (
{
layerId = "BA196CD0-EE58-4274-B8DF-4393D3617A29";
paths = (
{
closed = 1;
nodes = (
"472 619 LINE",
"402 619 LINE",
"339 -44 LINE",
"450 -44 LINE"
);
},
{
closed = 1;
nodes = (
"469 620 LINE",
"64 620 LINE",
"64 521 LINE",
"469 520 LINE"
);
}
);
width = 600;
}
);
unicode = 02E5;
},
{
glyphname = tonebarhighmod;
lastChange = "2019-08-08 00:01:25 +0000";
layers = (
{
layerId = "BA196CD0-EE58-4274-B8DF-4393D3617A29";
paths = (
{
closed = 1;
nodes = (
"472 619 LINE",
"402 619 LINE",
"339 -44 LINE",
"450 -44 LINE"
);
},
{
closed = 1;
nodes = (
"469 458 LINE",
"64 458 LINE",
"64 359 LINE",
"469 358 LINE"
);
}
);
width = 600;
}
);
unicode = 02E6;
},
{
glyphname = tonebarlowmod;
lastChange = "2019-08-08 00:01:25 +0000";
layers = (
{
layerId = "BA196CD0-EE58-4274-B8DF-4393D3617A29";
paths = (
{
closed = 1;
nodes = (
"472 619 LINE",
"402 619 LINE",
"339 -44 LINE",
"450 -44 LINE"
);
},
{
closed = 1;
nodes = (
"64 216 LINE",
"64 117 LINE",
"419 117 LINE",
"419 217 LINE"
);
}
);
width = 600;
}
);
unicode = 02E8;
},
{
glyphname = tonebarmidmod;
lastChange = "2019-08-08 16:30:26 +0000";
layers = (
{
layerId = "BA196CD0-EE58-4274-B8DF-4393D3617A29";
paths = (
{
closed = 1;
nodes = (
"472 619 LINE",
"402 619 LINE",
"339 -44 LINE",
"450 -44 LINE"
);
},
{
closed = 1;
nodes = (
"450 338 LINE",
"64 338 LINE",
"64 238 LINE",
"450 238 LINE"
);
}
);
width = 600;
}
);
unicode = 02E7;
},
{
glyphname = colontriangularhalfmod;
lastChange = "2019-08-08 00:08:12 +0000";
layers = (
{
layerId = "BA196CD0-EE58-4274-B8DF-4393D3617A29";
paths = (
{
closed = 1;
nodes = (
"299 345 LINE",
"440 549 LINE",
"158 549 LINE"
);
}
);
width = 600;
}
);
unicode = 02D1;
},
{
glyphname = glottalstopreversedmod;
lastChange = "2019-08-08 00:08:27 +0000";
layers = (
{
layerId = "BA196CD0-EE58-4274-B8DF-4393D3617A29";
paths = (
{
closed = 1;
nodes = (
"374 738 OFFCURVE",
"379 771 OFFCURVE",
"382 788 CURVE",
"267 790 OFFCURVE",
"166 746 OFFCURVE",
"199 702 CURVE SMOOTH",
"219 675 OFFCURVE",
"282 641 OFFCURVE",
"298 561 CURVE",
"322 561 OFFCURVE",
"343 561 OFFCURVE",
"356 562 CURVE",
"343 648 OFFCURVE",
"295 677 OFFCURVE",
"275 692 CURVE SMOOTH",
"260 704 OFFCURVE",
"275 723 OFFCURVE",
"316 723 CURVE SMOOTH",
"331 723 OFFCURVE",
"350 721 OFFCURVE",
"371 718 CURVE"
);
}
);
width = 600;
}
);
unicode = 02C1;
},
{
glyphname = verticallinelowmod;
lastChange = "2019-08-08 00:08:27 +0000";
layers = (
{
layerId = "BA196CD0-EE58-4274-B8DF-4393D3617A29";
paths = (
{
closed = 1;
nodes = (
"462 -132 LINE",
"557 -132 LINE",
"557 106 LINE",
"481 106 LINE"
);
}
);
width = 1030;
}
);
unicode = 02CC;
},
{
glyphname = lefttackbelowcomb;
lastChange = "2019-08-08 00:09:08 +0000";
layers = (
{
layerId = "BA196CD0-EE58-4274-B8DF-4393D3617A29";
paths = (
{
closed = 1;
nodes = (
"345 -248 LINE",
"403 -248 LINE",
"403 -46 LINE",
"345 -46 LINE"
);
},
{
closed = 1;
nodes = (
"253 -172 LINE",
"403 -172 LINE",
"403 -121 LINE",
"253 -121 LINE"
);
}
);
width = 600;
}
);
unicode = 0318;
},
{
glyphname = ringhalfleftbelowcomb;
lastChange = "2019-08-08 00:22:12 +0000";
layers = (
{
layerId = "BA196CD0-EE58-4274-B8DF-4393D3617A29";
paths = (
{
closed = 1;
nodes = (
"442 -202 LINE",
"414 -202 OFFCURVE",
"391 -201 OFFCURVE",
"391 -148 CURVE SMOOTH",
"391 -119 OFFCURVE",
"414 -95 OFFCURVE",
"442 -95 CURVE",
"442 -66 LINE",
"392 -66 OFFCURVE",
"352 -109 OFFCURVE",
"352 -161 CURVE SMOOTH",
"352 -214 OFFCURVE",
"392 -257 OFFCURVE",
"442 -257 CURVE"
);
}
);
width = 600;
}
);
unicode = 031C;
},
{
glyphname = bridgebelowcomb;
lastChange = "2019-08-08 00:28:24 +0000";
layers = (
{
layerId = "BA196CD0-EE58-4274-B8DF-4393D3617A29";
paths = (
{
closed = 1;
nodes = (
"230 -106 LINE",
"505 -106 LINE",
"505 -46 LINE",
"230 -46 LINE"
);
},
{
closed = 1;
nodes = (
"443 -200 LINE",
"512 -200 LINE",
"512 -46 LINE",
"443 -46 LINE"
);
},
{
closed = 1;
nodes = (
"228 -200 LINE",
"297 -200 LINE",
"297 -46 LINE",
"228 -46 LINE"
);
}
);
width = 600;
}
);
unicode = 032A;
},
{
glyphname = squarebelowcomb;
lastChange = "2019-08-08 00:19:10 +0000";
layers = (
{
background = {
paths = (
{
closed = 1;
nodes = (
"244 -247 LINE",
"473 -247 LINE",
"473 -52 LINE",
"244 -52 LINE"
);
},
{
closed = 1;
nodes = (
"405 -103 LINE",
"405 -202 LINE",
"307 -202 LINE",
"307 -103 LINE"
);
}
);
};
layerId = "BA196CD0-EE58-4274-B8DF-4393D3617A29";
paths = (
{
closed = 1;
nodes = (
"487 -19 LINE",
"487 -239 LINE",
"230 -239 LINE",
"230 -19 LINE"
);
},
{
closed = 1;
nodes = (
"471 -35 LINE",
"471 -225 LINE",
"247 -225 LINE",
"247 -35 LINE"
);
},
{
closed = 1;
nodes = (
"294 -195 LINE",
"418 -195 LINE",
"418 -70 LINE",
"294 -70 LINE"
);
},
{
closed = 1;
nodes = (
"287 -202 LINE",
"424 -202 LINE",
"424 -63 LINE",
"287 -63 LINE"
);
},
{
closed = 1;
nodes = (
"413 -76 LINE",
"413 -190 LINE",
"300 -190 LINE",
"300 -76 LINE"
);
},
{
closed = 1;
nodes = (
"224 -248 LINE",
"494 -248 LINE",
"494 -13 LINE",
"224 -13 LINE"
);
}
);
width = 600;
}
);
unicode = 033B;
},
{
glyphname = seagullbelowcomb;
lastChange = "2019-08-08 00:19:10 +0000";
layers = (
{
layerId = "BA196CD0-EE58-4274-B8DF-4393D3617A29";
paths = (
{
closed = 1;
nodes = (
"541 -24 OFFCURVE",
"557 -12 OFFCURVE",
"584 -12 CURVE SMOOTH",
"620 -12 OFFCURVE",
"648 -42 OFFCURVE",
"649 -85 CURVE SMOOTH",
"652 -185 LINE",
"612 -190 LINE",
"612 -82 LINE SMOOTH",
"612 -49 OFFCURVE",
"604 -32 OFFCURVE",
"581 -32 CURVE SMOOTH",
"551 -32 OFFCURVE",
"533 -55 OFFCURVE",
"534 -92 CURVE SMOOTH",
"536 -190 LINE",
"500 -190 LINE",
"504 -80 LINE",
"504 -57 OFFCURVE",
"491 -31 OFFCURVE",
"467 -31 CURVE SMOOTH",
"438 -31 OFFCURVE",
"423 -30 OFFCURVE",
"417 -77 CURVE",
"408 -190 LINE",
"369 -185 LINE",
"384 -38 LINE SMOOTH",
"387 -12 OFFCURVE",
"422 -3 OFFCURVE",
"456 -3 CURVE SMOOTH",
"481 -3 OFFCURVE",
"517 -25 OFFCURVE",
"526 -49 CURVE"
);
}
);
width = 1014;
}
);
unicode = 033C;
},
{
glyphname = leftanglebelowcomb;
lastChange = "2019-08-08 01:14:01 +0000";
layers = (
{
layerId = "BA196CD0-EE58-4274-B8DF-4393D3617A29";
paths = (
{
closed = 1;
nodes = (
"68 -180 LINE",
"334 -172 LINE",
"334 -102 LINE",
"68 -89 LINE"
);
},
{
closed = 1;
nodes = (
"233 -302 LINE",
"344 -302 LINE",
"335 -105 LINE",
"235 -105 LINE"
);
}
);
width = 600;
}
);
unicode = 0349;
},
{
glyphname = doublebrevebelowcomb;
lastChange = "2019-08-08 16:24:23 +0000";
layers = (
{
anchors = (
{
name = _bottom;
position = "{491, 0}";
},
{
name = bottom;
position = "{491, -184}";
}
);
guideLines = (
{
position = "{234, -35}";
},
{
position = "{340, -64}";
},
{
position = "{333, -117}";
}
);
layerId = "BA196CD0-EE58-4274-B8DF-4393D3617A29";
paths = (
{
closed = 1;
nodes = (
"725 -184 OFFCURVE",
"824 -117 OFFCURVE",
"883 -35 CURVE",
"875 -25 OFFCURVE",
"865 -22 OFFCURVE",
"857 -12 CURVE",
"820 -65 OFFCURVE",
"728 -148 OFFCURVE",
"485 -148 CURVE SMOOTH",
"241 -148 OFFCURVE",
"161 -64 OFFCURVE",
"126 -12 CURVE",
"119 -18 OFFCURVE",
"111 -23 OFFCURVE",
"99 -35 CURVE",
"159 -117 OFFCURVE",
"241 -184 OFFCURVE",
"485 -184 CURVE SMOOTH"
);
}
);
width = 600;
}
);
unicode = 035C;
},
{
glyphname = arrowdoublerightbelowcomb;
lastChange = "2019-08-08 16:04:19 +0000";
layers = (
{
layerId = "BA196CD0-EE58-4274-B8DF-4393D3617A29";
paths = (
{
closed = 1;
nodes = (
"69 -215 LINE",
"895 -215 LINE",
"895 -154 LINE",
"69 -154 LINE"
);
},
{
closed = 1;
nodes = (
"811 -285 LINE",
"1014 -182 LINE",
"811 -86 LINE"
);
}
);
width = 600;
}
);
unicode = 0362;
},
{
glyphname = acute;
lastChange = "2019-08-09 17:27:45 +0000";
layers = (
{
anchors = (
{
name = _greek_cap;
position = "{311, 580}";
},
{
name = _top;
position = "{279, 553}";
},
{
name = _topleft;
position = "{330, 602}";
}
);
layerId = "BA196CD0-EE58-4274-B8DF-4393D3617A29";
paths = (
{
closed = 1;
nodes = (
"235 580 LINE",
"311 580 LINE",
"362 734 LINE",
"311 734 LINE"
);
}
);
width = 600;
}
);
unicode = 00B4;
},
{
glyphname = acutegraveacutecomb;
lastChange = "2019-08-08 01:15:41 +0000";
layers = (
{
anchors = (
{
name = _top;
position = "{303, 500}";
},
{
name = top;
position = "{303, 807}";
}
);
layerId = "BA196CD0-EE58-4274-B8DF-4393D3617A29";
paths = (
{
closed = 1;
nodes = (
"112 624 LINE",
"255 768 LINE",
"215 807 LINE",
"72 663 LINE"
);
},
{
closed = 1;
nodes = (
"390 613 LINE",
"533 757 LINE",
"493 796 LINE",
"350 652 LINE"
);
},
{
closed = 1;
nodes = (
"255 768 LINE",
"215 729 LINE",
"358 585 LINE",
"398 624 LINE"
);
}
);
width = 600;
}
);
unicode = 1DC9;
},
{
glyphname = breve;
lastChange = "2019-08-07 21:44:07 +0000";
layers = (
{
layerId = "BA196CD0-EE58-4274-B8DF-4393D3617A29";
paths = (
{
closed = 1;
nodes = (
"410 726 OFFCURVE",
"358 726 OFFCURVE",
"205 726 CURVE",
"205 638 OFFCURVE",
"253 624 OFFCURVE",
"332 624 CURVE SMOOTH",
"425 624 OFFCURVE",
"468 639 OFFCURVE",
"468 726 CURVE"
);
},
{
closed = 1;
nodes = (
"246 726 OFFCURVE",
"429 726 OFFCURVE",
"533 726 CURVE",
"533 603 OFFCURVE",
"438 529 OFFCURVE",
"332 529 CURVE SMOOTH",
"225 529 OFFCURVE",
"140 603 OFFCURVE",
"140 726 CURVE"
);
}
);
width = 652;
}
);
unicode = 02D8;
},
{
glyphname = caron;
lastChange = "2019-08-07 21:46:50 +0000";
layers = (
{
anchors = (
{
name = _bottom;
position = "{373, 752}";
},
{
name = _top;
position = "{372, 488}";
},
{
name = top;
position = "{370, 754}";
}
);
layerId = "BA196CD0-EE58-4274-B8DF-4393D3617A29";
paths = (
{
closed = 1;
nodes = (
"307 620 LINE",
"174 751 LINE",
"228 751 LINE",
"371 652 LINE",
"516 751 LINE",
"570 751 LINE",
"438 620 LINE",
"399 556 LINE",
"351 556 LINE"
);
}
);
width = 744;
}
);
unicode = 02C7;
},
{
glyphname = cedilla;
lastChange = "2019-08-07 00:40:45 +0000";
layers = (
{
layerId = "BA196CD0-EE58-4274-B8DF-4393D3617A29";
paths = (
{
closed = 1;
nodes = (
"279 0 LINE",
"311 0 LINE",
"282 -80 LINE",
"295 -80 OFFCURVE",
"304 -80 OFFCURVE",
"313 -80 CURVE SMOOTH",
"352 -80 OFFCURVE",
"413 -96 OFFCURVE",
"403 -156 CURVE SMOOTH",
"395 -205 OFFCURVE",
"356 -234 OFFCURVE",
"299 -234 CURVE SMOOTH",
"280 -234 OFFCURVE",
"261 -234 OFFCURVE",
"237 -234 CURVE",
"248 -181 LINE",
"271 -186 OFFCURVE",
"279 -186 OFFCURVE",
"301 -186 CURVE SMOOTH",
"337 -186 OFFCURVE",
"366 -167 OFFCURVE",
"366 -151 CURVE SMOOTH",
"366 -107 OFFCURVE",
"328 -105 OFFCURVE",
"303 -105 CURVE SMOOTH",
"286 -105 OFFCURVE",
"266 -107 OFFCURVE",
"242 -110 CURVE"
);
}
);
width = 622;
}
);
unicode = 00B8;
},
{
glyphname = grave;
lastChange = "2019-08-07 21:47:54 +0000";
layers = (
{
anchors = (
{
name = _top;
position = "{497, 571}";
}
);
layerId = "BA196CD0-EE58-4274-B8DF-4393D3617A29";
paths = (
{
closed = 1;
nodes = (
"632 619 LINE",
"461 746 LINE",
"382 746 LINE",
"498 634 LINE"
);
}
);
width = 1030;
}
);
unicode = 0060;
},
{
glyphname = macronacutecomb;
lastChange = "2019-08-08 01:02:15 +0000";
layers = (
{
anchors = (
{
name = _top;
position = "{353, 500}";
},
{
name = top;
position = "{353, 808}";
}
);
layerId = "BA196CD0-EE58-4274-B8DF-4393D3617A29";
paths = (
{
closed = 1;
nodes = (
"144 572 LINE",
"370 581 LINE",
"561 792 LINE",
"486 808 LINE",
"364 654 LINE",
"175 642 LINE"
);
}
);
width = 600;
}
);
unicode = 1DC4;
},
{
glyphname = ogonek;
lastChange = "2019-08-07 00:54:06 +0000";
layers = (
{
layerId = "BA196CD0-EE58-4274-B8DF-4393D3617A29";
paths = (
{
closed = 1;
nodes = (
"320 -148 OFFCURVE",
"301 -150 OFFCURVE",
"286 -150 CURVE SMOOTH",
"245 -150 OFFCURVE",
"225 -139 OFFCURVE",
"225 -119 CURVE SMOOTH",
"225 -93 OFFCURVE",
"259 -50 OFFCURVE",
"326 11 CURVE",
"313 12 OFFCURVE",
"294 12 OFFCURVE",
"270 12 CURVE",
"200 -43 OFFCURVE",
"169 -91 OFFCURVE",
"169 -129 CURVE SMOOTH",
"169 -185 OFFCURVE",
"237 -217 OFFCURVE",
"352 -215 CURVE",
"349 -198 OFFCURVE",
"344 -165 OFFCURVE",
"341 -145 CURVE"
);
}
);
width = 600;
}
);
unicode = 02DB;
},
{
glyphname = ring;
lastChange = "2019-08-07 21:48:22 +0000";
layers = (
{
anchors = (
{
name = _top;
position = "{301, 503}";
}
);
layerId = "BA196CD0-EE58-4274-B8DF-4393D3617A29";
paths = (
{
closed = 1;
nodes = (
"351 554 OFFCURVE",
"391 597 OFFCURVE",
"391 650 CURVE SMOOTH",
"391 702 OFFCURVE",
"351 745 OFFCURVE",
"301 745 CURVE SMOOTH",
"251 745 OFFCURVE",
"211 702 OFFCURVE",
"211 650 CURVE SMOOTH",
"211 597 OFFCURVE",
"251 554 OFFCURVE",
"301 554 CURVE SMOOTH"
);
},
{
closed = 1;
nodes = (
"273 609 OFFCURVE",
"250 610 OFFCURVE",
"250 663 CURVE SMOOTH",
"250 692 OFFCURVE",
"273 716 OFFCURVE",
"301 716 CURVE SMOOTH",
"329 716 OFFCURVE",
"352 692 OFFCURVE",
"352 663 CURVE SMOOTH",
"352 610 OFFCURVE",
"329 609 OFFCURVE",
"301 609 CURVE SMOOTH"
);
}
);
width = 600;
}
);
unicode = 02DA;
},
{
glyphname = tilde;
lastChange = "2019-08-10 00:18:20 +0000";
layers = (
{
anchors = (
{
name = _bottom_tilde;
position = "{309, 651}";
},
{
name = _center;
position = "{309, 654}";
},
{
name = _top;
position = "{310, 509}";
},
{
name = _top_hook;
position = "{305, 740}";
}
);
layerId = "BA196CD0-EE58-4274-B8DF-4393D3617A29";
paths = (
{
closed = 1;
nodes = (
"209 622 OFFCURVE",
"209 685 OFFCURVE",
"248 684 CURVE SMOOTH",
"285 683 OFFCURVE",
"304 580 OFFCURVE",
"376 579 CURVE SMOOTH",
"430 578 OFFCURVE",
"460 583 OFFCURVE",
"462 729 CURVE",
"436 729 OFFCURVE",
"441 729 OFFCURVE",
"416 729 CURVE",
"414 680 OFFCURVE",
"425 629 OFFCURVE",
"375 629 CURVE SMOOTH",
"331 629 OFFCURVE",
"314 729 OFFCURVE",
"248 729 CURVE",
"177 729 OFFCURVE",
"162 696 OFFCURVE",
"154 579 CURVE",
"209 579 OFFCURVE",
"183 579 OFFCURVE",
"209 579 CURVE"
);
}
);
width = 600;
}
);
unicode = 02DC;
},
{
glyphname = od_hook;
lastChange = "2019-08-11 00:05:36 +0000";
layers = (
{
anchors = (
{
name = _bottom;
position = "{223, 363}";
},
{
name = _bottomhook;
position = "{224, 362}";
},
{
name = _center;
position = "{224, 363}";
},
{
name = _top;
position = "{225, 363}";
}
);
layerId = "BA196CD0-EE58-4274-B8DF-4393D3617A29";
paths = (
{
closed = 1;
nodes = (
"217 383 LINE",
"217 337 LINE",
"324 348 LINE",
"324 335 OFFCURVE",
"324 326 OFFCURVE",
"324 317 CURVE SMOOTH",
"324 275 OFFCURVE",
"340 227 OFFCURVE",
"400 227 CURVE",
"400 244 OFFCURVE",
"399 254 OFFCURVE",
"395 282 CURVE",
"363 282 OFFCURVE",
"361 303 OFFCURVE",
"357 328 CURVE SMOOTH",
"354 345 OFFCURVE",
"354 377 OFFCURVE",
"354 394 CURVE"
);
}
);
width = 600;
}
);
},
{
glyphname = od_bottom_hook;
lastChange = "2019-08-11 00:05:36 +0000";
layers = (
{
anchors = (
{
name = _bottom;
position = "{365, 332}";
},
{
name = _bottomhook;
position = "{366, 328}";
},
{
name = _vhook;
position = "{353, 402}";
},
{
name = bottom_hook;
position = "{359, 385}";
}
);
layerId = "BA196CD0-EE58-4274-B8DF-4393D3617A29";
paths = (
{
closed = 1;
nodes = (
"317 533 LINE",
"317 505 OFFCURVE",
"317 386 OFFCURVE",
"317 367 CURVE SMOOTH",
"317 276 OFFCURVE",
"378 162 OFFCURVE",
"508 162 CURVE",
"507 215 OFFCURVE",
"505 239 OFFCURVE",
"499 291 CURVE",
"430 291 OFFCURVE",
"397 337 OFFCURVE",
"388 391 CURVE SMOOTH",
"382 427 OFFCURVE",
"382 497 OFFCURVE",
"382 533 CURVE"
);
}
);
width = 600;
}
);
},
{
glyphname = od_top_hook;
lastChange = "2019-08-11 00:05:36 +0000";
layers = (
{
anchors = (
{
name = _top_hook;
position = "{351, 274}";
}
);
layerId = "BA196CD0-EE58-4274-B8DF-4393D3617A29";
paths = (
{
closed = 1;
nodes = (
"382 198 OFFCURVE",
"382 268 OFFCURVE",
"388 304 CURVE SMOOTH",
"397 358 OFFCURVE",
"430 404 OFFCURVE",
"499 404 CURVE",
"505 456 OFFCURVE",
"507 480 OFFCURVE",
"508 533 CURVE",
"378 533 OFFCURVE",
"317 419 OFFCURVE",
"317 328 CURVE SMOOTH",
"317 309 OFFCURVE",
"317 289 OFFCURVE",
"317 261 CURVE",
"382 162 LINE"
);
}
);
width = 600;
}
);
},
{
glyphname = od_bottom_wide_hook;
lastChange = "2019-08-11 00:05:36 +0000";
layers = (
{
anchors = (
{
name = _bottom_hook;
position = "{360, 312}";
},
{
name = _bottom_wide;
position = "{366, 325}";
}
);
layerId = "BA196CD0-EE58-4274-B8DF-4393D3617A29";
paths = (
{
closed = 1;
nodes = (
"290 435 LINE",
"290 402 OFFCURVE",
"244 345 OFFCURVE",
"244 323 CURVE SMOOTH",
"244 243 OFFCURVE",
"378 162 OFFCURVE",
"508 162 CURVE",
"507 215 OFFCURVE",
"505 239 OFFCURVE",
"499 291 CURVE",
"430 291 OFFCURVE",
"397 337 OFFCURVE",
"388 391 CURVE SMOOTH",
"382 427 OFFCURVE",
"382 497 OFFCURVE",
"382 533 CURVE"
);
}
);
width = 600;
}
);
},
